<svg width="259" height="267" viewBox="0 0 259 267" fill="none" xmlns="http://www.w3.org/2000/svg">
<path fill-rule="evenodd" clip-rule="evenodd" d="M182.545 50.5913C213.308 65.0125 238.713 92.9853 243.432 123.625C247.885 152.537 225.847 174.289 204.42 192.621C185.51 208.8 161.762 217.685 134.439 216.878C102.147 215.923 64.874 213.319 44.1952 187.885C23.1309 161.976 28.5697 127.897 39.8474 100.533C49.5558 76.9773 73.2537 64.6436 98.6516 55.7548C125.404 46.3918 154.576 37.4802 182.545 50.5913Z" fill="url(#paint0_linear)" fill-opacity="0.3"/>
<path fill-rule="evenodd" clip-rule="evenodd" d="M154.305 45.2872C186.116 49.7696 216.842 68.0139 229.61 94.4372C241.657 119.371 227.771 145.206 213.488 167.773C200.883 187.691 181.88 202.353 156.956 209.237C127.5 217.372 93.0833 225.402 67.3329 208.139C41.1024 190.554 36.5632 158.185 39.1657 130.269C41.406 106.238 59.4064 88.4676 79.8994 73.3422C101.485 57.41 125.384 41.212 154.305 45.2872Z" fill="url(#paint1_linear)"/>
<g filter="url(#filter0_d)">
<path d="M96.9788 121.587L105.358 120.182L107.194 131.133C105.91 131.803 104.681 132.326 103.506 132.701C102.342 133.085 101.135 133.381 99.8826 133.591C96.6947 134.126 94.1013 133.6 92.1026 132.014C90.1119 130.417 88.8227 127.865 88.2349 124.36C87.6633 120.95 88.1904 118.129 89.8162 115.896C91.4516 113.661 93.9981 112.254 97.4557 111.674C99.6227 111.311 101.785 111.394 103.944 111.923L103.056 115.755C101.386 115.243 99.7179 115.127 98.0517 115.406C96.1158 115.731 94.6742 116.641 93.7268 118.136C92.7794 119.632 92.4898 121.478 92.858 123.674C93.2423 125.966 94.0033 127.641 95.141 128.697C96.2867 129.743 97.7552 130.116 99.5466 129.815C100.481 129.659 101.413 129.403 102.344 129.049L101.605 124.643L97.6037 125.314L96.9788 121.587ZM118.298 113.289C118.895 113.189 119.398 113.149 119.808 113.17L120.168 117.357C119.795 117.321 119.354 117.345 118.844 117.431C117.437 117.667 116.4 118.212 115.731 119.067C115.072 119.92 114.852 120.996 115.07 122.297L116.448 130.517L112.042 131.256L109.334 115.104L112.671 114.545L113.776 117.152L113.993 117.115C114.342 116.126 114.894 115.286 115.65 114.595C116.414 113.892 117.296 113.457 118.298 113.289ZM135.446 127.332L134.225 125.279L134.109 125.298C133.524 126.357 132.868 127.135 132.139 127.634C131.419 128.121 130.428 128.47 129.166 128.682C127.616 128.942 126.318 128.704 125.274 127.968C124.239 127.23 123.585 126.043 123.31 124.405C123.023 122.691 123.408 121.329 124.467 120.32C125.534 119.3 127.268 118.543 129.671 118.051L132.46 117.495L132.341 116.787C132.066 115.15 131.091 114.471 129.415 114.752C128.125 114.969 126.673 115.613 125.061 116.686L123.103 113.954C124.798 112.67 126.778 111.838 129.041 111.458C131.208 111.095 132.949 111.288 134.263 112.038C135.577 112.789 136.395 114.127 136.718 116.053L138.523 126.816L135.446 127.332ZM132.891 120.066L131.196 120.41C129.921 120.663 129.006 121.054 128.451 121.583C127.896 122.112 127.692 122.809 127.837 123.676C128.045 124.919 128.862 125.42 130.288 125.181C131.308 125.01 132.073 124.58 132.581 123.891C133.099 123.2 133.277 122.368 133.113 121.395L132.891 120.066ZM151.992 124.855C150.095 125.173 148.491 124.734 147.182 123.537L146.951 123.576C147.331 124.898 147.539 125.666 147.574 125.878L148.671 132.422L144.265 133.161L140.366 109.901L143.948 109.301L144.921 111.291L145.123 111.257C145.886 109.486 147.278 108.431 149.301 108.091C151.208 107.772 152.824 108.258 154.15 109.551C155.475 110.844 156.358 112.8 156.797 115.42C157.086 117.144 157.082 118.684 156.785 120.041C156.497 121.396 155.942 122.484 155.119 123.306C154.296 124.127 153.254 124.643 151.992 124.855ZM148.476 111.854C147.387 112.036 146.649 112.507 146.262 113.265C145.872 114.013 145.797 115.16 146.036 116.704L146.116 117.181C146.407 118.914 146.87 120.114 147.507 120.779C148.153 121.444 149.034 121.682 150.152 121.495C152.126 121.164 152.84 119.37 152.294 116.115C152.028 114.526 151.583 113.378 150.959 112.67C150.344 111.952 149.516 111.679 148.476 111.854ZM176.706 120.414L172.299 121.153L170.718 111.719C170.327 109.388 169.265 108.368 167.531 108.659C166.298 108.866 165.478 109.434 165.069 110.364C164.661 111.294 164.614 112.698 164.929 114.576L166.203 122.175L161.796 122.914L158.028 100.435L162.434 99.6959L163.202 104.276C163.262 104.632 163.368 105.475 163.522 106.806L163.639 108.123L163.87 108.085C164.588 106.34 166.016 105.289 168.154 104.931C170.051 104.612 171.576 104.882 172.73 105.738C173.884 106.594 174.62 107.976 174.94 109.883L176.706 120.414ZM106.924 167.602L96.3821 169.369L93.3132 151.064L103.855 149.297L104.389 152.477L97.7277 153.594L98.4015 157.613L104.599 156.574L105.132 159.754L98.9347 160.793L99.7261 165.513L106.387 164.397L106.924 167.602ZM114.929 166.517C113.285 166.793 111.884 166.371 110.727 165.252C109.578 164.132 108.814 162.441 108.435 160.179C108.05 157.883 108.226 156.017 108.964 154.581C109.708 153.134 110.919 152.27 112.597 151.989C114.358 151.694 115.817 152.153 116.973 153.367L117.098 153.346C116.731 152.334 116.479 151.42 116.342 150.602L115.59 146.119L119.422 145.477L122.688 164.959L119.758 165.45L118.715 163.759L118.552 163.786C117.915 165.309 116.707 166.219 114.929 166.517ZM115.759 163.25C116.736 163.086 117.402 162.683 117.757 162.04C118.121 161.395 118.21 160.389 118.024 159.022L117.954 158.608C117.703 157.106 117.288 156.068 116.712 155.496C116.143 154.922 115.338 154.722 114.294 154.897C113.443 155.04 112.84 155.514 112.486 156.32C112.139 157.116 112.081 158.203 112.312 159.58C112.543 160.958 112.954 161.953 113.546 162.566C114.137 163.17 114.874 163.399 115.759 163.25ZM123.566 146.7C123.357 145.457 123.946 144.719 125.331 144.486C126.717 144.254 127.514 144.76 127.722 146.003C127.822 146.596 127.724 147.089 127.43 147.481C127.142 147.864 126.652 148.114 125.959 148.23C124.573 148.462 123.776 147.952 123.566 146.7ZM130.501 163.649L126.682 164.29L124.335 150.292L128.154 149.651L130.501 163.649ZM139.949 159.195C140.617 159.083 141.393 158.802 142.279 158.353L142.756 161.196C141.876 161.781 140.743 162.19 139.357 162.422C137.83 162.678 136.651 162.481 135.821 161.83C134.998 161.17 134.457 160.068 134.198 158.524L133.067 151.775L131.239 152.082L130.968 150.467L132.857 148.837L133.464 145.697L135.905 145.288L136.405 148.268L140.324 147.611L140.805 150.478L136.886 151.135L138.017 157.884C138.108 158.426 138.325 158.802 138.669 159.01C139.021 159.217 139.448 159.279 139.949 159.195ZM147.528 153.573C147.76 154.959 148.161 155.968 148.731 156.602C149.309 157.235 150.111 157.465 151.138 157.293C152.156 157.122 152.828 156.649 153.153 155.874C153.485 155.089 153.534 153.999 153.3 152.605C153.068 151.22 152.668 150.218 152.101 149.601C151.534 148.984 150.737 148.761 149.711 148.933C148.692 149.104 148.016 149.574 147.681 150.342C147.345 151.102 147.294 152.179 147.528 153.573ZM157.206 151.95C157.588 154.229 157.286 156.112 156.3 157.599C155.313 159.086 153.747 160.009 151.602 160.369C150.258 160.594 149.024 160.501 147.899 160.089C146.773 159.668 145.843 158.953 145.107 157.944C144.371 156.934 143.88 155.695 143.634 154.226C143.251 151.939 143.549 150.061 144.53 148.592C145.511 147.123 147.083 146.207 149.244 145.845C150.588 145.62 151.823 145.713 152.947 146.125C154.072 146.537 155.001 147.244 155.736 148.245C156.47 149.246 156.96 150.481 157.206 151.95ZM166.961 142.875C167.479 142.788 167.915 142.753 168.27 142.771L168.582 146.4C168.259 146.369 167.876 146.39 167.434 146.464C166.215 146.668 165.316 147.141 164.737 147.882C164.166 148.621 163.975 149.554 164.163 150.681L165.358 157.805L161.539 158.445L159.192 144.447L162.085 143.963L163.043 146.222L163.23 146.191C163.533 145.333 164.012 144.605 164.666 144.006C165.328 143.397 166.093 143.02 166.961 142.875ZM182.252 150.699C182.493 152.135 182.176 153.312 181.3 154.231C180.433 155.149 179.006 155.775 177.019 156.108C176.001 156.278 175.121 156.353 174.379 156.331C173.639 156.318 172.933 156.231 172.262 156.068L171.733 152.913C172.499 153.128 173.343 153.274 174.266 153.351C175.196 153.427 176 153.408 176.676 153.295C178.062 153.062 178.687 152.545 178.553 151.744C178.503 151.444 178.37 151.217 178.156 151.064C177.94 150.903 177.587 150.743 177.097 150.585C176.606 150.419 175.958 150.24 175.154 150.049C174.001 149.778 173.138 149.494 172.565 149.195C172 148.895 171.559 148.519 171.242 148.065C170.933 147.602 170.718 147.008 170.596 146.282C170.387 145.038 170.706 143.997 171.553 143.16C172.406 142.314 173.718 141.742 175.488 141.445C177.174 141.162 178.875 141.255 180.593 141.722L179.903 144.67C179.151 144.487 178.455 144.35 177.813 144.261C177.172 144.171 176.534 144.179 175.899 144.285C174.772 144.474 174.26 144.873 174.362 145.483C174.42 145.825 174.649 146.091 175.05 146.281C175.459 146.47 176.318 146.708 177.628 146.995C178.796 147.254 179.666 147.533 180.24 147.831C180.813 148.13 181.263 148.509 181.589 148.97C181.915 149.43 182.136 150.006 182.252 150.699Z" fill="url(#paint2_linear)"/>
</g>
<defs>
<filter id="filter0_d" x="84.012" y="99.6959" width="102.318" height="77.6736" filterUnits="userSpaceOnUse" color-interpolation-filters="sRGB">
<feFlood flood-opacity="0" result="BackgroundImageFix"/>
<feColorMatrix in="SourceAlpha" type="matrix" values="0 0 0 0 0 0 0 0 0 0 0 0 0 0 0 0 0 0 127 0"/>
<feOffset dy="4"/>
<feGaussianBlur stdDeviation="2"/>
<feColorMatrix type="matrix" values="0 0 0 0 0 0 0 0 0 0 0 0 0 0 0 0 0 0 0.25 0"/>
<feBlend mode="normal" in2="BackgroundImageFix" result="effect1_dropShadow"/>
<feBlend mode="normal" in="SourceGraphic" in2="effect1_dropShadow" result="shape"/>
</filter>
<linearGradient id="paint0_linear" x1="48.6252" y1="84.2628" x2="221.683" y2="183.362" gradientUnits="userSpaceOnUse">
<stop stop-color="#C84E89"/>
<stop offset="1" stop-color="#F15F79"/>
</linearGradient>
<linearGradient id="paint1_linear" x1="42.5862" y1="113.093" x2="226.524" y2="154.58" gradientUnits="userSpaceOnUse">
<stop stop-color="#C84E89"/>
<stop offset="1" stop-color="#F15F79"/>
</linearGradient>
<linearGradient id="paint2_linear" x1="89.2006" y1="140.662" x2="179.934" y2="125.45" gradientUnits="userSpaceOnUse">
<stop stop-color="#ECE9E6"/>
<stop offset="1" stop-color="white"/>
</linearGradient>
</defs>
</svg>
