<svg width="239" height="187" viewBox="0 0 239 187" fill="none" xmlns="http://www.w3.org/2000/svg">
<path fill-rule="evenodd" clip-rule="evenodd" d="M141.219 147.581C170.98 134.095 181.648 109.562 192.63 88.5033C202.297 69.9671 211.714 49.5188 197.829 39.0292C184.666 29.0856 155.032 37.7552 130.041 41.2216C103.737 44.8703 75.7957 43.3294 53.2154 59.0884C29.0877 75.9274 22.3724 97.8644 23.6866 115.448C24.9449 132.285 39.3571 143.025 59.9086 148.644C83.0551 154.972 111.096 161.231 141.219 147.581Z" fill="url(#paint0_linear)" fill-opacity="0.3"/>
<path fill-rule="evenodd" clip-rule="evenodd" d="M128.757 139.659C161.806 131 178.121 111.781 193.964 95.4302C207.91 81.0378 222.038 65.0614 210.426 55.3737C199.418 46.1903 167.59 50.9198 141.621 51.7631C114.287 52.6508 86.4812 49.1628 60.1529 60.2539C32.0203 72.105 20.2773 89.5146 17.6129 104.003C15.0615 117.876 27.1479 127.811 46.5823 134.046C68.4708 141.068 95.3076 148.423 128.757 139.659Z" fill="url(#paint1_linear)"/>
<path d="M86.3481 102.743C87.245 106.172 87.084 109.03 85.8652 111.317C84.6464 113.605 82.4497 115.163 79.2752 115.993C76.1007 116.824 73.4223 116.54 71.2399 115.142C69.0574 113.745 67.5153 111.322 66.6135 107.873C65.7117 104.425 65.8739 101.571 67.1001 99.3122C68.3334 97.0416 70.5419 95.4899 73.7259 94.6573C76.9098 93.8247 79.5823 94.1049 81.7434 95.498C83.9139 96.8886 85.4488 99.3035 86.3481 102.743ZM71.2268 106.697C71.8321 109.012 72.7273 110.64 73.9123 111.582C75.0973 112.523 76.5638 112.766 78.3116 112.309C81.8168 111.392 82.9604 108.605 81.7423 103.947C80.5217 99.2797 78.1683 97.4019 74.6821 98.3136C72.9342 98.7707 71.7706 99.7059 71.1914 101.119C70.6096 102.523 70.6214 104.382 71.2268 106.697ZM98.8671 107.191C99.623 106.993 100.487 106.59 101.458 105.983L102.3 109.2C101.349 109.963 100.089 110.55 98.5206 110.96C96.7916 111.413 95.4167 111.308 94.3958 110.646C93.3818 109.973 92.6463 108.762 92.1892 107.014L90.1916 99.3754L88.1225 99.9165L87.6444 98.0883L89.6473 96.0202L90.0198 92.3495L92.7833 91.6268L93.6653 94.9997L98.1011 93.8397L98.9498 97.085L94.514 98.245L96.5116 105.884C96.6722 106.498 96.9609 106.907 97.3776 107.111C97.8038 107.312 98.3003 107.339 98.8671 107.191ZM120.257 104.973L115.935 106.104L113.514 96.8495C112.917 94.5631 111.767 93.6422 110.067 94.087C108.857 94.4032 108.091 95.0428 107.767 96.0056C107.444 96.9684 107.523 98.3709 108.005 100.213L109.954 107.668L105.632 108.798L99.8649 86.7466L104.187 85.6163L105.362 90.1087C105.454 90.4583 105.635 91.2889 105.908 92.6006L106.142 93.902L106.369 93.8427C106.927 92.0412 108.255 90.8662 110.353 90.3177C112.214 89.831 113.757 89.9624 114.983 90.7118C116.209 91.4613 117.066 92.7714 117.555 94.642L120.257 104.973ZM127.851 89.0272C126.935 89.2669 126.294 89.7476 125.927 90.4692C125.558 91.1814 125.476 92.0812 125.679 93.1686L131.745 91.5824C131.447 90.5197 130.953 89.7706 130.264 89.3351C129.572 88.8902 128.768 88.7876 127.851 89.0272ZM131.952 102.218C129.401 102.885 127.224 102.702 125.419 101.67C123.615 100.638 122.376 98.8322 121.701 96.2529C121.007 93.5981 121.132 91.3749 122.077 89.5835C123.028 87.7801 124.676 86.5721 127.019 85.9594C129.258 85.3738 131.168 85.5557 132.749 86.505C134.329 87.4543 135.414 89.0533 136.002 91.3019L136.55 93.3993L126.332 96.0714C126.701 97.2873 127.315 98.1511 128.176 98.6629C129.036 99.1748 130.081 99.2701 131.309 98.9489C132.263 98.6993 133.14 98.3642 133.938 97.9434C134.737 97.5226 135.542 96.9739 136.354 96.2971L137.229 99.6417C136.572 100.217 135.837 100.707 135.024 101.112C134.214 101.525 133.19 101.894 131.952 102.218ZM146.477 80.8709C147.063 80.7177 147.56 80.633 147.97 80.6167L148.704 84.7551C148.33 84.752 147.892 84.816 147.391 84.9469C146.012 85.3076 145.028 85.9436 144.438 86.8548C143.858 87.7635 143.735 88.8556 144.069 90.1311L146.177 98.1949L141.855 99.3252L137.711 83.4811L140.985 82.625L142.32 85.1225L142.532 85.0669C142.791 84.0503 143.266 83.1641 143.957 82.4081C144.654 81.6402 145.494 81.1278 146.477 80.8709ZM164.858 88.2827C165.283 89.9078 165.04 91.2937 164.129 92.4405C163.227 93.5848 161.651 94.451 159.403 95.039C158.25 95.3405 157.247 95.5171 156.392 95.569C155.54 95.6303 154.72 95.6024 153.933 95.4854L152.999 91.9141C153.901 92.082 154.886 92.1626 155.954 92.1557C157.031 92.1465 157.953 92.0418 158.718 91.8416C160.287 91.4315 160.952 90.7729 160.715 89.8659C160.626 89.5258 160.45 89.279 160.188 89.1255C159.923 88.9625 159.501 88.8155 158.922 88.6844C158.34 88.5438 157.577 88.4052 156.633 88.2686C155.281 88.0771 154.26 87.8394 153.57 87.5555C152.889 87.2692 152.344 86.8819 151.934 86.3936C151.53 85.8935 151.221 85.2324 151.006 84.4104C150.638 83.0027 150.897 81.7741 151.783 80.7247C152.677 79.6634 154.125 78.8708 156.128 78.347C158.036 77.8479 160.002 77.7781 162.024 78.1376L161.535 81.5964C160.653 81.4638 159.838 81.3791 159.091 81.3421C158.345 81.3052 157.613 81.3806 156.895 81.5684C155.619 81.9019 155.072 82.4135 155.252 83.1032C155.353 83.4906 155.644 83.7729 156.124 83.9501C156.614 84.1248 157.627 84.3093 159.161 84.5035C160.53 84.6806 161.559 84.9111 162.249 85.195C162.939 85.4788 163.495 85.8684 163.917 86.3636C164.34 86.8588 164.653 87.4985 164.858 88.2827Z" fill="url(#paint2_linear)"/>
<defs>
<linearGradient id="paint0_linear" x1="29.286" y1="132.407" x2="207.092" y2="54.4755" gradientUnits="userSpaceOnUse">
<stop stop-color="#000C40"/>
<stop offset="1" stop-color="#607D8B"/>
</linearGradient>
<linearGradient id="paint1_linear" x1="19.4082" y1="118.322" x2="216.256" y2="68.7476" gradientUnits="userSpaceOnUse">
<stop stop-color="#000C40"/>
<stop offset="1" stop-color="#607D8B"/>
</linearGradient>
<linearGradient id="paint2_linear" x1="64.615" y1="107.121" x2="164.264" y2="81.0614" gradientUnits="userSpaceOnUse">
<stop stop-color="#FDFC47"/>
<stop offset="1" stop-color="#24FE41"/>
</linearGradient>
</defs>
</svg>
