<svg width="60" height="60" viewBox="0 0 60 60" fill="none" xmlns="http://www.w3.org/2000/svg">
<g clip-path="url(#clip0)">
<g filter="url(#filter0_d)">
<circle cx="30" cy="30" r="25" fill="url(#paint0_linear)"/>
</g>
<path d="M30 26.7447V23.3326C30.0004 23.0691 30.0813 22.8116 30.2324 22.5926C30.3835 22.3735 30.5981 22.2028 30.8491 22.1018C31.1001 22.0009 31.3763 21.9742 31.6428 22.0253C31.9094 22.0763 32.1545 22.2027 32.3471 22.3885L41 30.6662L32.3471 38.9426C32.2197 39.0669 32.0683 39.1655 31.9014 39.2328C31.7346 39.3 31.5557 39.3347 31.375 39.3347C31.1943 39.3347 31.0154 39.3 30.8486 39.2328C30.6817 39.1655 30.5303 39.0669 30.4029 38.9426C30.2751 38.8189 30.1738 38.6719 30.1047 38.5102C30.0355 38.3484 30 38.175 30 37.9999V34.6811C26.2188 34.7718 22.0869 35.4358 19 40V38.6666C19 32.489 23.8125 27.4088 30 26.7447Z" fill="url(#paint1_linear)"/>
</g>
<defs>
<filter id="filter0_d" x="1" y="5" width="58" height="58" filterUnits="userSpaceOnUse" color-interpolation-filters="sRGB">
<feFlood flood-opacity="0" result="BackgroundImageFix"/>
<feColorMatrix in="SourceAlpha" type="matrix" values="0 0 0 0 0 0 0 0 0 0 0 0 0 0 0 0 0 0 127 0"/>
<feOffset dy="4"/>
<feGaussianBlur stdDeviation="2"/>
<feColorMatrix type="matrix" values="0 0 0 0 0 0 0 0 0 0 0 0 0 0 0 0 0 0 0.25 0"/>
<feBlend mode="normal" in2="BackgroundImageFix" result="effect1_dropShadow"/>
<feBlend mode="normal" in="SourceGraphic" in2="effect1_dropShadow" result="shape"/>
</filter>
<linearGradient id="paint0_linear" x1="5" y1="30" x2="55" y2="30" gradientUnits="userSpaceOnUse">
<stop stop-color="#ECE9E6"/>
<stop offset="1" stop-color="white"/>
</linearGradient>
<linearGradient id="paint1_linear" x1="41" y1="22" x2="17.161" y2="36.4196" gradientUnits="userSpaceOnUse">
<stop stop-color="#19E7D7"/>
<stop offset="1" stop-color="#306CF5"/>
</linearGradient>
<clipPath id="clip0">
<rect width="60" height="60" fill="white" transform="translate(60 60) rotate(-180)"/>
</clipPath>
</defs>
</svg>
