<svg width="18" height="19" viewBox="0 0 18 19" fill="none" xmlns="http://www.w3.org/2000/svg">
<path d="M17.7926 15.4373C17.7926 15.8235 17.6544 16.1517 17.3781 16.422L15.3649 18.3916C15.0886 18.6619 14.7531 18.797 14.3583 18.797C13.9636 18.797 13.6281 18.6619 13.3518 18.3916L8.99979 14.1339L4.64782 18.3916C4.37151 18.6619 4.03598 18.797 3.64124 18.797C3.24651 18.797 2.91098 18.6619 2.63466 18.3916L0.621505 16.422C0.345189 16.1517 0.207031 15.8235 0.207031 15.4373C0.207031 15.0511 0.345189 14.7229 0.621505 14.4525L4.97348 10.1949L0.621505 5.93729C0.345189 5.66696 0.207031 5.33871 0.207031 4.95253C0.207031 4.56635 0.345189 4.2381 0.621505 3.96777L2.63466 1.99826C2.91098 1.72794 3.24651 1.59277 3.64124 1.59277C4.03598 1.59277 4.37151 1.72794 4.64782 1.99826L8.99979 6.25588L13.3518 1.99826C13.6281 1.72794 13.9636 1.59277 14.3583 1.59277C14.7531 1.59277 15.0886 1.72794 15.3649 1.99826L17.3781 3.96777C17.6544 4.2381 17.7926 4.56635 17.7926 4.95253C17.7926 5.33871 17.6544 5.66696 17.3781 5.93729L13.0261 10.1949L17.3781 14.4525C17.6544 14.7229 17.7926 15.0511 17.7926 15.4373Z" fill="url(#paint0_linear)"/>
<defs>
<linearGradient id="paint0_linear" x1="8.99979" y1="1.59277" x2="8.99979" y2="18.797" gradientUnits="userSpaceOnUse">
<stop stop-color="#75889B"/>
<stop offset="1" stop-color="#607892"/>
</linearGradient>
</defs>
</svg>
