<svg width="233" height="245" viewBox="0 0 233 245" fill="none" xmlns="http://www.w3.org/2000/svg">
<path fill-rule="evenodd" clip-rule="evenodd" d="M152.986 31.8539C178.619 41.9406 201.999 60.2083 208.957 89.3669C215.715 117.693 203.668 148.111 186.649 172.944C170.982 195.806 148.127 210.12 123.159 214.563C97.307 219.163 70.6402 215.573 52.5386 196.808C33.5197 177.093 26.1222 147.42 29.4576 117.431C33.0092 85.4974 45.1133 52.5213 70.5456 34.9023C95.9156 17.3266 126.494 21.4295 152.986 31.8539Z" fill="url(#paint0_linear)" fill-opacity="0.3"/>
<path fill-rule="evenodd" clip-rule="evenodd" d="M93.3449 35.4607C119.132 27.3049 148.078 26.2932 170.886 42.807C193.042 58.8495 201.958 87.6032 203.703 115.366C205.309 140.926 196.263 164.718 179.682 182.775C162.514 201.471 139.817 214.849 114.641 212.357C88.19 209.739 64.7356 193.123 49.3623 169.875C32.9921 145.12 22.5883 114.519 31.6436 86.8451C40.6766 59.2393 66.6941 43.8895 93.3449 35.4607Z" fill="url(#paint1_linear)"/>
<path d="M85.8733 94.5203C84.1643 94.5302 82.8448 95.1824 81.9148 96.4769C80.9847 97.7616 80.5264 99.5514 80.5397 101.846C80.5673 106.622 82.3731 108.999 85.9571 108.978C87.461 108.969 89.28 108.583 91.4143 107.818L91.4364 111.627C89.6828 112.37 87.7221 112.747 85.5542 112.76C82.439 112.778 80.0508 111.849 78.3895 109.974C76.7281 108.089 75.8872 105.379 75.8667 101.844C75.8538 99.6175 76.2478 97.6669 77.0486 95.9924C77.8494 94.308 79.0041 93.0171 80.5126 92.1197C82.0308 91.2124 83.8104 90.7529 85.8514 90.741C87.9314 90.729 90.0241 91.2198 92.1295 92.2135L90.6861 95.9133C89.8831 95.5371 89.0756 95.2097 88.2634 94.9312C87.4512 94.6527 86.6545 94.5158 85.8733 94.5203ZM99.1716 104.17C99.181 105.791 99.4518 107.015 99.9839 107.842C100.526 108.669 101.397 109.079 102.599 109.072C103.79 109.065 104.642 108.65 105.155 107.827C105.677 106.994 105.934 105.762 105.924 104.131C105.915 102.51 105.644 101.295 105.112 100.488C104.58 99.6805 103.714 99.2802 102.513 99.2872C101.321 99.2941 100.464 99.7043 99.9415 100.518C99.4188 101.322 99.1622 102.539 99.1716 104.17ZM110.495 104.104C110.51 106.77 109.819 108.859 108.422 110.371C107.024 111.883 105.07 112.647 102.561 112.661C100.988 112.67 99.5998 112.337 98.3947 111.66C97.1895 110.974 96.261 109.988 95.609 108.702C94.957 107.417 94.626 105.915 94.616 104.196C94.6005 101.521 95.2867 99.4365 96.6745 97.9441C98.0624 96.4516 100.021 95.6981 102.55 95.6834C104.122 95.6743 105.511 96.008 106.716 96.6847C107.921 97.3613 108.85 98.3374 109.502 99.6129C110.154 100.888 110.485 102.386 110.495 104.104ZM119.421 112.563C117.497 112.575 115.979 111.836 114.867 110.349C113.764 108.861 113.206 106.794 113.19 104.147C113.175 101.462 113.719 99.3687 114.824 97.8681C115.938 96.3578 117.477 95.5969 119.44 95.5855C121.5 95.5736 123.077 96.3652 124.17 97.9605L124.317 97.9596C124.085 96.7402 123.966 95.652 123.961 94.695L123.93 89.451L128.413 89.425L128.545 112.218L125.117 112.237L124.241 110.118L124.05 110.12C123.044 111.737 121.501 112.551 119.421 112.563ZM120.968 108.995C122.11 108.988 122.943 108.651 123.467 107.984C124 107.317 124.286 106.187 124.326 104.595L124.323 104.112C124.313 102.354 124.032 101.096 123.481 100.338C122.939 99.5789 122.058 99.2032 120.838 99.2103C119.841 99.216 119.068 99.6453 118.516 100.498C117.974 101.341 117.708 102.568 117.717 104.18C117.726 105.791 118.012 107 118.573 107.808C119.134 108.605 119.932 109.001 120.968 108.995ZM139.922 98.6455C138.974 98.651 138.234 98.9581 137.7 99.5666C137.167 100.165 136.864 101.017 136.792 102.121L143.062 102.084C143.036 100.981 142.743 100.133 142.183 99.5406C141.622 98.9384 140.869 98.64 139.922 98.6455ZM140.631 112.44C137.995 112.456 135.93 111.74 134.437 110.294C132.944 108.847 132.19 106.791 132.175 104.125C132.159 101.381 132.83 99.2579 134.189 97.7559C135.557 96.244 137.452 95.4811 139.874 95.467C142.188 95.4536 143.994 96.1024 145.29 97.4132C146.587 98.7241 147.242 100.542 147.256 102.866L147.268 105.034L136.707 105.095C136.763 106.364 137.145 107.353 137.852 108.062C138.559 108.771 139.548 109.122 140.817 109.114C141.803 109.108 142.736 109 143.613 108.79C144.491 108.58 145.407 108.248 146.361 107.793L146.381 111.25C145.602 111.645 144.769 111.938 143.882 112.129C142.994 112.329 141.911 112.433 140.631 112.44ZM87.4135 147.457L76.7243 147.519L76.6167 128.958L87.306 128.896L87.3246 132.121L80.5708 132.16L80.5945 136.235L86.8785 136.199L86.8972 139.423L80.6132 139.46L80.6409 144.246L87.3947 144.207L87.4135 147.457ZM95.4891 147.664C93.8218 147.673 92.5062 147.033 91.5424 145.744C90.5869 144.455 90.1026 142.663 90.0893 140.37C90.0758 138.042 90.5477 136.228 91.505 134.928C92.4708 133.619 93.8042 132.959 95.5054 132.949C97.2911 132.939 98.6578 133.625 99.6053 135.008L99.7322 135.007C99.5314 133.95 99.4286 133.007 99.4238 132.178L99.3975 127.633L103.282 127.61L103.397 147.364L100.426 147.381L99.6663 145.545L99.5013 145.546C98.6292 146.947 97.2918 147.653 95.4891 147.664ZM96.8296 144.571C97.8198 144.565 98.5418 144.273 98.9954 143.695C99.4576 143.117 99.7058 142.138 99.7401 140.758L99.7377 140.339C99.7289 138.816 99.4856 137.725 99.0078 137.068C98.5385 136.41 97.7749 136.085 96.717 136.091C95.8537 136.096 95.183 136.468 94.7048 137.207C94.2351 137.938 94.0043 139.001 94.0124 140.398C94.0205 141.794 94.2678 142.842 94.7542 143.542C95.2407 144.233 95.9325 144.576 96.8296 144.571ZM107.178 129.479C107.171 128.218 107.869 127.584 109.274 127.576C110.679 127.567 111.385 128.194 111.393 129.455C111.396 130.056 111.221 130.527 110.868 130.867C110.522 131.199 109.999 131.367 109.296 131.371C107.891 131.38 107.185 130.749 107.178 129.479ZM111.318 147.318L107.446 147.34L107.364 133.147L111.236 133.125L111.318 147.318ZM121.357 144.429C122.034 144.425 122.845 144.272 123.791 143.97L123.808 146.852C122.846 147.289 121.662 147.512 120.257 147.52C118.708 147.529 117.576 147.146 116.861 146.372C116.154 145.589 115.796 144.414 115.787 142.849L115.747 136.006L113.894 136.017L113.884 134.379L116.009 133.072L117.109 130.069L119.585 130.055L119.602 133.076L123.576 133.053L123.593 135.961L119.619 135.984L119.659 142.826C119.662 143.376 119.817 143.782 120.123 144.042C120.437 144.303 120.849 144.432 121.357 144.429ZM129.736 140.089C129.744 141.494 129.979 142.555 130.44 143.272C130.909 143.988 131.665 144.344 132.706 144.338C133.738 144.332 134.477 143.972 134.921 143.258C135.374 142.536 135.596 141.469 135.588 140.055C135.58 138.65 135.345 137.598 134.884 136.898C134.423 136.198 133.672 135.851 132.631 135.857C131.599 135.863 130.856 136.219 130.403 136.924C129.95 137.621 129.728 138.676 129.736 140.089ZM139.549 140.032C139.563 142.343 138.964 144.153 137.752 145.464C136.541 146.774 134.848 147.436 132.673 147.448C131.31 147.456 130.107 147.167 129.062 146.58C128.018 145.986 127.213 145.131 126.648 144.017C126.083 142.903 125.796 141.602 125.788 140.112C125.774 137.793 126.369 135.987 127.572 134.693C128.774 133.4 130.472 132.747 132.664 132.734C134.027 132.726 135.23 133.015 136.274 133.602C137.319 134.188 138.124 135.034 138.689 136.14C139.254 137.245 139.54 138.543 139.549 140.032ZM150.627 132.63C151.152 132.627 151.588 132.662 151.936 132.737L151.665 136.369C151.351 136.286 150.97 136.246 150.522 136.249C149.286 136.256 148.323 136.579 147.633 137.218C146.951 137.856 146.613 138.747 146.62 139.89L146.662 147.113L142.79 147.136L142.707 132.942L145.64 132.925L146.225 135.309L146.415 135.308C146.851 134.51 147.44 133.867 148.182 133.38C148.932 132.885 149.747 132.635 150.627 132.63ZM164.474 142.795C164.482 144.251 163.981 145.362 162.97 146.13C161.967 146.897 160.458 147.287 158.444 147.299C157.412 147.305 156.531 147.238 155.802 147.098C155.074 146.967 154.391 146.768 153.755 146.501L153.736 143.302C154.458 143.636 155.268 143.915 156.166 144.138C157.073 144.361 157.869 144.471 158.555 144.467C159.96 144.459 160.66 144.049 160.655 143.236C160.653 142.931 160.559 142.686 160.371 142.501C160.184 142.308 159.861 142.094 159.403 141.86C158.944 141.617 158.333 141.337 157.57 141.02C156.475 140.569 155.669 140.15 155.15 139.764C154.64 139.378 154.265 138.935 154.025 138.437C153.794 137.931 153.676 137.31 153.672 136.573C153.665 135.312 154.146 134.336 155.115 133.645C156.093 132.945 157.479 132.59 159.273 132.58C160.982 132.57 162.648 132.933 164.268 133.668L163.117 136.468C162.404 136.167 161.738 135.921 161.119 135.73C160.5 135.539 159.869 135.446 159.226 135.449C158.083 135.456 157.514 135.768 157.518 136.386C157.52 136.733 157.703 137.032 158.069 137.284C158.443 137.536 159.253 137.908 160.5 138.4C161.611 138.842 162.426 139.256 162.945 139.643C163.463 140.029 163.847 140.475 164.095 140.982C164.343 141.488 164.47 142.093 164.474 142.795Z" fill="url(#paint2_linear)"/>
<defs>
<linearGradient id="paint0_linear" x1="33.52" y1="92.2894" x2="199.48" y2="152.853" gradientUnits="userSpaceOnUse">
<stop stop-color="#091E3A"/>
<stop offset="0.5" stop-color="#2F80ED"/>
<stop offset="1" stop-color="#2D9EE0"/>
</linearGradient>
<linearGradient id="paint1_linear" x1="37.4495" y1="149.629" x2="201.569" y2="93.4649" gradientUnits="userSpaceOnUse">
<stop stop-color="#496892"/>
<stop offset="0.5" stop-color="#3E88EB"/>
<stop offset="1" stop-color="#2D9EE0"/>
</linearGradient>
<linearGradient id="paint2_linear" x1="74.2174" y1="118.033" x2="166.216" y2="117.499" gradientUnits="userSpaceOnUse">
<stop stop-color="#B3FFAB"/>
<stop offset="1" stop-color="#12FFF7"/>
</linearGradient>
</defs>
</svg>
