<svg width="235" height="192" viewBox="0 0 235 192" fill="none" xmlns="http://www.w3.org/2000/svg">
<path fill-rule="evenodd" clip-rule="evenodd" d="M142.391 34.8212C176.668 48.395 207.692 69.5676 220.352 93.1773C231.916 114.744 214.333 129.562 201.505 145.064C187.895 161.51 178.909 183.335 146.411 182.529C111.792 181.671 72.6909 163.142 46.1671 141.213C22.2367 121.428 22.4046 99.6643 20.8904 78.7547C19.2705 56.3859 11.9592 29.9603 37.443 20.7455C64.3876 11.0026 106.28 20.5212 142.391 34.8212Z" fill="url(#paint0_linear)" fill-opacity="0.3"/>
<path fill-rule="evenodd" clip-rule="evenodd" d="M119.394 31.8939C155.761 34.814 191.359 45.6191 210.407 63.7769C227.805 80.363 215.728 98.8689 208.333 116.679C200.487 135.574 198.618 158.121 167.781 166.432C134.933 175.285 92.5289 169.157 60.9383 156.404C32.4365 144.898 26.0226 124.863 18.2831 106.081C10.0036 85.9886 -4.85873 63.7551 16.3486 48.1948C38.7716 31.7426 81.0823 28.8176 119.394 31.8939Z" fill="url(#paint1_linear)"/>
<path d="M67.4639 77.0869C67.4639 80.6123 66.458 83.3125 64.4463 85.1875C62.4443 87.0625 59.5488 88 55.7598 88H49.6953V66.584H56.4189C59.915 66.584 62.6299 67.5068 64.5635 69.3525C66.4971 71.1982 67.4639 73.7764 67.4639 77.0869ZM62.7471 77.2041C62.7471 72.6045 60.7158 70.3047 56.6533 70.3047H54.2363V84.25H56.1846C60.5596 84.25 62.7471 81.9014 62.7471 77.2041ZM78.333 74.4941C77.3857 74.4941 76.6436 74.7969 76.1064 75.4023C75.5693 75.998 75.2617 76.8477 75.1836 77.9512H81.4531C81.4336 76.8477 81.1455 75.998 80.5889 75.4023C80.0322 74.7969 79.2803 74.4941 78.333 74.4941ZM78.9629 88.293C76.3262 88.293 74.2656 87.5654 72.7812 86.1104C71.2969 84.6553 70.5547 82.5947 70.5547 79.9287C70.5547 77.1846 71.2383 75.0654 72.6055 73.5713C73.9824 72.0674 75.8818 71.3154 78.3037 71.3154C80.6182 71.3154 82.4199 71.9746 83.709 73.293C84.998 74.6113 85.6426 76.4326 85.6426 78.7568V80.9248H75.0811C75.1299 82.1943 75.5059 83.1855 76.209 83.8984C76.9121 84.6113 77.8984 84.9678 79.168 84.9678C80.1543 84.9678 81.0869 84.8652 81.9658 84.6602C82.8447 84.4551 83.7627 84.1279 84.7197 83.6787V87.1357C83.9385 87.5264 83.1035 87.8145 82.2148 88C81.3262 88.1953 80.2422 88.293 78.9629 88.293ZM100.701 83.1367C100.701 84.8164 100.115 86.0957 98.9434 86.9746C97.7812 87.8535 96.0381 88.293 93.7139 88.293C92.5225 88.293 91.5068 88.21 90.667 88.0439C89.8271 87.8877 89.041 87.6533 88.3086 87.3408V83.6494C89.1387 84.04 90.0713 84.3672 91.1064 84.6309C92.1514 84.8945 93.0693 85.0264 93.8604 85.0264C95.4814 85.0264 96.292 84.5576 96.292 83.6201C96.292 83.2686 96.1846 82.9854 95.9697 82.7705C95.7549 82.5459 95.3838 82.2969 94.8564 82.0234C94.3291 81.7402 93.626 81.4131 92.7471 81.042C91.4873 80.5146 90.5596 80.0264 89.9639 79.5771C89.3779 79.1279 88.9482 78.6152 88.6748 78.0391C88.4111 77.4531 88.2793 76.7354 88.2793 75.8857C88.2793 74.4307 88.8408 73.3076 89.9639 72.5166C91.0967 71.7158 92.6982 71.3154 94.7686 71.3154C96.7412 71.3154 98.6602 71.7451 100.525 72.6045L99.1777 75.8271C98.3574 75.4756 97.5908 75.1875 96.8779 74.9629C96.165 74.7383 95.4375 74.626 94.6953 74.626C93.377 74.626 92.7178 74.9824 92.7178 75.6953C92.7178 76.0957 92.9277 76.4424 93.3477 76.7354C93.7773 77.0283 94.71 77.4629 96.1455 78.0391C97.4248 78.5566 98.3623 79.04 98.958 79.4893C99.5537 79.9385 99.9932 80.4561 100.276 81.042C100.56 81.6279 100.701 82.3262 100.701 83.1367ZM103.997 67.3896C103.997 65.9346 104.808 65.207 106.429 65.207C108.05 65.207 108.86 65.9346 108.86 67.3896C108.86 68.083 108.655 68.625 108.245 69.0156C107.845 69.3965 107.239 69.5869 106.429 69.5869C104.808 69.5869 103.997 68.8545 103.997 67.3896ZM108.655 88H104.188V71.623H108.655V88ZM120.14 84.792C121.341 84.792 122.2 84.4502 122.718 83.7666C123.235 83.0732 123.494 81.9551 123.494 80.4121V79.8701C123.494 78.1221 123.221 76.8672 122.674 76.1055C122.137 75.334 121.268 74.9482 120.066 74.9482C117.967 74.9482 116.917 76.5986 116.917 79.8994C116.917 81.54 117.176 82.7656 117.693 83.5762C118.221 84.3867 119.036 84.792 120.14 84.792ZM127.669 88.0293C127.669 90.3828 126.98 92.165 125.604 93.376C124.236 94.5967 122.195 95.207 119.48 95.207C117.088 95.207 115.047 94.8848 113.357 94.2402V90.666C115.34 91.5059 117.469 91.9258 119.744 91.9258C122.039 91.9258 123.187 90.6855 123.187 88.2051V87.8828L123.318 85.876H123.187C122.142 87.4873 120.594 88.293 118.543 88.293C116.58 88.293 115.057 87.5361 113.973 86.0225C112.898 84.5088 112.361 82.4482 112.361 79.8408C112.361 77.1553 112.918 75.0654 114.031 73.5713C115.154 72.0674 116.697 71.3154 118.66 71.3154C120.672 71.3154 122.254 72.1162 123.406 73.7178H123.523L123.89 71.623H127.669V88.0293ZM147.459 88H142.991V78.4346C142.991 77.2529 142.781 76.3691 142.361 75.7832C141.941 75.1875 141.272 74.8896 140.354 74.8896C139.104 74.8896 138.201 75.3096 137.645 76.1494C137.088 76.9795 136.81 78.3613 136.81 80.2949V88H132.342V71.623H135.755L136.355 73.7178H136.604C137.103 72.9268 137.786 72.3311 138.655 71.9307C139.534 71.5205 140.53 71.3154 141.644 71.3154C143.548 71.3154 144.993 71.833 145.979 72.8682C146.966 73.8936 147.459 75.3779 147.459 77.3213V88ZM67.4141 123H62.9326L60.4189 113.25C60.3258 112.903 60.165 112.188 59.9365 111.104C59.7165 110.013 59.5895 109.281 59.5557 108.908C59.5049 109.365 59.3779 110.102 59.1748 111.117C58.9717 112.124 58.8151 112.844 58.7051 113.275L56.2041 123H51.7354L47 104.439H50.8721L53.2461 114.57C53.6608 116.441 53.9613 118.062 54.1475 119.433C54.1982 118.95 54.3125 118.205 54.4902 117.198C54.6764 116.183 54.8499 115.396 55.0107 114.837L57.7148 104.439H61.4346L64.1387 114.837C64.2572 115.302 64.4053 116.013 64.583 116.97C64.7607 117.926 64.8962 118.747 64.9893 119.433C65.0739 118.772 65.2093 117.951 65.3955 116.97C65.5817 115.979 65.751 115.18 65.9033 114.57L68.2646 104.439H72.1367L67.4141 123ZM74.0029 105.138C74.0029 103.877 74.7054 103.246 76.1104 103.246C77.5153 103.246 78.2178 103.877 78.2178 105.138C78.2178 105.739 78.04 106.208 77.6846 106.547C77.3376 106.877 76.8128 107.042 76.1104 107.042C74.7054 107.042 74.0029 106.407 74.0029 105.138ZM78.04 123H74.168V108.807H78.04V123ZM90.0371 108.54C90.5618 108.54 90.9977 108.578 91.3447 108.654L91.0527 112.285C90.7396 112.201 90.3587 112.158 89.9102 112.158C88.6745 112.158 87.7096 112.476 87.0156 113.11C86.3301 113.745 85.9873 114.634 85.9873 115.776V123H82.1152V108.807H85.0479L85.6191 111.193H85.8096C86.2497 110.398 86.8421 109.759 87.5869 109.276C88.3402 108.785 89.1569 108.54 90.0371 108.54ZM99.5459 111.295C98.7249 111.295 98.0817 111.557 97.6162 112.082C97.1507 112.598 96.8841 113.335 96.8164 114.291H102.25C102.233 113.335 101.983 112.598 101.501 112.082C101.019 111.557 100.367 111.295 99.5459 111.295ZM100.092 123.254C97.8066 123.254 96.0208 122.623 94.7344 121.362C93.4479 120.101 92.8047 118.315 92.8047 116.005C92.8047 113.627 93.3971 111.79 94.582 110.495C95.7754 109.192 97.4215 108.54 99.5205 108.54C101.526 108.54 103.088 109.111 104.205 110.254C105.322 111.396 105.881 112.975 105.881 114.989V116.868H96.7275C96.7699 117.968 97.0957 118.827 97.7051 119.445C98.3145 120.063 99.1693 120.372 100.27 120.372C101.124 120.372 101.933 120.283 102.694 120.105C103.456 119.928 104.252 119.644 105.081 119.255V122.251C104.404 122.59 103.68 122.839 102.91 123C102.14 123.169 101.201 123.254 100.092 123.254ZM113.206 123H109.334V104.439H119.973V107.664H113.206V112.45H119.503V115.662H113.206V123ZM131.221 108.54C131.745 108.54 132.181 108.578 132.528 108.654L132.236 112.285C131.923 112.201 131.542 112.158 131.094 112.158C129.858 112.158 128.893 112.476 128.199 113.11C127.514 113.745 127.171 114.634 127.171 115.776V123H123.299V108.807H126.231L126.803 111.193H126.993C127.433 110.398 128.026 109.759 128.771 109.276C129.524 108.785 130.34 108.54 131.221 108.54ZM143.865 123L143.116 121.07H143.015C142.363 121.891 141.69 122.463 140.996 122.784C140.311 123.097 139.413 123.254 138.305 123.254C136.942 123.254 135.867 122.865 135.08 122.086C134.301 121.307 133.912 120.199 133.912 118.76C133.912 117.253 134.437 116.145 135.486 115.434C136.544 114.714 138.135 114.316 140.26 114.24L142.723 114.164V113.542C142.723 112.103 141.986 111.384 140.514 111.384C139.38 111.384 138.047 111.727 136.515 112.412L135.232 109.797C136.866 108.942 138.677 108.515 140.666 108.515C142.57 108.515 144.03 108.929 145.046 109.759C146.062 110.588 146.569 111.849 146.569 113.542V123H143.865ZM142.723 116.424L141.225 116.475C140.099 116.508 139.261 116.712 138.711 117.084C138.161 117.456 137.886 118.023 137.886 118.785C137.886 119.877 138.512 120.423 139.765 120.423C140.662 120.423 141.377 120.165 141.91 119.648C142.452 119.132 142.723 118.447 142.723 117.592V116.424ZM163.276 123H159.404V114.71C159.404 113.686 159.231 112.92 158.884 112.412C158.545 111.896 158.008 111.638 157.271 111.638C156.281 111.638 155.562 112.002 155.113 112.729C154.665 113.457 154.44 114.655 154.44 116.322V123H150.568V108.807H153.526L154.047 110.622H154.263C154.644 109.97 155.194 109.463 155.913 109.099C156.632 108.726 157.458 108.54 158.389 108.54C160.513 108.54 161.952 109.234 162.705 110.622H163.048C163.429 109.962 163.987 109.45 164.724 109.086C165.468 108.722 166.306 108.54 167.237 108.54C168.845 108.54 170.06 108.955 170.881 109.784C171.71 110.605 172.125 111.925 172.125 113.745V123H168.24V114.71C168.24 113.686 168.067 112.92 167.72 112.412C167.381 111.896 166.844 111.638 166.107 111.638C165.16 111.638 164.449 111.976 163.975 112.653C163.509 113.33 163.276 114.405 163.276 115.878V123ZM181.989 111.295C181.168 111.295 180.525 111.557 180.06 112.082C179.594 112.598 179.327 113.335 179.26 114.291H184.693C184.676 113.335 184.427 112.598 183.944 112.082C183.462 111.557 182.81 111.295 181.989 111.295ZM182.535 123.254C180.25 123.254 178.464 122.623 177.178 121.362C175.891 120.101 175.248 118.315 175.248 116.005C175.248 113.627 175.84 111.79 177.025 110.495C178.219 109.192 179.865 108.54 181.964 108.54C183.97 108.54 185.531 109.111 186.648 110.254C187.766 111.396 188.324 112.975 188.324 114.989V116.868H179.171C179.213 117.968 179.539 118.827 180.148 119.445C180.758 120.063 181.613 120.372 182.713 120.372C183.568 120.372 184.376 120.283 185.138 120.105C185.899 119.928 186.695 119.644 187.524 119.255V122.251C186.847 122.59 186.124 122.839 185.354 123C184.583 123.169 183.644 123.254 182.535 123.254Z" fill="url(#paint2_linear)"/>
<defs>
<linearGradient id="paint0_linear" x1="10.9249" y1="62.8032" x2="213.77" y2="139.226" gradientUnits="userSpaceOnUse">
<stop stop-color="#00F5A0"/>
<stop offset="1" stop-color="#00D9F5"/>
</linearGradient>
<linearGradient id="paint1_linear" x1="4.08503" y1="94.2066" x2="218.253" y2="105.236" gradientUnits="userSpaceOnUse">
<stop stop-color="#00F5A0"/>
<stop offset="1" stop-color="#00D9F5"/>
</linearGradient>
<linearGradient id="paint2_linear" x1="47" y1="93.5" x2="190" y2="93.5" gradientUnits="userSpaceOnUse">
<stop stop-color="#F2709C"/>
<stop offset="1" stop-color="#FF9472"/>
</linearGradient>
</defs>
</svg>
