<svg width="375" height="235" viewBox="0 0 375 235" fill="none" xmlns="http://www.w3.org/2000/svg">
<path opacity="0.3" fill-rule="evenodd" clip-rule="evenodd" d="M138.939 9.14344C166.864 11.3248 175.91 40.1792 195.899 55.6677C211.799 67.9883 235.342 74.2891 243.925 90.4937C252.832 107.311 251.572 127.011 242.577 143.8C233.987 159.831 213.466 168.432 196.291 179.395C177.912 191.126 162.574 208.922 138.939 209.952C115.049 210.993 96.7754 194.932 76.7743 184.604C55.5621 173.652 25.0051 167.358 18.9236 147.985C12.8235 128.551 38.5701 112.649 48.3907 94.1826C57.0894 77.8256 58.6441 59.6701 73.1184 46.0765C90.8561 29.418 111.446 6.99572 138.939 9.14344Z" fill="url(#paint0_linear)"/>
<path opacity="0.3" fill-rule="evenodd" clip-rule="evenodd" d="M296.085 68.5534C317.924 71.1229 336.91 86.2602 348.688 101.449C359.368 115.222 356.92 130.999 356.149 146.012C355.515 158.366 351.832 169.725 344.647 180.17C337.272 190.891 329.243 202.054 314.475 206.591C299.492 211.195 281.9 206.999 264.947 204.659C245.427 201.964 225.115 201.467 208.511 191.964C189.211 180.919 171.234 165.845 166.688 148.425C162.054 130.671 169.444 112.215 184.605 100.368C198.55 89.4705 223.732 94.4138 242.754 88.9853C262.006 83.4911 274.533 66.0177 296.085 68.5534Z" fill="url(#paint1_linear)"/>
<g filter="url(#filter0_d)">
<path d="M41.4687 67.8661L58.5536 62.9671C66.3389 60.7347 72.3032 60.23 76.4466 61.453C80.6079 62.6438 83.3813 65.6549 84.7666 70.4862C85.707 73.7655 85.7026 76.6791 84.7535 79.2269C83.8295 81.7675 82.1518 83.6167 79.7205 84.7744L79.8281 85.1499C83.5302 84.9281 86.4498 85.6622 88.587 87.3522C90.7491 89.0349 92.3363 91.6411 93.3484 95.1708C94.784 100.177 94.0889 104.603 91.2631 108.447C88.4623 112.285 83.9578 115.093 77.7497 116.874L57.2102 122.763L41.4687 67.8661ZM59.3431 86.2694L66.102 84.3313C69.2562 83.4268 71.3942 82.2855 72.5161 80.9072C73.663 79.5218 73.9134 77.7026 73.2674 75.4497C72.6645 73.3469 71.4578 72.0675 69.6473 71.6113C67.8547 71.123 65.2937 71.3561 61.9644 72.3108L55.8438 74.0658L59.3431 86.2694ZM61.9918 95.5065L66.0941 109.813L73.6791 107.638C76.8833 106.719 79.073 105.427 80.2483 103.763C81.4236 102.098 81.6487 100.002 80.9237 97.4737C79.6173 92.9177 75.7099 91.5729 69.2013 93.4392L61.9918 95.5065ZM134.637 100.561L130.785 95.4892L130.484 95.5753C129.253 98.5562 127.748 100.817 125.968 102.356C124.206 103.864 121.685 105.088 118.406 106.028C114.375 107.184 110.866 106.944 107.877 105.309C104.914 103.666 102.822 100.717 101.602 96.4614C100.324 92.0055 100.936 88.2812 103.437 85.2883C105.956 82.2633 110.325 79.7373 116.544 77.7103L123.763 75.3962L123.236 73.5563C122.016 69.3007 119.228 67.7974 114.872 69.0464C111.518 70.0082 107.866 72.1526 103.916 75.4795L97.9055 68.8318C102.012 64.9181 107.006 62.1179 112.889 60.431C118.522 58.8159 123.191 58.8043 126.899 60.3962C130.606 61.988 133.178 65.2873 134.613 70.2938L142.635 98.268L134.637 100.561ZM125.68 82.0799L121.292 83.5007C117.992 84.5555 115.686 85.8669 114.374 87.4349C113.063 89.0029 112.73 90.9134 113.376 93.1664C114.302 96.3956 116.618 97.4791 120.323 96.4167C122.976 95.6558 124.873 94.2858 126.012 92.3066C127.176 90.3202 127.396 88.0628 126.671 85.5345L125.68 82.0799ZM180.177 74.0117C181.411 78.3174 180.85 82.0274 178.492 85.1417C176.159 88.2488 172.013 90.6566 166.056 92.365C163.002 93.2407 160.337 93.7744 158.062 93.9662C155.795 94.183 153.607 94.16 151.5 93.8973L148.787 84.4349C151.202 84.8261 153.833 84.9792 156.68 84.8942C159.552 84.802 162.002 84.4652 164.03 83.8838C168.186 82.6923 169.919 80.8949 169.23 78.4917C168.971 77.5906 168.488 76.9436 167.779 76.5508C167.063 76.1329 165.929 75.7674 164.376 75.4541C162.816 75.1157 160.773 74.7939 158.248 74.4887C154.631 74.0629 151.894 73.4932 150.037 72.7795C148.204 72.0587 146.726 71.0603 145.602 69.7844C144.495 68.4762 143.63 66.7332 143.005 64.5553C141.936 60.8254 142.549 57.5339 144.847 54.6808C147.162 51.7954 150.973 49.5919 156.28 48.0701C161.337 46.6202 166.572 46.3111 171.984 47.143L170.899 56.3944C168.538 56.0962 166.361 55.9212 164.368 55.8694C162.376 55.8177 160.428 56.0646 158.526 56.6101C155.146 57.5791 153.719 58.9774 154.243 60.8048C154.537 61.8311 155.33 62.5654 156.622 63.0078C157.938 63.4429 160.649 63.8714 164.752 64.2931C168.412 64.6796 171.17 65.2296 173.027 65.9432C174.884 66.6569 176.391 67.6606 177.548 68.9544C178.705 70.2482 179.581 71.934 180.177 74.0117ZM177.051 31.2237C175.981 27.4938 177.524 25.033 181.679 23.8415C185.835 22.6499 188.447 23.9191 189.517 27.649C190.027 29.4263 189.899 30.9664 189.135 32.2692C188.389 33.5398 186.977 34.4729 184.899 35.0687C180.743 36.2603 178.127 34.9786 177.051 31.2237ZM204.141 80.6316L192.688 83.9155L180.65 41.9354L192.103 38.6515L204.141 80.6316ZM233.457 73.0381C220.389 76.785 211.799 71.4866 207.686 57.1427C205.641 50.0084 205.857 44.0541 208.335 39.2799C210.805 34.4806 215.358 31.1299 221.991 29.2277C226.848 27.8352 231.476 27.5375 235.877 28.3345L235.038 38.1652C233.028 37.9561 231.182 37.8487 229.501 37.8432C227.812 37.8126 226.192 38.0198 224.64 38.4649C218.682 40.1732 216.916 45.258 219.343 53.7191C221.697 61.9299 225.853 65.1811 231.811 63.4727C234.014 62.841 235.971 61.9681 237.684 60.854C239.389 59.7149 241.001 58.2503 242.519 56.4603L245.33 66.2607C243.815 67.9684 242.17 69.3203 240.397 70.3164C238.649 71.3054 236.335 72.2126 233.457 73.0381Z" fill="url(#paint2_linear)"/>
</g>
<g filter="url(#filter1_d)">
<path d="M143.894 176.249L131.969 178.351L123.802 132.035L108.53 134.727L106.78 124.802L149.25 117.314L151 127.239L135.728 129.932L143.894 176.249ZM169.749 149.438C170.499 153.695 171.759 156.791 173.529 158.727C175.324 160.658 177.798 161.346 180.953 160.79C184.081 160.238 186.136 158.765 187.115 156.371C188.115 153.947 188.238 150.593 187.483 146.311C186.732 142.053 185.477 138.982 183.717 137.098C181.956 135.214 179.499 134.55 176.345 135.106C173.216 135.657 171.147 137.12 170.137 139.493C169.123 141.84 168.994 145.155 169.749 149.438ZM199.485 144.194C200.72 151.196 199.839 156.997 196.842 161.597C193.846 166.198 189.052 169.079 182.461 170.242C178.332 170.97 174.532 170.714 171.061 169.475C167.585 168.21 164.703 166.035 162.413 162.948C160.123 159.861 158.581 156.061 157.785 151.547C156.546 144.52 157.416 138.734 160.396 134.189C163.376 129.644 168.188 126.786 174.83 125.615C178.959 124.887 182.759 125.143 186.23 126.382C189.701 127.621 192.579 129.771 194.864 132.832C197.149 135.893 198.689 139.681 199.485 144.194ZM218.527 140.837C219.278 145.094 220.538 148.19 222.307 150.126C224.102 152.057 226.577 152.745 229.731 152.188C232.86 151.637 234.914 150.164 235.894 147.77C236.894 145.346 237.017 141.992 236.262 137.71C235.511 133.452 234.256 130.381 232.495 128.497C230.735 126.613 228.278 125.949 225.123 126.505C221.995 127.056 219.925 128.519 218.916 130.891C217.902 133.239 217.772 136.554 218.527 140.837ZM248.264 135.593C249.499 142.595 248.618 148.396 245.621 152.996C242.624 157.597 237.83 160.478 231.239 161.641C227.11 162.369 223.31 162.113 219.839 160.874C216.364 159.609 213.481 157.434 211.192 154.347C208.902 151.26 207.359 147.46 206.564 142.946C205.325 135.919 206.195 130.133 209.175 125.588C212.155 121.043 216.966 118.185 223.609 117.014C227.738 116.286 231.538 116.542 235.009 117.781C238.48 119.02 241.358 121.17 243.643 124.231C245.928 127.292 247.468 131.08 248.264 135.593ZM273.497 153.396L261.764 155.465L251.209 95.6072L262.942 93.5383L273.497 153.396ZM313.599 133.156C314.377 137.567 313.431 141.198 310.76 144.049C308.115 146.895 303.741 148.857 297.637 149.933C294.508 150.485 291.803 150.737 289.52 150.69C287.242 150.668 285.069 150.417 283.001 149.935L281.292 140.241C283.652 140.883 286.253 141.31 289.094 141.523C291.96 141.732 294.432 141.653 296.509 141.286C300.766 140.536 302.678 138.929 302.244 136.467C302.081 135.544 301.668 134.85 301.004 134.385C300.336 133.895 299.246 133.413 297.734 132.939C296.218 132.439 294.22 131.906 291.74 131.338C288.188 130.537 285.525 129.684 283.753 128.78C282.006 127.872 280.64 126.724 279.655 125.338C278.692 123.921 278.013 122.097 277.62 119.866C276.946 116.045 277.9 112.836 280.484 110.238C283.088 107.611 287.108 105.818 292.545 104.859C297.726 103.945 302.964 104.185 308.26 105.578L306.214 114.666C303.896 114.122 301.75 113.721 299.774 113.461C297.798 113.201 295.835 113.243 293.886 113.587C290.424 114.197 288.858 115.439 289.188 117.311C289.373 118.362 290.085 119.175 291.323 119.75C292.587 120.321 295.238 121.03 299.275 121.879C302.874 122.645 305.56 123.481 307.332 124.385C309.105 125.288 310.498 126.444 311.513 127.852C312.529 129.259 313.224 131.028 313.599 133.156Z" fill="url(#paint3_linear)"/>
</g>
<defs>
<filter id="filter0_d" x="41.4688" y="23.4087" width="208.861" height="104.354" filterUnits="userSpaceOnUse" color-interpolation-filters="sRGB">
<feFlood flood-opacity="0" result="BackgroundImageFix"/>
<feColorMatrix in="SourceAlpha" type="matrix" values="0 0 0 0 0 0 0 0 0 0 0 0 0 0 0 0 0 0 127 0"/>
<feOffset dx="3" dy="3"/>
<feGaussianBlur stdDeviation="1"/>
<feColorMatrix type="matrix" values="0 0 0 0 1 0 0 0 0 1 0 0 0 0 1 0 0 0 1 0"/>
<feBlend mode="normal" in2="BackgroundImageFix" result="effect1_dropShadow"/>
<feBlend mode="normal" in="SourceGraphic" in2="effect1_dropShadow" result="shape"/>
</filter>
<filter id="filter1_d" x="106.78" y="93.5383" width="212.082" height="89.813" filterUnits="userSpaceOnUse" color-interpolation-filters="sRGB">
<feFlood flood-opacity="0" result="BackgroundImageFix"/>
<feColorMatrix in="SourceAlpha" type="matrix" values="0 0 0 0 0 0 0 0 0 0 0 0 0 0 0 0 0 0 127 0"/>
<feOffset dx="3" dy="3"/>
<feGaussianBlur stdDeviation="1"/>
<feColorMatrix type="matrix" values="0 0 0 0 1 0 0 0 0 1 0 0 0 0 1 0 0 0 1 0"/>
<feBlend mode="normal" in2="BackgroundImageFix" result="effect1_dropShadow"/>
<feBlend mode="normal" in="SourceGraphic" in2="effect1_dropShadow" result="shape"/>
</filter>
<linearGradient id="paint0_linear" x1="18" y1="109.5" x2="250" y2="109.5" gradientUnits="userSpaceOnUse">
<stop stop-color="#EDE574"/>
<stop offset="1" stop-color="#E1F5C4"/>
</linearGradient>
<linearGradient id="paint1_linear" x1="169.946" y1="112.699" x2="355.16" y2="155.072" gradientUnits="userSpaceOnUse">
<stop stop-color="#1CD8D2"/>
<stop offset="1" stop-color="#93EDC7"/>
</linearGradient>
<linearGradient id="paint2_linear" x1="41.7564" y1="94.9452" x2="241.699" y2="37.6126" gradientUnits="userSpaceOnUse">
<stop stop-color="#67B26F"/>
<stop offset="1" stop-color="#4CA2CD"/>
</linearGradient>
<linearGradient id="paint3_linear" x1="109.736" y1="150.793" x2="313.592" y2="114.848" gradientUnits="userSpaceOnUse">
<stop stop-color="#67B26F"/>
<stop offset="1" stop-color="#4CA2CD"/>
</linearGradient>
</defs>
</svg>
