<svg width="375" height="235" viewBox="0 0 375 235" fill="none" xmlns="http://www.w3.org/2000/svg">
<path fill-rule="evenodd" clip-rule="evenodd" d="M111.052 50.0891C130.735 50.1673 152.524 49.0253 167.499 59.6327C182.181 70.0329 182.18 88.1514 186.76 103.718C190.944 117.939 196.257 131.863 192.982 146.247C189.362 162.145 184.682 181.048 167.438 188.583C150.222 196.106 130.387 183.827 111.052 182.047C94.7084 180.543 77.8158 185.022 63.0703 178.979C46.6934 172.268 31.4763 161.557 25.8484 147.13C20.2224 132.709 28.7952 117.868 33.5175 103.225C38.5497 87.621 39.2065 69.4651 54.2108 59.1823C69.4655 48.7279 91.2727 50.0104 111.052 50.0891Z" fill="url(#paint0_linear)"/>
<path fill-rule="evenodd" clip-rule="evenodd" d="M248.083 23.9558C261.472 19.2674 276.618 21.5434 289.786 27.496C301.084 32.603 306.547 44.8526 314.923 54.1701C322.808 62.9407 333.325 69.3119 337.359 80.416C341.926 92.9893 345.122 107.993 338.594 119.336C332.126 130.575 316.862 131.243 305.113 136.443C294.139 141.301 284.155 150.774 272.195 148.724C260.223 146.671 253.967 133.453 244.157 125.995C231.825 116.618 213.251 113.927 207.421 99.4746C201.423 84.6041 207.548 67.5061 214.989 53.6859C222.254 40.1938 233.758 28.9715 248.083 23.9558Z" fill="url(#paint1_linear)"/>
<path fill-rule="evenodd" clip-rule="evenodd" d="M269.888 157.336C287.738 158.453 307.11 152.187 321.855 159.666C336.115 166.898 326.74 177.82 328.784 187.208C330.556 195.347 336.362 203.654 333.02 210.95C329.149 219.399 325.083 230.463 308.591 231.286C291.56 232.136 277.115 218.039 259.127 214.639C241.217 211.253 221.998 219.528 207.189 212.118C192.865 204.95 198.175 193.58 198.986 184.545C199.617 177.515 205.045 171.877 211.289 166.412C217.084 161.339 222.723 155.848 233.713 154.146C244.567 152.465 257.597 156.566 269.888 157.336Z" fill="url(#paint2_linear)"/>
<g filter="url(#filter0_d)">
<path d="M129.289 139.283C130.185 144.361 129.056 148.685 125.905 152.255C122.778 155.821 117.958 158.178 111.444 159.327C105.443 160.385 99.9353 160.193 94.921 158.75L92.9675 147.671C97.0616 148.694 100.478 149.321 103.216 149.553C105.979 149.779 108.451 149.7 110.631 149.316C113.247 148.855 115.159 148.002 116.368 146.757C117.602 145.509 118.045 143.897 117.696 141.922C117.502 140.819 117.022 139.899 116.258 139.161C115.488 138.398 114.431 137.725 113.086 137.142C111.766 136.555 109.118 135.713 105.143 134.616C101.422 133.606 98.5709 132.509 96.5903 131.324C94.6097 130.14 92.9324 128.651 91.5584 126.857C90.1843 125.063 89.2644 122.845 88.7987 120.204C87.9214 115.229 88.9116 111.021 91.7692 107.582C94.6526 104.139 99.0692 101.892 105.019 100.843C107.943 100.328 110.786 100.183 113.55 100.41C116.339 100.632 119.294 101.116 122.413 101.862L120.201 111.811C116.983 111.109 114.344 110.688 112.284 110.549C110.249 110.406 108.282 110.501 106.384 110.836C104.128 111.234 102.489 112.065 101.469 113.329C100.449 114.593 100.088 116.071 100.387 117.764C100.572 118.815 100.979 119.696 101.606 120.405C102.229 121.088 103.132 121.709 104.315 122.267C105.518 122.796 108.275 123.658 112.585 124.855C118.285 126.441 122.334 128.332 124.731 130.527C127.123 132.697 128.643 135.616 129.289 139.283ZM148.462 127.89L152.425 120.448L162.159 105.245L175.393 102.912L161.602 124.581L184.015 145.737L170.474 148.125L155.014 132.883L150.687 137.811L153.047 151.198L141.314 153.267L130.76 93.4088L142.493 91.3399L147.2 118.037L148.308 127.917L148.462 127.89ZM180.126 90.6142C179.452 86.793 181.244 84.507 185.501 83.7564C189.758 83.0057 192.224 84.541 192.898 88.3622C193.219 90.1831 192.931 91.7014 192.035 92.9172C191.16 94.1028 189.658 94.8833 187.529 95.2586C183.272 96.0093 180.804 94.4611 180.126 90.6142ZM201.903 142.583L190.17 144.652L182.586 101.644L194.32 99.5748L201.903 142.583ZM225.985 138.337L214.252 140.406L203.697 80.5479L215.43 78.4791L225.985 138.337ZM250.066 134.091L238.333 136.16L227.779 76.3017L239.512 74.2328L250.066 134.091ZM290.169 113.851C290.947 118.262 290 121.893 287.33 124.744C284.685 127.59 280.31 129.551 274.207 130.627C271.078 131.179 268.372 131.431 266.09 131.384C263.812 131.363 261.639 131.111 259.571 130.63L257.861 120.936C260.222 121.577 262.823 122.004 265.663 122.218C268.53 122.426 271.001 122.347 273.079 121.981C277.336 121.23 279.248 119.624 278.813 117.162C278.651 116.239 278.237 115.545 277.574 115.08C276.905 114.59 275.816 114.107 274.304 113.634C272.788 113.134 270.79 112.6 268.31 112.033C264.758 111.231 262.095 110.379 260.323 109.475C258.576 108.566 257.21 107.419 256.225 106.032C255.261 104.616 254.583 102.792 254.189 100.561C253.516 96.7394 254.47 93.5301 257.053 90.9327C259.657 88.3052 263.678 86.5121 269.115 85.5534C274.295 84.6399 279.534 84.8797 284.83 86.2729L282.783 95.3601C280.466 94.8167 278.32 94.4151 276.343 94.1554C274.367 93.8956 272.405 93.9376 270.455 94.2813C266.993 94.8918 265.427 96.1331 265.757 98.0053C265.943 99.0567 266.655 99.87 267.893 100.445C269.157 101.015 271.808 101.725 275.844 102.573C279.444 103.34 282.13 104.175 283.902 105.079C285.674 105.983 287.068 107.139 288.083 108.546C289.098 109.954 289.793 111.722 290.169 113.851Z" fill="url(#paint3_linear)"/>
</g>
<defs>
<filter id="filter0_d" x="88.4895" y="74.2328" width="206.942" height="90.7655" filterUnits="userSpaceOnUse" color-interpolation-filters="sRGB">
<feFlood flood-opacity="0" result="BackgroundImageFix"/>
<feColorMatrix in="SourceAlpha" type="matrix" values="0 0 0 0 0 0 0 0 0 0 0 0 0 0 0 0 0 0 127 0"/>
<feOffset dx="3" dy="3"/>
<feGaussianBlur stdDeviation="1"/>
<feColorMatrix type="matrix" values="0 0 0 0 1 0 0 0 0 1 0 0 0 0 1 0 0 0 1 0"/>
<feBlend mode="normal" in2="BackgroundImageFix" result="effect1_dropShadow"/>
<feBlend mode="normal" in="SourceGraphic" in2="effect1_dropShadow" result="shape"/>
</filter>
<linearGradient id="paint0_linear" x1="24" y1="120.5" x2="194" y2="120.5" gradientUnits="userSpaceOnUse">
<stop stop-color="#1FA2FF"/>
<stop offset="0.5" stop-color="#12D8FA"/>
<stop offset="1" stop-color="#A6FFCB"/>
</linearGradient>
<linearGradient id="paint1_linear" x1="214.347" y1="113.316" x2="325.653" y2="56.8837" gradientUnits="userSpaceOnUse">
<stop stop-color="#A1FFCE"/>
<stop offset="1" stop-color="#FAFFD1"/>
</linearGradient>
<linearGradient id="paint2_linear" x1="200.921" y1="173.856" x2="335.568" y2="199.141" gradientUnits="userSpaceOnUse">
<stop stop-color="#A1FFCE"/>
<stop offset="1" stop-color="#FAFFD1"/>
</linearGradient>
<linearGradient id="paint3_linear" x1="86.4071" y1="131.611" x2="290.262" y2="95.6654" gradientUnits="userSpaceOnUse">
<stop stop-color="#FD746C"/>
<stop offset="1" stop-color="#FF9068"/>
</linearGradient>
</defs>
</svg>
