<svg width="160" height="140" viewBox="0 0 160 140" fill="none" xmlns="http://www.w3.org/2000/svg">
<g filter="url(#filter0_d)">
<circle cx="80" cy="60" r="50" fill="#4DC4EF"/>
</g>
<path d="M75.5908 72H71.0645V62.7568H62.583V72H58.042V50.584H62.583V58.9775H71.0645V50.584H75.5908V72ZM80.4688 51.3896C80.4688 49.9346 81.2793 49.207 82.9004 49.207C84.5215 49.207 85.332 49.9346 85.332 51.3896C85.332 52.083 85.127 52.625 84.7168 53.0156C84.3164 53.3965 83.7109 53.5869 82.9004 53.5869C81.2793 53.5869 80.4688 52.8545 80.4688 51.3896ZM85.127 72H80.6592V55.623H85.127V72ZM92.2021 62.1562C91.665 62.1562 91.0889 62.3223 90.4736 62.6543C89.8682 62.9766 89.3018 63.4014 88.7744 63.9287V60.5449C89.7803 59.4805 91.0303 58.9482 92.5244 58.9482C93.2373 58.9482 93.9062 59.0264 94.5312 59.1826C95.166 59.3389 95.8496 59.5732 96.582 59.8857C97.8418 60.4229 98.9502 60.6914 99.9072 60.6914C100.425 60.6914 100.991 60.5352 101.606 60.2227C102.222 59.9102 102.793 59.4756 103.32 58.9189V62.3027C102.334 63.3672 101.084 63.8994 99.5703 63.8994C98.9258 63.8994 98.3105 63.8359 97.7246 63.709C97.1387 63.582 96.4062 63.3379 95.5273 62.9766C94.248 62.4297 93.1396 62.1562 92.2021 62.1562Z" fill="white"/>
<defs>
<filter id="filter0_d" x="10" y="0" width="140" height="140" filterUnits="userSpaceOnUse" color-interpolation-filters="sRGB">
<feFlood flood-opacity="0" result="BackgroundImageFix"/>
<feColorMatrix in="SourceAlpha" type="matrix" values="0 0 0 0 0 0 0 0 0 0 0 0 0 0 0 0 0 0 127 0"/>
<feOffset dy="10"/>
<feGaussianBlur stdDeviation="10"/>
<feColorMatrix type="matrix" values="0 0 0 0 0 0 0 0 0 0 0 0 0 0 0 0 0 0 0.15 0"/>
<feBlend mode="normal" in2="BackgroundImageFix" result="effect1_dropShadow"/>
<feBlend mode="normal" in="SourceGraphic" in2="effect1_dropShadow" result="shape"/>
</filter>
</defs>
</svg>
