<svg width="375" height="631" viewBox="0 0 375 631" fill="none" xmlns="http://www.w3.org/2000/svg">
<mask id="mask0" mask-type="alpha" maskUnits="userSpaceOnUse" x="1" y="23" width="375" height="615">
<rect x="1" y="23" width="375" height="615" fill="#C4C4C4"/>
</mask>
<g mask="url(#mask0)">
<g style="mix-blend-mode:hard-light" opacity="0.5">
<path fill-rule="evenodd" clip-rule="evenodd" d="M317.355 38.5333C346.189 45.2064 327.502 156.51 327.155 225.328C326.894 276.879 321.526 330.86 315.586 388.497C307.908 463.011 312.263 531.456 287.38 611.302C259.779 699.867 218.022 786.32 178.103 829.662C138.356 872.815 110.06 847.718 80.6522 835.749C52.0413 824.105 11.3178 831.499 10.4787 761.439C9.63526 691.016 57.7236 592.99 76.7058 506.24C92.6866 433.206 83.7316 363.99 112.061 297.201C140.398 230.393 174.684 239.123 207.593 197.658C245.264 150.194 288.284 31.8054 317.355 38.5333Z" fill="url(#paint0_linear)"/>
<path fill-rule="evenodd" clip-rule="evenodd" d="M317.355 38.5333C346.189 45.2064 327.502 156.51 327.155 225.328C326.894 276.879 321.526 330.86 315.586 388.497C307.908 463.011 312.263 531.456 287.38 611.302C259.779 699.867 218.022 786.32 178.103 829.662C138.356 872.815 110.06 847.718 80.6522 835.749C52.0413 824.105 11.3178 831.499 10.4787 761.439C9.63526 691.016 57.7236 592.99 76.7058 506.24C92.6866 433.206 83.7316 363.99 112.061 297.201C140.398 230.393 174.684 239.123 207.593 197.658C245.264 150.194 288.284 31.8054 317.355 38.5333Z" stroke="url(#paint1_linear)" stroke-width="4"/>
</g>
<g style="mix-blend-mode:hard-light" opacity="0.5">
<path fill-rule="evenodd" clip-rule="evenodd" d="M19.4312 674.019C70.7809 747.35 121.935 831.19 181.677 874.19C240.185 916.302 276.632 888.505 325.099 894.027C377.14 899.956 462.196 959.461 475.784 907.698C489.566 855.196 408.998 746.995 384.715 666.921C362.492 593.642 377.52 538.667 340.725 462.343C297.43 372.532 235.135 257.8 167.525 216.393C97.929 173.77 91.5483 272.461 38.4211 277.201C-8.21729 281.362 -88.1503 212.388 -119.339 241.985C-152.578 273.529 -153.54 350.183 -126.662 433.864C-100.567 515.105 -35.7102 595.274 19.4312 674.019Z" fill="url(#paint2_linear)"/>
<path fill-rule="evenodd" clip-rule="evenodd" d="M19.4312 674.019C70.7809 747.35 121.935 831.19 181.677 874.19C240.185 916.302 276.632 888.505 325.099 894.027C377.14 899.956 462.196 959.461 475.784 907.698C489.566 855.196 408.998 746.995 384.715 666.921C362.492 593.642 377.52 538.667 340.725 462.343C297.43 372.532 235.135 257.8 167.525 216.393C97.929 173.77 91.5483 272.461 38.4211 277.201C-8.21729 281.362 -88.1503 212.388 -119.339 241.985C-152.578 273.529 -153.54 350.183 -126.662 433.864C-100.567 515.105 -35.7102 595.274 19.4312 674.019Z" stroke="url(#paint3_linear)" stroke-width="4"/>
</g>
<g style="mix-blend-mode:hard-light" opacity="0.5">
<path fill-rule="evenodd" clip-rule="evenodd" d="M173.058 831.179C226.656 826.254 285.447 832.749 326.64 782.301C366.983 732.894 365.09 645.019 383.823 573.062C403.937 495.799 461.728 422.162 440.315 345.65C418.597 268.047 337.929 283.019 289.877 237.375C245.902 195.603 223.358 113.386 173.058 91.7855C113.87 66.3681 35.9572 45.1083 -7.03243 109.869C-51.2844 176.532 -4.02487 291.068 -19.1608 381.349C-32.4481 460.604 -93.2865 516.011 -88.76 597.349C-83.9359 684.035 -45.9128 766.586 4.79852 811.876C54.0317 855.847 115.501 836.468 173.058 831.179Z" fill="url(#paint4_linear)"/>
<path fill-rule="evenodd" clip-rule="evenodd" d="M173.058 831.179C226.656 826.254 285.447 832.749 326.64 782.301C366.983 732.894 365.09 645.019 383.823 573.062C403.937 495.799 461.728 422.162 440.315 345.65C418.597 268.047 337.929 283.019 289.877 237.375C245.902 195.603 223.358 113.386 173.058 91.7855C113.87 66.3681 35.9572 45.1083 -7.03243 109.869C-51.2844 176.532 -4.02487 291.068 -19.1608 381.349C-32.4481 460.604 -93.2865 516.011 -88.76 597.349C-83.9359 684.035 -45.9128 766.586 4.79852 811.876C54.0317 855.847 115.501 836.468 173.058 831.179Z" stroke="url(#paint5_linear)" stroke-width="4"/>
</g>
</g>
<defs>
<linearGradient id="paint0_linear" x1="198.777" y1="0" x2="548.633" y2="167.322" gradientUnits="userSpaceOnUse">
<stop stop-color="#AD1DF7"/>
<stop offset="1" stop-color="#E74782"/>
</linearGradient>
<linearGradient id="paint1_linear" x1="79.8885" y1="400.417" x2="328.149" y2="474.128" gradientUnits="userSpaceOnUse">
<stop stop-color="#FFFC00"/>
<stop offset="1" stop-color="white"/>
</linearGradient>
<linearGradient id="paint2_linear" x1="-57.0513" y1="200.469" x2="433.439" y2="944.962" gradientUnits="userSpaceOnUse">
<stop stop-color="#FDFC47"/>
<stop offset="1" stop-color="#24FE41"/>
</linearGradient>
<linearGradient id="paint3_linear" x1="-57.0513" y1="200.469" x2="433.439" y2="944.962" gradientUnits="userSpaceOnUse">
<stop stop-color="#F857A6"/>
<stop offset="1" stop-color="#FF5858"/>
</linearGradient>
<linearGradient id="paint4_linear" x1="-89" y1="840" x2="618.636" y2="598.071" gradientUnits="userSpaceOnUse">
<stop stop-color="#19E7D7"/>
<stop offset="1" stop-color="#306CF5"/>
</linearGradient>
<linearGradient id="paint5_linear" x1="-89" y1="453.5" x2="445" y2="453.5" gradientUnits="userSpaceOnUse">
<stop stop-color="#F857A6"/>
<stop offset="1" stop-color="#FF5858"/>
</linearGradient>
</defs>
</svg>
