<svg width="31" height="30" viewBox="0 0 31 30" fill="none" xmlns="http://www.w3.org/2000/svg">
<path d="M18.2395 12.5C17.202 12.5 16.3645 11.6625 16.3645 10.625V4.375C16.3645 3.3375 17.202 2.5 18.2395 2.5C19.277 2.5 20.1145 3.3375 20.1145 4.375V10.625C20.1145 11.6625 19.277 12.5 18.2395 12.5Z" stroke="#15EFD4" stroke-width="2" stroke-linecap="round" stroke-linejoin="round"/>
<path d="M25.7395 12.5H23.8645V10.625C23.8645 9.5875 24.702 8.75 25.7395 8.75C26.777 8.75 27.6145 9.5875 27.6145 10.625C27.6145 11.6625 26.777 12.5 25.7395 12.5Z" stroke="#15EFD4" stroke-width="2" stroke-linecap="round" stroke-linejoin="round"/>
<path d="M11.9895 17.5C13.027 17.5 13.8645 18.3375 13.8645 19.375V25.625C13.8645 26.6625 13.027 27.5 11.9895 27.5C10.952 27.5 10.1145 26.6625 10.1145 25.625V19.375C10.1145 18.3375 10.952 17.5 11.9895 17.5Z" stroke="#15EFD4" stroke-width="2" stroke-linecap="round" stroke-linejoin="round"/>
<path d="M4.4895 17.5H6.3645V19.375C6.3645 20.4125 5.527 21.25 4.4895 21.25C3.452 21.25 2.6145 20.4125 2.6145 19.375C2.6145 18.3375 3.452 17.5 4.4895 17.5Z" stroke="#15EFD4" stroke-width="2" stroke-linecap="round" stroke-linejoin="round"/>
<path d="M17.6145 18.125C17.6145 17.0875 18.452 16.25 19.4895 16.25H25.7395C26.777 16.25 27.6145 17.0875 27.6145 18.125C27.6145 19.1625 26.777 20 25.7395 20H19.4895C18.452 20 17.6145 19.1625 17.6145 18.125Z" stroke="#15EFD4" stroke-width="2" stroke-linecap="round" stroke-linejoin="round"/>
<path d="M19.4895 23.75H17.6145V25.625C17.6145 26.6625 18.452 27.5 19.4895 27.5C20.527 27.5 21.3645 26.6625 21.3645 25.625C21.3645 24.5875 20.527 23.75 19.4895 23.75Z" stroke="#15EFD4" stroke-width="2" stroke-linecap="round" stroke-linejoin="round"/>
<path d="M12.6145 11.875C12.6145 10.8375 11.777 10 10.7395 10H4.4895C3.452 10 2.6145 10.8375 2.6145 11.875C2.6145 12.9125 3.452 13.75 4.4895 13.75H10.7395C11.777 13.75 12.6145 12.9125 12.6145 11.875Z" stroke="#15EFD4" stroke-width="2" stroke-linecap="round" stroke-linejoin="round"/>
<path d="M10.7395 6.25H12.6145V4.375C12.6145 3.3375 11.777 2.5 10.7395 2.5C9.702 2.5 8.8645 3.3375 8.8645 4.375C8.8645 5.4125 9.702 6.25 10.7395 6.25Z" stroke="#15EFD4" stroke-width="2" stroke-linecap="round" stroke-linejoin="round"/>
</svg>
