<svg width="31" height="30" viewBox="0 0 31 30" fill="none" xmlns="http://www.w3.org/2000/svg">
<path d="M26.1645 5.76249C25.5261 5.12375 24.768 4.61705 23.9337 4.27135C23.0994 3.92565 22.2051 3.74771 21.302 3.74771C20.3989 3.74771 19.5047 3.92565 18.6703 4.27135C17.836 4.61705 17.078 5.12375 16.4395 5.76249L15.1145 7.08749L13.7895 5.76249C12.4999 4.47288 10.7508 3.74838 8.92703 3.74838C7.10324 3.74838 5.35414 4.47288 4.06453 5.76249C2.77491 7.05211 2.05042 8.8012 2.05042 10.625C2.05042 12.4488 2.77491 14.1979 4.06453 15.4875L5.38953 16.8125L15.1145 26.5375L24.8395 16.8125L26.1645 15.4875C26.8033 14.849 27.31 14.091 27.6557 13.2567C28.0014 12.4224 28.1793 11.5281 28.1793 10.625C28.1793 9.72188 28.0014 8.82762 27.6557 7.9933C27.31 7.15897 26.8033 6.40094 26.1645 5.76249V5.76249Z" stroke="white" stroke-width="2" stroke-linecap="round" stroke-linejoin="round"/>
</svg>
