<svg width="31" height="30" viewBox="0 0 31 30" fill="none" xmlns="http://www.w3.org/2000/svg">
<path d="M18.4895 7.87501C18.2605 8.10867 18.1322 8.42281 18.1322 8.75001C18.1322 9.0772 18.2605 9.39134 18.4895 9.62501L20.4895 11.625C20.7232 11.854 21.0373 11.9823 21.3645 11.9823C21.6917 11.9823 22.0058 11.854 22.2395 11.625L26.952 6.91251C27.5805 8.30149 27.7709 9.84905 27.4976 11.3489C27.2243 12.8488 26.5004 14.2298 25.4224 15.3079C24.3443 16.3859 22.9633 17.1098 21.4634 17.3831C19.9635 17.6564 18.416 17.466 17.027 16.8375L8.3895 25.475C7.89222 25.9723 7.21777 26.2517 6.5145 26.2517C5.81124 26.2517 5.13679 25.9723 4.6395 25.475C4.14222 24.9777 3.86285 24.3033 3.86285 23.6C3.86285 22.8967 4.14222 22.2223 4.6395 21.725L13.277 13.0875C12.6485 11.6985 12.4581 10.151 12.7314 8.65107C13.0047 7.15118 13.7286 5.7702 14.8067 4.69216C15.8847 3.61411 17.2657 2.89022 18.7656 2.61693C20.2655 2.34365 21.813 2.53396 23.202 3.16251L18.502 7.86251L18.4895 7.87501Z" stroke="white" stroke-width="2" stroke-linecap="round" stroke-linejoin="round"/>
</svg>
