<svg width="31" height="30" viewBox="0 0 31 30" fill="none" xmlns="http://www.w3.org/2000/svg">
<path d="M22.6145 3.75C21.6199 3.75 20.6661 4.14509 19.9629 4.84835C19.2596 5.55161 18.8645 6.50544 18.8645 7.5V22.5C18.8645 23.4946 19.2596 24.4484 19.9629 25.1517C20.6661 25.8549 21.6199 26.25 22.6145 26.25C23.6091 26.25 24.5629 25.8549 25.2662 25.1517C25.9694 24.4484 26.3645 23.4946 26.3645 22.5C26.3645 21.5054 25.9694 20.5516 25.2662 19.8483C24.5629 19.1451 23.6091 18.75 22.6145 18.75H7.6145C6.61994 18.75 5.66611 19.1451 4.96285 19.8483C4.25959 20.5516 3.8645 21.5054 3.8645 22.5C3.8645 23.4946 4.25959 24.4484 4.96285 25.1517C5.66611 25.8549 6.61994 26.25 7.6145 26.25C8.60906 26.25 9.56289 25.8549 10.2662 25.1517C10.9694 24.4484 11.3645 23.4946 11.3645 22.5V7.5C11.3645 6.50544 10.9694 5.55161 10.2662 4.84835C9.56289 4.14509 8.60906 3.75 7.6145 3.75C6.61994 3.75 5.66611 4.14509 4.96285 4.84835C4.25959 5.55161 3.8645 6.50544 3.8645 7.5C3.8645 8.49456 4.25959 9.44839 4.96285 10.1517C5.66611 10.8549 6.61994 11.25 7.6145 11.25H22.6145C23.6091 11.25 24.5629 10.8549 25.2662 10.1517C25.9694 9.44839 26.3645 8.49456 26.3645 7.5C26.3645 6.50544 25.9694 5.55161 25.2662 4.84835C24.5629 4.14509 23.6091 3.75 22.6145 3.75Z" stroke="#15EFD4" stroke-width="2" stroke-linecap="round" stroke-linejoin="round"/>
</svg>
