<svg width="375" height="220" viewBox="0 0 375 220" fill="none" xmlns="http://www.w3.org/2000/svg">
<rect y="-1" width="375" height="204" fill="url(#paint0_linear)"/>
<g filter="url(#filter0_d)">
<path d="M133.281 51.7188C129.635 51.7188 126.812 53.0938 124.812 55.8438C122.812 58.5729 121.812 62.3854 121.812 67.2812C121.812 77.4688 125.635 82.5625 133.281 82.5625C136.49 82.5625 140.375 81.7604 144.938 80.1562V88.2812C141.188 89.8438 137 90.625 132.375 90.625C125.729 90.625 120.646 88.6146 117.125 84.5938C113.604 80.5521 111.844 74.7604 111.844 67.2188C111.844 62.4688 112.708 58.3125 114.438 54.75C116.167 51.1667 118.646 48.4271 121.875 46.5312C125.125 44.6146 128.927 43.6562 133.281 43.6562C137.719 43.6562 142.177 44.7292 146.656 46.875L143.531 54.75C141.823 53.9375 140.104 53.2292 138.375 52.625C136.646 52.0208 134.948 51.7188 133.281 51.7188ZM161.531 72.4688C161.531 75.9271 162.094 78.5417 163.219 80.3125C164.365 82.0833 166.219 82.9688 168.781 82.9688C171.323 82.9688 173.146 82.0938 174.25 80.3438C175.375 78.5729 175.938 75.9479 175.938 72.4688C175.938 69.0104 175.375 66.4167 174.25 64.6875C173.125 62.9583 171.281 62.0938 168.719 62.0938C166.177 62.0938 164.344 62.9583 163.219 64.6875C162.094 66.3958 161.531 68.9896 161.531 72.4688ZM185.688 72.4688C185.688 78.1562 184.188 82.6042 181.188 85.8125C178.188 89.0208 174.01 90.625 168.656 90.625C165.302 90.625 162.344 89.8958 159.781 88.4375C157.219 86.9583 155.25 84.8438 153.875 82.0938C152.5 79.3438 151.812 76.1354 151.812 72.4688C151.812 66.7604 153.302 62.3229 156.281 59.1562C159.26 55.9896 163.448 54.4062 168.844 54.4062C172.198 54.4062 175.156 55.1354 177.719 56.5938C180.281 58.0521 182.25 60.1458 183.625 62.875C185 65.6042 185.688 68.8021 185.688 72.4688ZM204.625 90.625C200.521 90.625 197.292 89.0312 194.938 85.8438C192.604 82.6562 191.438 78.2396 191.438 72.5938C191.438 66.8646 192.625 62.4062 195 59.2188C197.396 56.0104 200.688 54.4062 204.875 54.4062C209.271 54.4062 212.625 56.1146 214.938 59.5312H215.25C214.771 56.9271 214.531 54.6042 214.531 52.5625V41.375H224.094V90H216.781L214.938 85.4688H214.531C212.365 88.9062 209.062 90.625 204.625 90.625ZM207.969 83.0312C210.406 83.0312 212.188 82.3229 213.312 80.9062C214.458 79.4896 215.083 77.0833 215.188 73.6875V72.6562C215.188 68.9062 214.604 66.2188 213.438 64.5938C212.292 62.9688 210.417 62.1562 207.812 62.1562C205.688 62.1562 204.031 63.0625 202.844 64.875C201.677 66.6667 201.094 69.2812 201.094 72.7188C201.094 76.1562 201.688 78.7396 202.875 80.4688C204.062 82.1771 205.76 83.0312 207.969 83.0312ZM248.531 61.1875C246.51 61.1875 244.927 61.8333 243.781 63.125C242.635 64.3958 241.979 66.2083 241.812 68.5625H255.188C255.146 66.2083 254.531 64.3958 253.344 63.125C252.156 61.8333 250.552 61.1875 248.531 61.1875ZM249.875 90.625C244.25 90.625 239.854 89.0729 236.688 85.9688C233.521 82.8646 231.938 78.4688 231.938 72.7812C231.938 66.9271 233.396 62.4062 236.312 59.2188C239.25 56.0104 243.302 54.4062 248.469 54.4062C253.406 54.4062 257.25 55.8125 260 58.625C262.75 61.4375 264.125 65.3229 264.125 70.2812V74.9062H241.594C241.698 77.6146 242.5 79.7292 244 81.25C245.5 82.7708 247.604 83.5312 250.312 83.5312C252.417 83.5312 254.406 83.3125 256.281 82.875C258.156 82.4375 260.115 81.7396 262.156 80.7812V88.1562C260.49 88.9896 258.708 89.6042 256.812 90C254.917 90.4167 252.604 90.625 249.875 90.625ZM92.7715 124V98.3008H98.2207V119.5H108.645V124H92.7715ZM125.186 124L124.148 121.328H124.008C123.105 122.465 122.174 123.256 121.213 123.701C120.264 124.135 119.021 124.352 117.486 124.352C115.6 124.352 114.111 123.812 113.021 122.734C111.943 121.656 111.404 120.121 111.404 118.129C111.404 116.043 112.131 114.508 113.584 113.523C115.049 112.527 117.252 111.977 120.193 111.871L123.604 111.766V110.904C123.604 108.912 122.584 107.916 120.545 107.916C118.975 107.916 117.129 108.391 115.008 109.34L113.232 105.719C115.494 104.535 118.002 103.943 120.756 103.943C123.393 103.943 125.414 104.518 126.82 105.666C128.227 106.814 128.93 108.561 128.93 110.904V124H125.186ZM123.604 114.895L121.529 114.965C119.971 115.012 118.811 115.293 118.049 115.809C117.287 116.324 116.906 117.109 116.906 118.164C116.906 119.676 117.773 120.432 119.508 120.432C120.75 120.432 121.74 120.074 122.479 119.359C123.229 118.645 123.604 117.695 123.604 116.512V114.895ZM152.607 124H147.246V112.521C147.246 111.104 146.994 110.043 146.49 109.34C145.986 108.625 145.184 108.268 144.082 108.268C142.582 108.268 141.498 108.771 140.83 109.779C140.162 110.775 139.828 112.434 139.828 114.754V124H134.467V104.348H138.562L139.283 106.861H139.582C140.18 105.912 141 105.197 142.043 104.717C143.098 104.225 144.293 103.979 145.629 103.979C147.914 103.979 149.648 104.6 150.832 105.842C152.016 107.072 152.607 108.854 152.607 111.186V124ZM166.266 120.15C167.707 120.15 168.738 119.74 169.359 118.92C169.98 118.088 170.291 116.746 170.291 114.895V114.244C170.291 112.146 169.963 110.641 169.307 109.727C168.662 108.801 167.619 108.338 166.178 108.338C163.658 108.338 162.398 110.318 162.398 114.279C162.398 116.248 162.709 117.719 163.33 118.691C163.963 119.664 164.941 120.15 166.266 120.15ZM175.301 124.035C175.301 126.859 174.475 128.998 172.822 130.451C171.182 131.916 168.732 132.648 165.475 132.648C162.604 132.648 160.154 132.262 158.127 131.488V127.199C160.506 128.207 163.061 128.711 165.791 128.711C168.545 128.711 169.922 127.223 169.922 124.246V123.859L170.08 121.451H169.922C168.668 123.385 166.811 124.352 164.35 124.352C161.994 124.352 160.166 123.443 158.865 121.627C157.576 119.811 156.932 117.338 156.932 114.209C156.932 110.986 157.6 108.479 158.936 106.686C160.283 104.881 162.135 103.979 164.49 103.979C166.904 103.979 168.803 104.939 170.186 106.861H170.326L170.766 104.348H175.301V124.035ZM194.83 124L194.109 121.486H193.828C193.254 122.4 192.439 123.109 191.385 123.613C190.33 124.105 189.129 124.352 187.781 124.352C185.473 124.352 183.732 123.736 182.561 122.506C181.389 121.264 180.803 119.482 180.803 117.162V104.348H186.164V115.826C186.164 117.244 186.416 118.311 186.92 119.025C187.424 119.729 188.227 120.08 189.328 120.08C190.828 120.08 191.912 119.582 192.58 118.586C193.248 117.578 193.582 115.914 193.582 113.594V104.348H198.943V124H194.83ZM217.049 124L216.012 121.328H215.871C214.969 122.465 214.037 123.256 213.076 123.701C212.127 124.135 210.885 124.352 209.35 124.352C207.463 124.352 205.975 123.812 204.885 122.734C203.807 121.656 203.268 120.121 203.268 118.129C203.268 116.043 203.994 114.508 205.447 113.523C206.912 112.527 209.115 111.977 212.057 111.871L215.467 111.766V110.904C215.467 108.912 214.447 107.916 212.408 107.916C210.838 107.916 208.992 108.391 206.871 109.34L205.096 105.719C207.357 104.535 209.865 103.943 212.619 103.943C215.256 103.943 217.277 104.518 218.684 105.666C220.09 106.814 220.793 108.561 220.793 110.904V124H217.049ZM215.467 114.895L213.393 114.965C211.834 115.012 210.674 115.293 209.912 115.809C209.15 116.324 208.77 117.109 208.77 118.164C208.77 119.676 209.637 120.432 211.371 120.432C212.613 120.432 213.604 120.074 214.342 119.359C215.092 118.645 215.467 117.695 215.467 116.512V114.895ZM234.469 120.15C235.91 120.15 236.941 119.74 237.562 118.92C238.184 118.088 238.494 116.746 238.494 114.895V114.244C238.494 112.146 238.166 110.641 237.51 109.727C236.865 108.801 235.822 108.338 234.381 108.338C231.861 108.338 230.602 110.318 230.602 114.279C230.602 116.248 230.912 117.719 231.533 118.691C232.166 119.664 233.145 120.15 234.469 120.15ZM243.504 124.035C243.504 126.859 242.678 128.998 241.025 130.451C239.385 131.916 236.936 132.648 233.678 132.648C230.807 132.648 228.357 132.262 226.33 131.488V127.199C228.709 128.207 231.264 128.711 233.994 128.711C236.748 128.711 238.125 127.223 238.125 124.246V123.859L238.283 121.451H238.125C236.871 123.385 235.014 124.352 232.553 124.352C230.197 124.352 228.369 123.443 227.068 121.627C225.779 119.811 225.135 117.338 225.135 114.209C225.135 110.986 225.803 108.479 227.139 106.686C228.486 104.881 230.338 103.979 232.693 103.979C235.107 103.979 237.006 104.939 238.389 106.861H238.529L238.969 104.348H243.504V124.035ZM257.25 107.793C256.113 107.793 255.223 108.156 254.578 108.883C253.934 109.598 253.564 110.617 253.471 111.941H260.994C260.971 110.617 260.625 109.598 259.957 108.883C259.289 108.156 258.387 107.793 257.25 107.793ZM258.006 124.352C254.842 124.352 252.369 123.479 250.588 121.732C248.807 119.986 247.916 117.514 247.916 114.314C247.916 111.021 248.736 108.479 250.377 106.686C252.029 104.881 254.309 103.979 257.215 103.979C259.992 103.979 262.154 104.77 263.701 106.352C265.248 107.934 266.021 110.119 266.021 112.908V115.51H253.348C253.406 117.033 253.857 118.223 254.701 119.078C255.545 119.934 256.729 120.361 258.252 120.361C259.436 120.361 260.555 120.238 261.609 119.992C262.664 119.746 263.766 119.354 264.914 118.814V122.963C263.977 123.432 262.975 123.777 261.908 124C260.842 124.234 259.541 124.352 258.006 124.352ZM284.092 118.164C284.092 120.18 283.389 121.715 281.982 122.77C280.588 123.824 278.496 124.352 275.707 124.352C274.277 124.352 273.059 124.252 272.051 124.053C271.043 123.865 270.1 123.584 269.221 123.209V118.779C270.217 119.248 271.336 119.641 272.578 119.957C273.832 120.273 274.934 120.432 275.883 120.432C277.828 120.432 278.801 119.869 278.801 118.744C278.801 118.322 278.672 117.982 278.414 117.725C278.156 117.455 277.711 117.156 277.078 116.828C276.445 116.488 275.602 116.096 274.547 115.65C273.035 115.018 271.922 114.432 271.207 113.893C270.504 113.354 269.988 112.738 269.66 112.047C269.344 111.344 269.186 110.482 269.186 109.463C269.186 107.717 269.859 106.369 271.207 105.42C272.566 104.459 274.488 103.979 276.973 103.979C279.34 103.979 281.643 104.494 283.881 105.525L282.264 109.393C281.279 108.971 280.359 108.625 279.504 108.355C278.648 108.086 277.775 107.951 276.885 107.951C275.303 107.951 274.512 108.379 274.512 109.234C274.512 109.715 274.764 110.131 275.268 110.482C275.783 110.834 276.902 111.355 278.625 112.047C280.16 112.668 281.285 113.248 282 113.787C282.715 114.326 283.242 114.947 283.582 115.65C283.922 116.354 284.092 117.191 284.092 118.164ZM142.465 164H127.664V138.301H142.465V142.766H133.113V148.408H141.814V152.873H133.113V159.5H142.465V164ZM153.645 164.352C151.336 164.352 149.52 163.455 148.195 161.662C146.883 159.869 146.227 157.385 146.227 154.209C146.227 150.986 146.895 148.479 148.23 146.686C149.578 144.881 151.43 143.979 153.785 143.979C156.258 143.979 158.145 144.939 159.445 146.861H159.621C159.352 145.396 159.217 144.09 159.217 142.941V136.648H164.596V164H160.482L159.445 161.451H159.217C157.998 163.385 156.141 164.352 153.645 164.352ZM155.525 160.08C156.896 160.08 157.898 159.682 158.531 158.885C159.176 158.088 159.527 156.734 159.586 154.824V154.244C159.586 152.135 159.258 150.623 158.602 149.709C157.957 148.795 156.902 148.338 155.438 148.338C154.242 148.338 153.311 148.848 152.643 149.867C151.986 150.875 151.658 152.346 151.658 154.279C151.658 156.213 151.992 157.666 152.66 158.639C153.328 159.6 154.283 160.08 155.525 160.08ZM169.975 139.268C169.975 137.521 170.947 136.648 172.893 136.648C174.838 136.648 175.811 137.521 175.811 139.268C175.811 140.1 175.564 140.75 175.072 141.219C174.592 141.676 173.865 141.904 172.893 141.904C170.947 141.904 169.975 141.025 169.975 139.268ZM175.564 164H170.203V144.348H175.564V164ZM189.486 160.08C190.424 160.08 191.549 159.875 192.861 159.465V163.455C191.525 164.053 189.885 164.352 187.939 164.352C185.795 164.352 184.23 163.812 183.246 162.734C182.273 161.645 181.787 160.016 181.787 157.848V148.373H179.221V146.105L182.174 144.312L183.721 140.164H187.148V144.348H192.65V148.373H187.148V157.848C187.148 158.609 187.359 159.172 187.781 159.535C188.215 159.898 188.783 160.08 189.486 160.08ZM201.123 154.139C201.123 156.084 201.439 157.555 202.072 158.551C202.717 159.547 203.76 160.045 205.201 160.045C206.631 160.045 207.656 159.553 208.277 158.568C208.91 157.572 209.227 156.096 209.227 154.139C209.227 152.193 208.91 150.734 208.277 149.762C207.645 148.789 206.607 148.303 205.166 148.303C203.736 148.303 202.705 148.789 202.072 149.762C201.439 150.723 201.123 152.182 201.123 154.139ZM214.711 154.139C214.711 157.338 213.867 159.84 212.18 161.645C210.492 163.449 208.143 164.352 205.131 164.352C203.244 164.352 201.58 163.941 200.139 163.121C198.697 162.289 197.59 161.1 196.816 159.553C196.043 158.006 195.656 156.201 195.656 154.139C195.656 150.928 196.494 148.432 198.17 146.65C199.846 144.869 202.201 143.979 205.236 143.979C207.123 143.979 208.787 144.389 210.229 145.209C211.67 146.029 212.777 147.207 213.551 148.742C214.324 150.277 214.711 152.076 214.711 154.139ZM230.109 143.979C230.836 143.979 231.439 144.031 231.92 144.137L231.516 149.164C231.082 149.047 230.555 148.988 229.934 148.988C228.223 148.988 226.887 149.428 225.926 150.307C224.977 151.186 224.502 152.416 224.502 153.998V164H219.141V144.348H223.201L223.992 147.652H224.256C224.865 146.551 225.686 145.666 226.717 144.998C227.76 144.318 228.891 143.979 230.109 143.979ZM249.199 158.164C249.199 160.18 248.496 161.715 247.09 162.77C245.695 163.824 243.604 164.352 240.814 164.352C239.385 164.352 238.166 164.252 237.158 164.053C236.15 163.865 235.207 163.584 234.328 163.209V158.779C235.324 159.248 236.443 159.641 237.686 159.957C238.939 160.273 240.041 160.432 240.99 160.432C242.936 160.432 243.908 159.869 243.908 158.744C243.908 158.322 243.779 157.982 243.521 157.725C243.264 157.455 242.818 157.156 242.186 156.828C241.553 156.488 240.709 156.096 239.654 155.65C238.143 155.018 237.029 154.432 236.314 153.893C235.611 153.354 235.096 152.738 234.768 152.047C234.451 151.344 234.293 150.482 234.293 149.463C234.293 147.717 234.967 146.369 236.314 145.42C237.674 144.459 239.596 143.979 242.08 143.979C244.447 143.979 246.75 144.494 248.988 145.525L247.371 149.393C246.387 148.971 245.467 148.625 244.611 148.355C243.756 148.086 242.883 147.951 241.992 147.951C240.41 147.951 239.619 148.379 239.619 149.234C239.619 149.715 239.871 150.131 240.375 150.482C240.891 150.834 242.01 151.355 243.732 152.047C245.268 152.668 246.393 153.248 247.107 153.787C247.822 154.326 248.35 154.947 248.689 155.65C249.029 156.354 249.199 157.191 249.199 158.164Z" fill="url(#paint1_linear)"/>
</g>
<defs>
<filter id="filter0_d" x="88.7715" y="41.375" width="199.32" height="130.977" filterUnits="userSpaceOnUse" color-interpolation-filters="sRGB">
<feFlood flood-opacity="0" result="BackgroundImageFix"/>
<feColorMatrix in="SourceAlpha" type="matrix" values="0 0 0 0 0 0 0 0 0 0 0 0 0 0 0 0 0 0 127 0"/>
<feOffset dy="4"/>
<feGaussianBlur stdDeviation="2"/>
<feColorMatrix type="matrix" values="0 0 0 0 0 0 0 0 0 0 0 0 0 0 0 0 0 0 0.25 0"/>
<feBlend mode="normal" in2="BackgroundImageFix" result="effect1_dropShadow"/>
<feBlend mode="normal" in="SourceGraphic" in2="effect1_dropShadow" result="shape"/>
</filter>
<linearGradient id="paint0_linear" x1="0" y1="-1" x2="303.683" y2="275.273" gradientUnits="userSpaceOnUse">
<stop stop-color="#19E7D7"/>
<stop offset="1" stop-color="#306CF5"/>
</linearGradient>
<linearGradient id="paint1_linear" x1="0" y1="109.5" x2="375" y2="109.5" gradientUnits="userSpaceOnUse">
<stop stop-color="#ECE9E6"/>
<stop offset="1" stop-color="white"/>
</linearGradient>
</defs>
</svg>
