<svg width="375" height="235" viewBox="0 0 375 235" fill="none" xmlns="http://www.w3.org/2000/svg">
<rect y="6" width="375" height="204" fill="url(#paint0_linear)"/>
<g filter="url(#filter0_d)">
<path d="M112.562 88.3438H130.688V112.031C127.75 112.99 124.979 113.656 122.375 114.031C119.792 114.427 117.146 114.625 114.438 114.625C107.542 114.625 102.271 112.604 98.625 108.562C95 104.5 93.1875 98.6771 93.1875 91.0938C93.1875 83.7188 95.2917 77.9688 99.5 73.8438C103.729 69.7188 109.583 67.6562 117.062 67.6562C121.75 67.6562 126.271 68.5938 130.625 70.4688L127.406 78.2188C124.073 76.5521 120.604 75.7188 117 75.7188C112.812 75.7188 109.458 77.125 106.938 79.9375C104.417 82.75 103.156 86.5312 103.156 91.2812C103.156 96.2396 104.167 100.031 106.188 102.656C108.229 105.26 111.188 106.562 115.062 106.562C117.083 106.562 119.135 106.354 121.219 105.938V96.4062H112.562V88.3438ZM160.344 78.4062C161.635 78.4062 162.708 78.5 163.562 78.6875L162.844 87.625C162.073 87.4167 161.135 87.3125 160.031 87.3125C156.99 87.3125 154.615 88.0938 152.906 89.6562C151.219 91.2188 150.375 93.4062 150.375 96.2188V114H140.844V79.0625H148.062L149.469 84.9375H149.938C151.021 82.9792 152.479 81.4062 154.312 80.2188C156.167 79.0104 158.177 78.4062 160.344 78.4062ZM191.469 114L189.625 109.25H189.375C187.771 111.271 186.115 112.677 184.406 113.469C182.719 114.24 180.51 114.625 177.781 114.625C174.427 114.625 171.781 113.667 169.844 111.75C167.927 109.833 166.969 107.104 166.969 103.562C166.969 99.8542 168.26 97.125 170.844 95.375C173.448 93.6042 177.365 92.625 182.594 92.4375L188.656 92.25V90.7188C188.656 87.1771 186.844 85.4062 183.219 85.4062C180.427 85.4062 177.146 86.25 173.375 87.9375L170.219 81.5C174.24 79.3958 178.698 78.3438 183.594 78.3438C188.281 78.3438 191.875 79.3646 194.375 81.4062C196.875 83.4479 198.125 86.5521 198.125 90.7188V114H191.469ZM188.656 97.8125L184.969 97.9375C182.198 98.0208 180.135 98.5208 178.781 99.4375C177.427 100.354 176.75 101.75 176.75 103.625C176.75 106.312 178.292 107.656 181.375 107.656C183.583 107.656 185.344 107.021 186.656 105.75C187.99 104.479 188.656 102.792 188.656 100.688V97.8125ZM227.156 114.625C223.052 114.625 219.833 113.135 217.5 110.156H217C217.333 113.073 217.5 114.76 217.5 115.219V129.375H207.969V79.0625H215.719L217.062 83.5938H217.5C219.729 80.1354 223.031 78.4062 227.406 78.4062C231.531 78.4062 234.76 80 237.094 83.1875C239.427 86.375 240.594 90.8021 240.594 96.4688C240.594 100.198 240.042 103.438 238.938 106.188C237.854 108.938 236.302 111.031 234.281 112.469C232.26 113.906 229.885 114.625 227.156 114.625ZM224.344 86.0312C221.99 86.0312 220.271 86.7604 219.188 88.2188C218.104 89.6562 217.542 92.0417 217.5 95.375V96.4062C217.5 100.156 218.052 102.844 219.156 104.469C220.281 106.094 222.052 106.906 224.469 106.906C228.74 106.906 230.875 103.385 230.875 96.3438C230.875 92.9062 230.344 90.3333 229.281 88.625C228.24 86.8958 226.594 86.0312 224.344 86.0312ZM280.719 114H271.188V93.5938C271.188 88.5521 269.312 86.0312 265.562 86.0312C262.896 86.0312 260.969 86.9375 259.781 88.75C258.594 90.5625 258 93.5 258 97.5625V114H248.469V65.375H258V75.2812C258 76.0521 257.927 77.8646 257.781 80.7188L257.562 83.5312H258.062C260.188 80.1146 263.562 78.4062 268.188 78.4062C272.292 78.4062 275.406 79.5104 277.531 81.7188C279.656 83.9271 280.719 87.0938 280.719 91.2188V114ZM142.465 158H127.664V132.301H142.465V136.766H133.113V142.408H141.814V146.873H133.113V153.5H142.465V158ZM153.645 158.352C151.336 158.352 149.52 157.455 148.195 155.662C146.883 153.869 146.227 151.385 146.227 148.209C146.227 144.986 146.895 142.479 148.23 140.686C149.578 138.881 151.43 137.979 153.785 137.979C156.258 137.979 158.145 138.939 159.445 140.861H159.621C159.352 139.396 159.217 138.09 159.217 136.941V130.648H164.596V158H160.482L159.445 155.451H159.217C157.998 157.385 156.141 158.352 153.645 158.352ZM155.525 154.08C156.896 154.08 157.898 153.682 158.531 152.885C159.176 152.088 159.527 150.734 159.586 148.824V148.244C159.586 146.135 159.258 144.623 158.602 143.709C157.957 142.795 156.902 142.338 155.438 142.338C154.242 142.338 153.311 142.848 152.643 143.867C151.986 144.875 151.658 146.346 151.658 148.279C151.658 150.213 151.992 151.666 152.66 152.639C153.328 153.6 154.283 154.08 155.525 154.08ZM169.975 133.268C169.975 131.521 170.947 130.648 172.893 130.648C174.838 130.648 175.811 131.521 175.811 133.268C175.811 134.1 175.564 134.75 175.072 135.219C174.592 135.676 173.865 135.904 172.893 135.904C170.947 135.904 169.975 135.025 169.975 133.268ZM175.564 158H170.203V138.348H175.564V158ZM189.486 154.08C190.424 154.08 191.549 153.875 192.861 153.465V157.455C191.525 158.053 189.885 158.352 187.939 158.352C185.795 158.352 184.23 157.812 183.246 156.734C182.273 155.645 181.787 154.016 181.787 151.848V142.373H179.221V140.105L182.174 138.312L183.721 134.164H187.148V138.348H192.65V142.373H187.148V151.848C187.148 152.609 187.359 153.172 187.781 153.535C188.215 153.898 188.783 154.08 189.486 154.08ZM201.123 148.139C201.123 150.084 201.439 151.555 202.072 152.551C202.717 153.547 203.76 154.045 205.201 154.045C206.631 154.045 207.656 153.553 208.277 152.568C208.91 151.572 209.227 150.096 209.227 148.139C209.227 146.193 208.91 144.734 208.277 143.762C207.645 142.789 206.607 142.303 205.166 142.303C203.736 142.303 202.705 142.789 202.072 143.762C201.439 144.723 201.123 146.182 201.123 148.139ZM214.711 148.139C214.711 151.338 213.867 153.84 212.18 155.645C210.492 157.449 208.143 158.352 205.131 158.352C203.244 158.352 201.58 157.941 200.139 157.121C198.697 156.289 197.59 155.1 196.816 153.553C196.043 152.006 195.656 150.201 195.656 148.139C195.656 144.928 196.494 142.432 198.17 140.65C199.846 138.869 202.201 137.979 205.236 137.979C207.123 137.979 208.787 138.389 210.229 139.209C211.67 140.029 212.777 141.207 213.551 142.742C214.324 144.277 214.711 146.076 214.711 148.139ZM230.109 137.979C230.836 137.979 231.439 138.031 231.92 138.137L231.516 143.164C231.082 143.047 230.555 142.988 229.934 142.988C228.223 142.988 226.887 143.428 225.926 144.307C224.977 145.186 224.502 146.416 224.502 147.998V158H219.141V138.348H223.201L223.992 141.652H224.256C224.865 140.551 225.686 139.666 226.717 138.998C227.76 138.318 228.891 137.979 230.109 137.979ZM249.199 152.164C249.199 154.18 248.496 155.715 247.09 156.77C245.695 157.824 243.604 158.352 240.814 158.352C239.385 158.352 238.166 158.252 237.158 158.053C236.15 157.865 235.207 157.584 234.328 157.209V152.779C235.324 153.248 236.443 153.641 237.686 153.957C238.939 154.273 240.041 154.432 240.99 154.432C242.936 154.432 243.908 153.869 243.908 152.744C243.908 152.322 243.779 151.982 243.521 151.725C243.264 151.455 242.818 151.156 242.186 150.828C241.553 150.488 240.709 150.096 239.654 149.65C238.143 149.018 237.029 148.432 236.314 147.893C235.611 147.354 235.096 146.738 234.768 146.047C234.451 145.344 234.293 144.482 234.293 143.463C234.293 141.717 234.967 140.369 236.314 139.42C237.674 138.459 239.596 137.979 242.08 137.979C244.447 137.979 246.75 138.494 248.988 139.525L247.371 143.393C246.387 142.971 245.467 142.625 244.611 142.355C243.756 142.086 242.883 141.951 241.992 141.951C240.41 141.951 239.619 142.379 239.619 143.234C239.619 143.715 239.871 144.131 240.375 144.482C240.891 144.834 242.01 145.355 243.732 146.047C245.268 146.668 246.393 147.248 247.107 147.787C247.822 148.326 248.35 148.947 248.689 149.65C249.029 150.354 249.199 151.191 249.199 152.164Z" fill="url(#paint1_linear)"/>
</g>
<path d="M247.749 18.1504H251.414C253.137 18.1504 254.379 18.4082 255.141 18.9238C255.908 19.4336 256.292 20.2363 256.292 21.332C256.292 22.0938 256.084 22.7236 255.668 23.2217C255.252 23.7139 254.646 24.0332 253.849 24.1797V24.2676C254.839 24.4375 255.565 24.7803 256.028 25.2959C256.497 25.8115 256.731 26.4941 256.731 27.3438C256.731 28.4922 256.339 29.3887 255.554 30.0332C254.769 30.6777 253.673 31 252.267 31H247.749V18.1504ZM249.366 23.6172H251.739C252.747 23.6172 253.479 23.4561 253.937 23.1338C254.394 22.8115 254.622 22.2725 254.622 21.5166C254.622 20.8135 254.37 20.3066 253.866 19.9961C253.368 19.6855 252.577 19.5303 251.493 19.5303H249.366V23.6172ZM249.366 24.9707V29.6289H251.959C252.99 29.6289 253.755 29.4297 254.253 29.0312C254.751 28.6328 255 28.0293 255 27.2207C255 26.4531 254.736 25.8877 254.209 25.5244C253.682 25.1553 252.891 24.9707 251.836 24.9707H249.366ZM267.34 31L265.793 27.0186H260.695L259.166 31H257.531L262.55 18.0977H264.009L269.019 31H267.34ZM265.31 25.5859L263.868 21.6924L263.253 19.7676C263.077 20.4707 262.893 21.1123 262.699 21.6924L261.24 25.5859H265.31ZM278.08 27.5635C278.08 28.6826 277.676 29.5645 276.867 30.209C276.059 30.8535 274.934 31.1758 273.492 31.1758C271.969 31.1758 270.791 30.9736 269.959 30.5693V29.0225C270.504 29.2568 271.099 29.4414 271.743 29.5762C272.394 29.7109 273 29.7783 273.562 29.7783C274.523 29.7783 275.247 29.5938 275.733 29.2246C276.22 28.8555 276.463 28.3486 276.463 27.7041C276.463 27.2764 276.375 26.9248 276.199 26.6494C276.023 26.374 275.728 26.1162 275.312 25.876C274.901 25.6357 274.277 25.3633 273.439 25.0586C272.25 24.625 271.4 24.1152 270.891 23.5293C270.381 22.9375 270.126 22.1758 270.126 21.2441C270.126 20.2422 270.501 19.4453 271.251 18.8535C272.007 18.2617 273 17.9658 274.23 17.9658C275.514 17.9658 276.694 18.2061 277.772 18.6865L277.271 20.0752C276.17 19.6182 275.145 19.3896 274.195 19.3896C273.434 19.3896 272.836 19.5537 272.402 19.8818C271.975 20.21 271.761 20.6699 271.761 21.2617C271.761 21.6836 271.843 22.0352 272.007 22.3164C272.177 22.5918 272.446 22.8438 272.815 23.0723C273.19 23.3008 273.776 23.5615 274.573 23.8545C275.528 24.2061 276.24 24.5488 276.709 24.8828C277.178 25.2109 277.523 25.5918 277.746 26.0254C277.969 26.4531 278.08 26.9658 278.08 27.5635ZM284.285 31H279.645V30.0684L281.156 29.7256V19.4424L279.645 19.082V18.1504H284.285V19.082L282.773 19.4424V29.7256L284.285 30.0684V31ZM292.274 19.3896C290.892 19.3896 289.805 19.8525 289.014 20.7783C288.223 21.7041 287.827 22.9697 287.827 24.5752C287.827 26.2334 288.211 27.5137 288.979 28.416C289.746 29.3125 290.839 29.7607 292.257 29.7607C293.171 29.7607 294.199 29.5908 295.342 29.251V30.6572C294.797 30.8564 294.272 30.9912 293.769 31.0615C293.265 31.1377 292.685 31.1758 292.028 31.1758C290.136 31.1758 288.677 30.6016 287.651 29.4531C286.632 28.2988 286.122 26.667 286.122 24.5576C286.122 23.2334 286.365 22.0732 286.852 21.0771C287.344 20.0811 288.056 19.3135 288.987 18.7744C289.925 18.2354 291.026 17.9658 292.292 17.9658C293.651 17.9658 294.835 18.2178 295.843 18.7217L295.192 20.0928C294.167 19.624 293.194 19.3896 292.274 19.3896Z" fill="url(#paint2_linear)"/>
<path d="M305.818 31H304.192V19.5742H300.176V18.1504H309.809V19.5742H305.818V31ZM322.808 24.5576C322.808 26.6143 322.286 28.2314 321.243 29.4092C320.206 30.5869 318.753 31.1758 316.884 31.1758C314.991 31.1758 313.526 30.5986 312.489 29.4443C311.458 28.2842 310.942 26.6494 310.942 24.54C310.942 22.4482 311.455 20.8281 312.48 19.6797C313.512 18.5254 314.985 17.9482 316.901 17.9482C318.765 17.9482 320.215 18.5342 321.252 19.7061C322.289 20.8721 322.808 22.4893 322.808 24.5576ZM312.647 24.5576C312.647 26.2568 313.008 27.5518 313.729 28.4424C314.449 29.333 315.501 29.7783 316.884 29.7783C318.261 29.7783 319.307 29.3389 320.021 28.46C320.736 27.5811 321.094 26.2803 321.094 24.5576C321.094 22.8408 320.739 21.5488 320.03 20.6816C319.321 19.8086 318.278 19.3721 316.901 19.3721C315.507 19.3721 314.449 19.8145 313.729 20.6992C313.008 21.5781 312.647 22.8643 312.647 24.5576ZM336.87 24.5576C336.87 26.6143 336.349 28.2314 335.306 29.4092C334.269 30.5869 332.815 31.1758 330.946 31.1758C329.054 31.1758 327.589 30.5986 326.552 29.4443C325.521 28.2842 325.005 26.6494 325.005 24.54C325.005 22.4482 325.518 20.8281 326.543 19.6797C327.574 18.5254 329.048 17.9482 330.964 17.9482C332.827 17.9482 334.277 18.5342 335.314 19.7061C336.352 20.8721 336.87 22.4893 336.87 24.5576ZM326.71 24.5576C326.71 26.2568 327.07 27.5518 327.791 28.4424C328.512 29.333 329.563 29.7783 330.946 29.7783C332.323 29.7783 333.369 29.3389 334.084 28.46C334.799 27.5811 335.156 26.2803 335.156 24.5576C335.156 22.8408 334.802 21.5488 334.093 20.6816C333.384 19.8086 332.341 19.3721 330.964 19.3721C329.569 19.3721 328.512 19.8145 327.791 20.6992C327.07 21.5781 326.71 22.8643 326.71 24.5576ZM339.718 31V18.1504H341.335V29.5586H346.951V31H339.718ZM356.443 27.5635C356.443 28.6826 356.039 29.5645 355.23 30.209C354.422 30.8535 353.297 31.1758 351.855 31.1758C350.332 31.1758 349.154 30.9736 348.322 30.5693V29.0225C348.867 29.2568 349.462 29.4414 350.106 29.5762C350.757 29.7109 351.363 29.7783 351.926 29.7783C352.887 29.7783 353.61 29.5938 354.097 29.2246C354.583 28.8555 354.826 28.3486 354.826 27.7041C354.826 27.2764 354.738 26.9248 354.562 26.6494C354.387 26.374 354.091 26.1162 353.675 25.876C353.265 25.6357 352.641 25.3633 351.803 25.0586C350.613 24.625 349.764 24.1152 349.254 23.5293C348.744 22.9375 348.489 22.1758 348.489 21.2441C348.489 20.2422 348.864 19.4453 349.614 18.8535C350.37 18.2617 351.363 17.9658 352.594 17.9658C353.877 17.9658 355.058 18.2061 356.136 18.6865L355.635 20.0752C354.533 19.6182 353.508 19.3896 352.559 19.3896C351.797 19.3896 351.199 19.5537 350.766 19.8818C350.338 20.21 350.124 20.6699 350.124 21.2617C350.124 21.6836 350.206 22.0352 350.37 22.3164C350.54 22.5918 350.81 22.8438 351.179 23.0723C351.554 23.3008 352.14 23.5615 352.937 23.8545C353.892 24.2061 354.604 24.5488 355.072 24.8828C355.541 25.2109 355.887 25.5918 356.109 26.0254C356.332 26.4531 356.443 26.9658 356.443 27.5635Z" fill="url(#paint3_linear)"/>
<defs>
<filter id="filter0_d" x="89.1875" y="65.375" width="195.531" height="100.977" filterUnits="userSpaceOnUse" color-interpolation-filters="sRGB">
<feFlood flood-opacity="0" result="BackgroundImageFix"/>
<feColorMatrix in="SourceAlpha" type="matrix" values="0 0 0 0 0 0 0 0 0 0 0 0 0 0 0 0 0 0 127 0"/>
<feOffset dy="4"/>
<feGaussianBlur stdDeviation="2"/>
<feColorMatrix type="matrix" values="0 0 0 0 0 0 0 0 0 0 0 0 0 0 0 0 0 0 0.25 0"/>
<feBlend mode="normal" in2="BackgroundImageFix" result="effect1_dropShadow"/>
<feBlend mode="normal" in="SourceGraphic" in2="effect1_dropShadow" result="shape"/>
</filter>
<linearGradient id="paint0_linear" x1="0" y1="108" x2="375" y2="108" gradientUnits="userSpaceOnUse">
<stop stop-color="#B24592"/>
<stop offset="1" stop-color="#F15F79"/>
</linearGradient>
<linearGradient id="paint1_linear" x1="0" y1="116.5" x2="375" y2="116.5" gradientUnits="userSpaceOnUse">
<stop stop-color="#ECE9E6"/>
<stop offset="1" stop-color="white"/>
</linearGradient>
<linearGradient id="paint2_linear" x1="246" y1="24" x2="297" y2="24" gradientUnits="userSpaceOnUse">
<stop stop-color="#ECE9E6"/>
<stop offset="1" stop-color="white"/>
</linearGradient>
<linearGradient id="paint3_linear" x1="300" y1="24" x2="358" y2="24" gradientUnits="userSpaceOnUse">
<stop stop-color="#ECE9E6"/>
<stop offset="1" stop-color="white"/>
</linearGradient>
</defs>
</svg>
