<svg width="375" height="221" viewBox="0 0 375 221" fill="none" xmlns="http://www.w3.org/2000/svg">
<rect width="375" height="204" fill="url(#paint0_linear)"/>
<g filter="url(#filter0_d)">
<path d="M124.969 112.094C124.969 119.656 123.094 125.469 119.344 129.531C115.594 133.594 110.219 135.625 103.219 135.625C96.2188 135.625 90.8438 133.594 87.0938 129.531C83.3438 125.469 81.4688 119.635 81.4688 112.031C81.4688 104.427 83.3438 98.625 87.0938 94.625C90.8646 90.6042 96.2604 88.5938 103.281 88.5938C110.302 88.5938 115.667 90.6146 119.375 94.6562C123.104 98.6979 124.969 104.51 124.969 112.094ZM91.625 112.094C91.625 117.198 92.5938 121.042 94.5312 123.625C96.4688 126.208 99.3646 127.5 103.219 127.5C110.948 127.5 114.812 122.365 114.812 112.094C114.812 101.802 110.969 96.6562 103.281 96.6562C99.4271 96.6562 96.5208 97.9583 94.5625 100.562C92.6042 103.146 91.625 106.99 91.625 112.094ZM148.406 128.031C150.073 128.031 152.073 127.667 154.406 126.938V134.031C152.031 135.094 149.115 135.625 145.656 135.625C141.844 135.625 139.062 134.667 137.312 132.75C135.583 130.812 134.719 127.917 134.719 124.062V107.219H130.156V103.188L135.406 100L138.156 92.625H144.25V100.062H154.031V107.219H144.25V124.062C144.25 125.417 144.625 126.417 145.375 127.062C146.146 127.708 147.156 128.031 148.406 128.031ZM193.75 135H184.219V114.594C184.219 109.552 182.344 107.031 178.594 107.031C175.927 107.031 174 107.938 172.812 109.75C171.625 111.562 171.031 114.5 171.031 118.562V135H161.5V86.375H171.031V96.2812C171.031 97.0521 170.958 98.8646 170.812 101.719L170.594 104.531H171.094C173.219 101.115 176.594 99.4062 181.219 99.4062C185.323 99.4062 188.438 100.51 190.562 102.719C192.688 104.927 193.75 108.094 193.75 112.219V135ZM218.031 106.188C216.01 106.188 214.427 106.833 213.281 108.125C212.135 109.396 211.479 111.208 211.312 113.562H224.688C224.646 111.208 224.031 109.396 222.844 108.125C221.656 106.833 220.052 106.188 218.031 106.188ZM219.375 135.625C213.75 135.625 209.354 134.073 206.188 130.969C203.021 127.865 201.438 123.469 201.438 117.781C201.438 111.927 202.896 107.406 205.812 104.219C208.75 101.01 212.802 99.4062 217.969 99.4062C222.906 99.4062 226.75 100.812 229.5 103.625C232.25 106.438 233.625 110.323 233.625 115.281V119.906H211.094C211.198 122.615 212 124.729 213.5 126.25C215 127.771 217.104 128.531 219.812 128.531C221.917 128.531 223.906 128.312 225.781 127.875C227.656 127.438 229.615 126.74 231.656 125.781V133.156C229.99 133.99 228.208 134.604 226.312 135C224.417 135.417 222.104 135.625 219.375 135.625ZM260.875 99.4062C262.167 99.4062 263.24 99.5 264.094 99.6875L263.375 108.625C262.604 108.417 261.667 108.312 260.562 108.312C257.521 108.312 255.146 109.094 253.438 110.656C251.75 112.219 250.906 114.406 250.906 117.219V135H241.375V100.062H248.594L250 105.938H250.469C251.552 103.979 253.01 102.406 254.844 101.219C256.698 100.01 258.708 99.4062 260.875 99.4062ZM294.812 124.625C294.812 128.208 293.562 130.938 291.062 132.812C288.583 134.688 284.865 135.625 279.906 135.625C277.365 135.625 275.198 135.448 273.406 135.094C271.615 134.76 269.938 134.26 268.375 133.594V125.719C270.146 126.552 272.135 127.25 274.344 127.812C276.573 128.375 278.531 128.656 280.219 128.656C283.677 128.656 285.406 127.656 285.406 125.656C285.406 124.906 285.177 124.302 284.719 123.844C284.26 123.365 283.469 122.833 282.344 122.25C281.219 121.646 279.719 120.948 277.844 120.156C275.156 119.031 273.177 117.99 271.906 117.031C270.656 116.073 269.74 114.979 269.156 113.75C268.594 112.5 268.312 110.969 268.312 109.156C268.312 106.052 269.51 103.656 271.906 101.969C274.323 100.26 277.74 99.4062 282.156 99.4062C286.365 99.4062 290.458 100.323 294.438 102.156L291.562 109.031C289.812 108.281 288.177 107.667 286.656 107.188C285.135 106.708 283.583 106.469 282 106.469C279.188 106.469 277.781 107.229 277.781 108.75C277.781 109.604 278.229 110.344 279.125 110.969C280.042 111.594 282.031 112.521 285.094 113.75C287.823 114.854 289.823 115.885 291.094 116.844C292.365 117.802 293.302 118.906 293.906 120.156C294.51 121.406 294.812 122.896 294.812 124.625Z" fill="url(#paint1_linear)"/>
</g>
<defs>
<filter id="filter0_d" x="77.4688" y="86.375" width="221.344" height="57.25" filterUnits="userSpaceOnUse" color-interpolation-filters="sRGB">
<feFlood flood-opacity="0" result="BackgroundImageFix"/>
<feColorMatrix in="SourceAlpha" type="matrix" values="0 0 0 0 0 0 0 0 0 0 0 0 0 0 0 0 0 0 127 0"/>
<feOffset dy="4"/>
<feGaussianBlur stdDeviation="2"/>
<feColorMatrix type="matrix" values="0 0 0 0 0 0 0 0 0 0 0 0 0 0 0 0 0 0 0.25 0"/>
<feBlend mode="normal" in2="BackgroundImageFix" result="effect1_dropShadow"/>
<feBlend mode="normal" in="SourceGraphic" in2="effect1_dropShadow" result="shape"/>
</filter>
<linearGradient id="paint0_linear" x1="0" y1="102" x2="375" y2="102" gradientUnits="userSpaceOnUse">
<stop stop-color="#000C40"/>
<stop offset="1" stop-color="#607D8B"/>
</linearGradient>
<linearGradient id="paint1_linear" x1="0" y1="110.5" x2="375" y2="110.5" gradientUnits="userSpaceOnUse">
<stop stop-color="#ECE9E6"/>
<stop offset="1" stop-color="white"/>
</linearGradient>
<linearGradient id="paint2_linear" x1="246" y1="24" x2="297" y2="24" gradientUnits="userSpaceOnUse">
<stop stop-color="#ECE9E6"/>
<stop offset="1" stop-color="white"/>
</linearGradient>
<linearGradient id="paint3_linear" x1="300" y1="24" x2="358" y2="24" gradientUnits="userSpaceOnUse">
<stop stop-color="#ECE9E6"/>
<stop offset="1" stop-color="white"/>
</linearGradient>
</defs>
</svg>
