<svg width="375" height="221" viewBox="0 0 375 221" fill="none" xmlns="http://www.w3.org/2000/svg">
<rect width="375" height="204" fill="url(#paint0_linear)"/>
<g filter="url(#filter0_d)">
<path d="M121.594 84.7188C121.594 92.2396 119.448 98 115.156 102C110.885 106 104.708 108 96.625 108H83.6875V62.3125H98.0312C105.49 62.3125 111.281 64.2812 115.406 68.2188C119.531 72.1562 121.594 77.6562 121.594 84.7188ZM111.531 84.9688C111.531 75.1562 107.198 70.25 98.5312 70.25H93.375V100H97.5312C106.865 100 111.531 94.9896 111.531 84.9688ZM144.781 79.1875C142.76 79.1875 141.177 79.8333 140.031 81.125C138.885 82.3958 138.229 84.2083 138.062 86.5625H151.438C151.396 84.2083 150.781 82.3958 149.594 81.125C148.406 79.8333 146.802 79.1875 144.781 79.1875ZM146.125 108.625C140.5 108.625 136.104 107.073 132.938 103.969C129.771 100.865 128.188 96.4688 128.188 90.7812C128.188 84.9271 129.646 80.4062 132.562 77.2188C135.5 74.0104 139.552 72.4062 144.719 72.4062C149.656 72.4062 153.5 73.8125 156.25 76.625C159 79.4375 160.375 83.3229 160.375 88.2812V92.9062H137.844C137.948 95.6146 138.75 97.7292 140.25 99.25C141.75 100.771 143.854 101.531 146.562 101.531C148.667 101.531 150.656 101.312 152.531 100.875C154.406 100.438 156.365 99.7396 158.406 98.7812V106.156C156.74 106.99 154.958 107.604 153.062 108C151.167 108.417 148.854 108.625 146.125 108.625ZM192.5 97.625C192.5 101.208 191.25 103.938 188.75 105.812C186.271 107.688 182.552 108.625 177.594 108.625C175.052 108.625 172.885 108.448 171.094 108.094C169.302 107.76 167.625 107.26 166.062 106.594V98.7188C167.833 99.5521 169.823 100.25 172.031 100.812C174.26 101.375 176.219 101.656 177.906 101.656C181.365 101.656 183.094 100.656 183.094 98.6562C183.094 97.9062 182.865 97.3021 182.406 96.8438C181.948 96.3646 181.156 95.8333 180.031 95.25C178.906 94.6458 177.406 93.9479 175.531 93.1562C172.844 92.0312 170.865 90.9896 169.594 90.0312C168.344 89.0729 167.427 87.9792 166.844 86.75C166.281 85.5 166 83.9688 166 82.1562C166 79.0521 167.198 76.6562 169.594 74.9688C172.01 73.2604 175.427 72.4062 179.844 72.4062C184.052 72.4062 188.146 73.3229 192.125 75.1562L189.25 82.0312C187.5 81.2812 185.865 80.6667 184.344 80.1875C182.823 79.7083 181.271 79.4688 179.688 79.4688C176.875 79.4688 175.469 80.2292 175.469 81.75C175.469 82.6042 175.917 83.3438 176.812 83.9688C177.729 84.5938 179.719 85.5208 182.781 86.75C185.51 87.8542 187.51 88.8854 188.781 89.8438C190.052 90.8021 190.99 91.9062 191.594 93.1562C192.198 94.4062 192.5 95.8958 192.5 97.625ZM199.531 64.0312C199.531 60.9271 201.26 59.375 204.719 59.375C208.177 59.375 209.906 60.9271 209.906 64.0312C209.906 65.5104 209.469 66.6667 208.594 67.5C207.74 68.3125 206.448 68.7188 204.719 68.7188C201.26 68.7188 199.531 67.1562 199.531 64.0312ZM209.469 108H199.938V73.0625H209.469V108ZM233.969 101.156C236.531 101.156 238.365 100.427 239.469 98.9688C240.573 97.4896 241.125 95.1042 241.125 91.8125V90.6562C241.125 86.9271 240.542 84.25 239.375 82.625C238.229 80.9792 236.375 80.1562 233.812 80.1562C229.333 80.1562 227.094 83.6771 227.094 90.7188C227.094 94.2188 227.646 96.8333 228.75 98.5625C229.875 100.292 231.615 101.156 233.969 101.156ZM250.031 108.062C250.031 113.083 248.562 116.885 245.625 119.469C242.708 122.073 238.354 123.375 232.562 123.375C227.458 123.375 223.104 122.688 219.5 121.312V113.688C223.729 115.479 228.271 116.375 233.125 116.375C238.021 116.375 240.469 113.729 240.469 108.438V107.75L240.75 103.469H240.469C238.24 106.906 234.938 108.625 230.562 108.625C226.375 108.625 223.125 107.01 220.812 103.781C218.521 100.552 217.375 96.1562 217.375 90.5938C217.375 84.8646 218.562 80.4062 220.938 77.2188C223.333 74.0104 226.625 72.4062 230.812 72.4062C235.104 72.4062 238.479 74.1146 240.938 77.5312H241.188L241.969 73.0625H250.031V108.062ZM292.25 108H282.719V87.5938C282.719 85.0729 282.271 83.1875 281.375 81.9375C280.479 80.6667 279.052 80.0312 277.094 80.0312C274.427 80.0312 272.5 80.9271 271.312 82.7188C270.125 84.4896 269.531 87.4375 269.531 91.5625V108H260V73.0625H267.281L268.562 77.5312H269.094C270.156 75.8438 271.615 74.5729 273.469 73.7188C275.344 72.8438 277.469 72.4062 279.844 72.4062C283.906 72.4062 286.99 73.5104 289.094 75.7188C291.198 77.9062 292.25 81.0729 292.25 85.2188V108ZM117.152 152H110.947L107.467 138.5C107.338 138.02 107.115 137.029 106.799 135.529C106.494 134.018 106.318 133.004 106.271 132.488C106.201 133.121 106.025 134.141 105.744 135.547C105.463 136.941 105.246 137.938 105.094 138.535L101.631 152H95.4434L88.8867 126.301H94.248L97.5352 140.328C98.1094 142.918 98.5254 145.162 98.7832 147.061C98.8535 146.393 99.0117 145.361 99.2578 143.967C99.5156 142.561 99.7559 141.471 99.9785 140.697L103.723 126.301H108.873L112.617 140.697C112.781 141.342 112.986 142.326 113.232 143.65C113.479 144.975 113.666 146.111 113.795 147.061C113.912 146.146 114.1 145.01 114.357 143.65C114.615 142.279 114.85 141.172 115.061 140.328L118.33 126.301H123.691L117.152 152ZM126.275 127.268C126.275 125.521 127.248 124.648 129.193 124.648C131.139 124.648 132.111 125.521 132.111 127.268C132.111 128.1 131.865 128.75 131.373 129.219C130.893 129.676 130.166 129.904 129.193 129.904C127.248 129.904 126.275 129.025 126.275 127.268ZM131.865 152H126.504V132.348H131.865V152ZM148.477 131.979C149.203 131.979 149.807 132.031 150.287 132.137L149.883 137.164C149.449 137.047 148.922 136.988 148.301 136.988C146.59 136.988 145.254 137.428 144.293 138.307C143.344 139.186 142.869 140.416 142.869 141.998V152H137.508V132.348H141.568L142.359 135.652H142.623C143.232 134.551 144.053 133.666 145.084 132.998C146.127 132.318 147.258 131.979 148.477 131.979ZM161.643 135.793C160.506 135.793 159.615 136.156 158.971 136.883C158.326 137.598 157.957 138.617 157.863 139.941H165.387C165.363 138.617 165.018 137.598 164.35 136.883C163.682 136.156 162.779 135.793 161.643 135.793ZM162.398 152.352C159.234 152.352 156.762 151.479 154.98 149.732C153.199 147.986 152.309 145.514 152.309 142.314C152.309 139.021 153.129 136.479 154.77 134.686C156.422 132.881 158.701 131.979 161.607 131.979C164.385 131.979 166.547 132.77 168.094 134.352C169.641 135.934 170.414 138.119 170.414 140.908V143.51H157.74C157.799 145.033 158.25 146.223 159.094 147.078C159.938 147.934 161.121 148.361 162.645 148.361C163.828 148.361 164.947 148.238 166.002 147.992C167.057 147.746 168.158 147.354 169.307 146.814V150.963C168.369 151.432 167.367 151.777 166.301 152C165.234 152.234 163.934 152.352 162.398 152.352ZM180.557 152H175.195V126.301H189.926V130.766H180.557V137.393H189.275V141.84H180.557V152ZM205.5 131.979C206.227 131.979 206.83 132.031 207.311 132.137L206.906 137.164C206.473 137.047 205.945 136.988 205.324 136.988C203.613 136.988 202.277 137.428 201.316 138.307C200.367 139.186 199.893 140.416 199.893 141.998V152H194.531V132.348H198.592L199.383 135.652H199.646C200.256 134.551 201.076 133.666 202.107 132.998C203.15 132.318 204.281 131.979 205.5 131.979ZM223.008 152L221.971 149.328H221.83C220.928 150.465 219.996 151.256 219.035 151.701C218.086 152.135 216.844 152.352 215.309 152.352C213.422 152.352 211.934 151.812 210.844 150.734C209.766 149.656 209.227 148.121 209.227 146.129C209.227 144.043 209.953 142.508 211.406 141.523C212.871 140.527 215.074 139.977 218.016 139.871L221.426 139.766V138.904C221.426 136.912 220.406 135.916 218.367 135.916C216.797 135.916 214.951 136.391 212.83 137.34L211.055 133.719C213.316 132.535 215.824 131.943 218.578 131.943C221.215 131.943 223.236 132.518 224.643 133.666C226.049 134.814 226.752 136.561 226.752 138.904V152H223.008ZM221.426 142.895L219.352 142.965C217.793 143.012 216.633 143.293 215.871 143.809C215.109 144.324 214.729 145.109 214.729 146.164C214.729 147.676 215.596 148.432 217.33 148.432C218.572 148.432 219.562 148.074 220.301 147.359C221.051 146.645 221.426 145.695 221.426 144.512V142.895ZM249.885 152H244.523V140.521C244.523 139.104 244.283 138.043 243.803 137.34C243.334 136.625 242.59 136.268 241.57 136.268C240.199 136.268 239.203 136.771 238.582 137.779C237.961 138.787 237.65 140.445 237.65 142.754V152H232.289V132.348H236.385L237.105 134.861H237.404C237.932 133.959 238.693 133.256 239.689 132.752C240.686 132.236 241.828 131.979 243.117 131.979C246.059 131.979 248.051 132.939 249.094 134.861H249.568C250.096 133.947 250.869 133.238 251.889 132.734C252.92 132.23 254.08 131.979 255.369 131.979C257.596 131.979 259.277 132.553 260.414 133.701C261.562 134.838 262.137 136.666 262.137 139.186V152H256.758V140.521C256.758 139.104 256.518 138.043 256.037 137.34C255.568 136.625 254.824 136.268 253.805 136.268C252.492 136.268 251.508 136.736 250.852 137.674C250.207 138.611 249.885 140.1 249.885 142.139V152ZM275.795 135.793C274.658 135.793 273.768 136.156 273.123 136.883C272.479 137.598 272.109 138.617 272.016 139.941H279.539C279.516 138.617 279.17 137.598 278.502 136.883C277.834 136.156 276.932 135.793 275.795 135.793ZM276.551 152.352C273.387 152.352 270.914 151.479 269.133 149.732C267.352 147.986 266.461 145.514 266.461 142.314C266.461 139.021 267.281 136.479 268.922 134.686C270.574 132.881 272.854 131.979 275.76 131.979C278.537 131.979 280.699 132.77 282.246 134.352C283.793 135.934 284.566 138.119 284.566 140.908V143.51H271.893C271.951 145.033 272.402 146.223 273.246 147.078C274.09 147.934 275.273 148.361 276.797 148.361C277.98 148.361 279.1 148.238 280.154 147.992C281.209 147.746 282.311 147.354 283.459 146.814V150.963C282.521 151.432 281.52 151.777 280.453 152C279.387 152.234 278.086 152.352 276.551 152.352Z" fill="url(#paint1_linear)"/>
</g>
<path d="M247.749 18.1504H251.414C253.137 18.1504 254.379 18.4082 255.141 18.9238C255.908 19.4336 256.292 20.2363 256.292 21.332C256.292 22.0938 256.084 22.7236 255.668 23.2217C255.252 23.7139 254.646 24.0332 253.849 24.1797V24.2676C254.839 24.4375 255.565 24.7803 256.028 25.2959C256.497 25.8115 256.731 26.4941 256.731 27.3438C256.731 28.4922 256.339 29.3887 255.554 30.0332C254.769 30.6777 253.673 31 252.267 31H247.749V18.1504ZM249.366 23.6172H251.739C252.747 23.6172 253.479 23.4561 253.937 23.1338C254.394 22.8115 254.622 22.2725 254.622 21.5166C254.622 20.8135 254.37 20.3066 253.866 19.9961C253.368 19.6855 252.577 19.5303 251.493 19.5303H249.366V23.6172ZM249.366 24.9707V29.6289H251.959C252.99 29.6289 253.755 29.4297 254.253 29.0312C254.751 28.6328 255 28.0293 255 27.2207C255 26.4531 254.736 25.8877 254.209 25.5244C253.682 25.1553 252.891 24.9707 251.836 24.9707H249.366ZM267.34 31L265.793 27.0186H260.695L259.166 31H257.531L262.55 18.0977H264.009L269.019 31H267.34ZM265.31 25.5859L263.868 21.6924L263.253 19.7676C263.077 20.4707 262.893 21.1123 262.699 21.6924L261.24 25.5859H265.31ZM278.08 27.5635C278.08 28.6826 277.676 29.5645 276.867 30.209C276.059 30.8535 274.934 31.1758 273.492 31.1758C271.969 31.1758 270.791 30.9736 269.959 30.5693V29.0225C270.504 29.2568 271.099 29.4414 271.743 29.5762C272.394 29.7109 273 29.7783 273.562 29.7783C274.523 29.7783 275.247 29.5938 275.733 29.2246C276.22 28.8555 276.463 28.3486 276.463 27.7041C276.463 27.2764 276.375 26.9248 276.199 26.6494C276.023 26.374 275.728 26.1162 275.312 25.876C274.901 25.6357 274.277 25.3633 273.439 25.0586C272.25 24.625 271.4 24.1152 270.891 23.5293C270.381 22.9375 270.126 22.1758 270.126 21.2441C270.126 20.2422 270.501 19.4453 271.251 18.8535C272.007 18.2617 273 17.9658 274.23 17.9658C275.514 17.9658 276.694 18.2061 277.772 18.6865L277.271 20.0752C276.17 19.6182 275.145 19.3896 274.195 19.3896C273.434 19.3896 272.836 19.5537 272.402 19.8818C271.975 20.21 271.761 20.6699 271.761 21.2617C271.761 21.6836 271.843 22.0352 272.007 22.3164C272.177 22.5918 272.446 22.8438 272.815 23.0723C273.19 23.3008 273.776 23.5615 274.573 23.8545C275.528 24.2061 276.24 24.5488 276.709 24.8828C277.178 25.2109 277.523 25.5918 277.746 26.0254C277.969 26.4531 278.08 26.9658 278.08 27.5635ZM284.285 31H279.645V30.0684L281.156 29.7256V19.4424L279.645 19.082V18.1504H284.285V19.082L282.773 19.4424V29.7256L284.285 30.0684V31ZM292.274 19.3896C290.892 19.3896 289.805 19.8525 289.014 20.7783C288.223 21.7041 287.827 22.9697 287.827 24.5752C287.827 26.2334 288.211 27.5137 288.979 28.416C289.746 29.3125 290.839 29.7607 292.257 29.7607C293.171 29.7607 294.199 29.5908 295.342 29.251V30.6572C294.797 30.8564 294.272 30.9912 293.769 31.0615C293.265 31.1377 292.685 31.1758 292.028 31.1758C290.136 31.1758 288.677 30.6016 287.651 29.4531C286.632 28.2988 286.122 26.667 286.122 24.5576C286.122 23.2334 286.365 22.0732 286.852 21.0771C287.344 20.0811 288.056 19.3135 288.987 18.7744C289.925 18.2354 291.026 17.9658 292.292 17.9658C293.651 17.9658 294.835 18.2178 295.843 18.7217L295.192 20.0928C294.167 19.624 293.194 19.3896 292.274 19.3896Z" fill="url(#paint2_linear)"/>
<path d="M305.818 31H304.192V19.5742H300.176V18.1504H309.809V19.5742H305.818V31ZM322.808 24.5576C322.808 26.6143 322.286 28.2314 321.243 29.4092C320.206 30.5869 318.753 31.1758 316.884 31.1758C314.991 31.1758 313.526 30.5986 312.489 29.4443C311.458 28.2842 310.942 26.6494 310.942 24.54C310.942 22.4482 311.455 20.8281 312.48 19.6797C313.512 18.5254 314.985 17.9482 316.901 17.9482C318.765 17.9482 320.215 18.5342 321.252 19.7061C322.289 20.8721 322.808 22.4893 322.808 24.5576ZM312.647 24.5576C312.647 26.2568 313.008 27.5518 313.729 28.4424C314.449 29.333 315.501 29.7783 316.884 29.7783C318.261 29.7783 319.307 29.3389 320.021 28.46C320.736 27.5811 321.094 26.2803 321.094 24.5576C321.094 22.8408 320.739 21.5488 320.03 20.6816C319.321 19.8086 318.278 19.3721 316.901 19.3721C315.507 19.3721 314.449 19.8145 313.729 20.6992C313.008 21.5781 312.647 22.8643 312.647 24.5576ZM336.87 24.5576C336.87 26.6143 336.349 28.2314 335.306 29.4092C334.269 30.5869 332.815 31.1758 330.946 31.1758C329.054 31.1758 327.589 30.5986 326.552 29.4443C325.521 28.2842 325.005 26.6494 325.005 24.54C325.005 22.4482 325.518 20.8281 326.543 19.6797C327.574 18.5254 329.048 17.9482 330.964 17.9482C332.827 17.9482 334.277 18.5342 335.314 19.7061C336.352 20.8721 336.87 22.4893 336.87 24.5576ZM326.71 24.5576C326.71 26.2568 327.07 27.5518 327.791 28.4424C328.512 29.333 329.563 29.7783 330.946 29.7783C332.323 29.7783 333.369 29.3389 334.084 28.46C334.799 27.5811 335.156 26.2803 335.156 24.5576C335.156 22.8408 334.802 21.5488 334.093 20.6816C333.384 19.8086 332.341 19.3721 330.964 19.3721C329.569 19.3721 328.512 19.8145 327.791 20.6992C327.07 21.5781 326.71 22.8643 326.71 24.5576ZM339.718 31V18.1504H341.335V29.5586H346.951V31H339.718ZM356.443 27.5635C356.443 28.6826 356.039 29.5645 355.23 30.209C354.422 30.8535 353.297 31.1758 351.855 31.1758C350.332 31.1758 349.154 30.9736 348.322 30.5693V29.0225C348.867 29.2568 349.462 29.4414 350.106 29.5762C350.757 29.7109 351.363 29.7783 351.926 29.7783C352.887 29.7783 353.61 29.5938 354.097 29.2246C354.583 28.8555 354.826 28.3486 354.826 27.7041C354.826 27.2764 354.738 26.9248 354.562 26.6494C354.387 26.374 354.091 26.1162 353.675 25.876C353.265 25.6357 352.641 25.3633 351.803 25.0586C350.613 24.625 349.764 24.1152 349.254 23.5293C348.744 22.9375 348.489 22.1758 348.489 21.2441C348.489 20.2422 348.864 19.4453 349.614 18.8535C350.37 18.2617 351.363 17.9658 352.594 17.9658C353.877 17.9658 355.058 18.2061 356.136 18.6865L355.635 20.0752C354.533 19.6182 353.508 19.3896 352.559 19.3896C351.797 19.3896 351.199 19.5537 350.766 19.8818C350.338 20.21 350.124 20.6699 350.124 21.2617C350.124 21.6836 350.206 22.0352 350.37 22.3164C350.54 22.5918 350.81 22.8438 351.179 23.0723C351.554 23.3008 352.14 23.5615 352.937 23.8545C353.892 24.2061 354.604 24.5488 355.072 24.8828C355.541 25.2109 355.887 25.5918 356.109 26.0254C356.332 26.4531 356.443 26.9658 356.443 27.5635Z" fill="url(#paint3_linear)"/>
<defs>
<filter id="filter0_d" x="79.6875" y="59.375" width="216.562" height="100.977" filterUnits="userSpaceOnUse" color-interpolation-filters="sRGB">
<feFlood flood-opacity="0" result="BackgroundImageFix"/>
<feColorMatrix in="SourceAlpha" type="matrix" values="0 0 0 0 0 0 0 0 0 0 0 0 0 0 0 0 0 0 127 0"/>
<feOffset dy="4"/>
<feGaussianBlur stdDeviation="2"/>
<feColorMatrix type="matrix" values="0 0 0 0 0 0 0 0 0 0 0 0 0 0 0 0 0 0 0.25 0"/>
<feBlend mode="normal" in2="BackgroundImageFix" result="effect1_dropShadow"/>
<feBlend mode="normal" in="SourceGraphic" in2="effect1_dropShadow" result="shape"/>
</filter>
<linearGradient id="paint0_linear" x1="0" y1="102" x2="375" y2="102" gradientUnits="userSpaceOnUse">
<stop stop-color="#4CB8C4"/>
<stop offset="1" stop-color="#3CD3AD"/>
</linearGradient>
<linearGradient id="paint1_linear" x1="0" y1="110.5" x2="375" y2="110.5" gradientUnits="userSpaceOnUse">
<stop stop-color="#ECE9E6"/>
<stop offset="1" stop-color="white"/>
</linearGradient>
<linearGradient id="paint2_linear" x1="246" y1="24" x2="297" y2="24" gradientUnits="userSpaceOnUse">
<stop stop-color="#ECE9E6"/>
<stop offset="1" stop-color="white"/>
</linearGradient>
<linearGradient id="paint3_linear" x1="300" y1="24" x2="358" y2="24" gradientUnits="userSpaceOnUse">
<stop stop-color="#ECE9E6"/>
<stop offset="1" stop-color="white"/>
</linearGradient>
</defs>
</svg>
