<svg width="375" height="220" viewBox="0 0 375 220" fill="none" xmlns="http://www.w3.org/2000/svg">
<rect y="-1" width="375" height="204" fill="url(#paint0_linear)"/>
<g filter="url(#filter0_d)">
<path d="M50.6699 110V72.8789H58.541V103.5H73.5977V110H50.6699ZM97.4902 110L95.9922 106.141H95.7891C94.4857 107.783 93.14 108.925 91.752 109.568C90.3809 110.195 88.5866 110.508 86.3691 110.508C83.6439 110.508 81.4941 109.729 79.9199 108.172C78.3626 106.615 77.584 104.397 77.584 101.52C77.584 98.5065 78.6335 96.2891 80.7324 94.8672C82.8483 93.4284 86.0306 92.6328 90.2793 92.4805L95.2051 92.3281V91.084C95.2051 88.2064 93.7324 86.7676 90.7871 86.7676C88.5189 86.7676 85.8529 87.4531 82.7891 88.8242L80.2246 83.5938C83.4915 81.8841 87.1139 81.0293 91.0918 81.0293C94.9004 81.0293 97.8203 81.8587 99.8516 83.5176C101.883 85.1764 102.898 87.6986 102.898 91.084V110H97.4902ZM95.2051 96.8477L92.209 96.9492C89.9577 97.0169 88.2819 97.4232 87.1816 98.168C86.0814 98.9128 85.5312 100.047 85.5312 101.57C85.5312 103.754 86.7839 104.846 89.2891 104.846C91.0833 104.846 92.5137 104.329 93.5801 103.297C94.6634 102.264 95.2051 100.893 95.2051 99.1836V96.8477ZM137.1 110H129.355V93.4199C129.355 91.3717 128.992 89.8398 128.264 88.8242C127.536 87.7917 126.376 87.2754 124.785 87.2754C122.618 87.2754 121.053 88.0033 120.088 89.459C119.123 90.8978 118.641 93.293 118.641 96.6445V110H110.896V81.6133H116.812L117.854 85.2441H118.285C119.148 83.873 120.333 82.8405 121.84 82.1465C123.363 81.4355 125.09 81.0801 127.02 81.0801C130.32 81.0801 132.826 81.9772 134.535 83.7715C136.245 85.5488 137.1 88.1217 137.1 91.4902V110ZM156.828 104.439C158.91 104.439 160.4 103.847 161.297 102.662C162.194 101.46 162.643 99.5221 162.643 96.8477V95.9082C162.643 92.8783 162.169 90.7031 161.221 89.3828C160.29 88.0456 158.783 87.377 156.701 87.377C153.062 87.377 151.242 90.2376 151.242 95.959C151.242 98.8027 151.691 100.927 152.588 102.332C153.502 103.737 154.915 104.439 156.828 104.439ZM169.879 110.051C169.879 114.13 168.686 117.219 166.299 119.318C163.929 121.434 160.391 122.492 155.686 122.492C151.538 122.492 148.001 121.934 145.072 120.816V114.621C148.508 116.077 152.199 116.805 156.143 116.805C160.12 116.805 162.109 114.655 162.109 110.355V109.797L162.338 106.318H162.109C160.298 109.111 157.615 110.508 154.061 110.508C150.658 110.508 148.018 109.196 146.139 106.572C144.277 103.949 143.346 100.377 143.346 95.8574C143.346 91.2025 144.311 87.5801 146.24 84.9902C148.187 82.3835 150.861 81.0801 154.264 81.0801C157.751 81.0801 160.493 82.4681 162.49 85.2441H162.693L163.328 81.6133H169.879V110.051ZM198.088 110L197.047 106.369H196.641C195.811 107.689 194.635 108.714 193.111 109.441C191.588 110.152 189.853 110.508 187.906 110.508C184.572 110.508 182.058 109.619 180.365 107.842C178.673 106.048 177.826 103.475 177.826 100.123V81.6133H185.57V98.1934C185.57 100.242 185.934 101.782 186.662 102.814C187.39 103.83 188.549 104.338 190.141 104.338C192.307 104.338 193.873 103.618 194.838 102.18C195.803 100.724 196.285 98.3203 196.285 94.9688V81.6133H204.029V110H198.088ZM230.182 110L228.684 106.141H228.48C227.177 107.783 225.831 108.925 224.443 109.568C223.072 110.195 221.278 110.508 219.061 110.508C216.335 110.508 214.186 109.729 212.611 108.172C211.054 106.615 210.275 104.397 210.275 101.52C210.275 98.5065 211.325 96.2891 213.424 94.8672C215.54 93.4284 218.722 92.6328 222.971 92.4805L227.896 92.3281V91.084C227.896 88.2064 226.424 86.7676 223.479 86.7676C221.21 86.7676 218.544 87.4531 215.48 88.8242L212.916 83.5938C216.183 81.8841 219.805 81.0293 223.783 81.0293C227.592 81.0293 230.512 81.8587 232.543 83.5176C234.574 85.1764 235.59 87.6986 235.59 91.084V110H230.182ZM227.896 96.8477L224.9 96.9492C222.649 97.0169 220.973 97.4232 219.873 98.168C218.773 98.9128 218.223 100.047 218.223 101.57C218.223 103.754 219.475 104.846 221.98 104.846C223.775 104.846 225.205 104.329 226.271 103.297C227.355 102.264 227.896 100.893 227.896 99.1836V96.8477ZM255.344 104.439C257.426 104.439 258.915 103.847 259.812 102.662C260.71 101.46 261.158 99.5221 261.158 96.8477V95.9082C261.158 92.8783 260.684 90.7031 259.736 89.3828C258.805 88.0456 257.299 87.377 255.217 87.377C251.577 87.377 249.758 90.2376 249.758 95.959C249.758 98.8027 250.206 100.927 251.104 102.332C252.018 103.737 253.431 104.439 255.344 104.439ZM268.395 110.051C268.395 114.13 267.201 117.219 264.814 119.318C262.445 121.434 258.907 122.492 254.201 122.492C250.054 122.492 246.516 121.934 243.588 120.816V114.621C247.024 116.077 250.714 116.805 254.658 116.805C258.636 116.805 260.625 114.655 260.625 110.355V109.797L260.854 106.318H260.625C258.814 109.111 256.131 110.508 252.576 110.508C249.174 110.508 246.533 109.196 244.654 106.572C242.792 103.949 241.861 100.377 241.861 95.8574C241.861 91.2025 242.826 87.5801 244.756 84.9902C246.702 82.3835 249.377 81.0801 252.779 81.0801C256.266 81.0801 259.008 82.4681 261.006 85.2441H261.209L261.844 81.6133H268.395V110.051ZM288.25 86.5898C286.608 86.5898 285.322 87.1146 284.391 88.1641C283.46 89.1966 282.926 90.6693 282.791 92.582H293.658C293.624 90.6693 293.125 89.1966 292.16 88.1641C291.195 87.1146 289.892 86.5898 288.25 86.5898ZM289.342 110.508C284.771 110.508 281.2 109.247 278.627 106.725C276.054 104.202 274.768 100.631 274.768 96.0098C274.768 91.2533 275.952 87.5801 278.322 84.9902C280.709 82.3835 284.001 81.0801 288.199 81.0801C292.211 81.0801 295.334 82.2227 297.568 84.5078C299.803 86.793 300.92 89.9499 300.92 93.9785V97.7363H282.613C282.698 99.9368 283.35 101.655 284.568 102.891C285.787 104.126 287.497 104.744 289.697 104.744C291.407 104.744 293.023 104.566 294.547 104.211C296.07 103.855 297.661 103.288 299.32 102.51V108.502C297.966 109.179 296.519 109.678 294.979 110C293.438 110.339 291.559 110.508 289.342 110.508ZM327.021 101.57C327.021 104.482 326.006 106.699 323.975 108.223C321.96 109.746 318.939 110.508 314.91 110.508C312.845 110.508 311.085 110.364 309.629 110.076C308.173 109.805 306.811 109.399 305.541 108.857V102.459C306.98 103.136 308.596 103.703 310.391 104.16C312.202 104.617 313.793 104.846 315.164 104.846C317.974 104.846 319.379 104.033 319.379 102.408C319.379 101.799 319.193 101.308 318.82 100.936C318.448 100.546 317.805 100.115 316.891 99.6406C315.977 99.1497 314.758 98.5827 313.234 97.9395C311.051 97.0254 309.443 96.179 308.41 95.4004C307.395 94.6217 306.65 93.7331 306.176 92.7344C305.719 91.7188 305.49 90.4746 305.49 89.002C305.49 86.4798 306.464 84.5332 308.41 83.1621C310.374 81.7741 313.15 81.0801 316.738 81.0801C320.158 81.0801 323.484 81.8249 326.717 83.3145L324.381 88.9004C322.959 88.291 321.63 87.7917 320.395 87.4023C319.159 87.013 317.898 86.8184 316.611 86.8184C314.326 86.8184 313.184 87.4362 313.184 88.6719C313.184 89.3659 313.548 89.9668 314.275 90.4746C315.02 90.9824 316.637 91.7357 319.125 92.7344C321.342 93.6315 322.967 94.4694 324 95.248C325.033 96.0267 325.794 96.9238 326.285 97.9395C326.776 98.9551 327.021 100.165 327.021 101.57Z" fill="url(#paint1_linear)"/>
</g>
<defs>
<filter id="filter0_d" x="46.6699" y="72.8789" width="284.352" height="57.6133" filterUnits="userSpaceOnUse" color-interpolation-filters="sRGB">
<feFlood flood-opacity="0" result="BackgroundImageFix"/>
<feColorMatrix in="SourceAlpha" type="matrix" values="0 0 0 0 0 0 0 0 0 0 0 0 0 0 0 0 0 0 127 0"/>
<feOffset dy="4"/>
<feGaussianBlur stdDeviation="2"/>
<feColorMatrix type="matrix" values="0 0 0 0 0 0 0 0 0 0 0 0 0 0 0 0 0 0 0.25 0"/>
<feBlend mode="normal" in2="BackgroundImageFix" result="effect1_dropShadow"/>
<feBlend mode="normal" in="SourceGraphic" in2="effect1_dropShadow" result="shape"/>
</filter>
<linearGradient id="paint0_linear" x1="0" y1="101" x2="375" y2="101" gradientUnits="userSpaceOnUse">
<stop stop-color="#FF8008"/>
<stop offset="1" stop-color="#FFC837"/>
</linearGradient>
<linearGradient id="paint1_linear" x1="0" y1="109.5" x2="375" y2="109.5" gradientUnits="userSpaceOnUse">
<stop stop-color="#ECE9E6"/>
<stop offset="1" stop-color="white"/>
</linearGradient>
</defs>
</svg>
