<svg width="375" height="221" viewBox="0 0 375 221" fill="none" xmlns="http://www.w3.org/2000/svg">
<rect width="375" height="204" fill="url(#paint0_linear)"/>
<g filter="url(#filter0_d)">
<path d="M112.562 82.3438H130.688V106.031C127.75 106.99 124.979 107.656 122.375 108.031C119.792 108.427 117.146 108.625 114.438 108.625C107.542 108.625 102.271 106.604 98.625 102.562C95 98.5 93.1875 92.6771 93.1875 85.0938C93.1875 77.7188 95.2917 71.9688 99.5 67.8438C103.729 63.7188 109.583 61.6562 117.062 61.6562C121.75 61.6562 126.271 62.5938 130.625 64.4688L127.406 72.2188C124.073 70.5521 120.604 69.7188 117 69.7188C112.812 69.7188 109.458 71.125 106.938 73.9375C104.417 76.75 103.156 80.5312 103.156 85.2812C103.156 90.2396 104.167 94.0312 106.188 96.6562C108.229 99.2604 111.188 100.562 115.062 100.562C117.083 100.562 119.135 100.354 121.219 99.9375V90.4062H112.562V82.3438ZM160.344 72.4062C161.635 72.4062 162.708 72.5 163.562 72.6875L162.844 81.625C162.073 81.4167 161.135 81.3125 160.031 81.3125C156.99 81.3125 154.615 82.0938 152.906 83.6562C151.219 85.2188 150.375 87.4062 150.375 90.2188V108H140.844V73.0625H148.062L149.469 78.9375H149.938C151.021 76.9792 152.479 75.4062 154.312 74.2188C156.167 73.0104 158.177 72.4062 160.344 72.4062ZM191.469 108L189.625 103.25H189.375C187.771 105.271 186.115 106.677 184.406 107.469C182.719 108.24 180.51 108.625 177.781 108.625C174.427 108.625 171.781 107.667 169.844 105.75C167.927 103.833 166.969 101.104 166.969 97.5625C166.969 93.8542 168.26 91.125 170.844 89.375C173.448 87.6042 177.365 86.625 182.594 86.4375L188.656 86.25V84.7188C188.656 81.1771 186.844 79.4062 183.219 79.4062C180.427 79.4062 177.146 80.25 173.375 81.9375L170.219 75.5C174.24 73.3958 178.698 72.3438 183.594 72.3438C188.281 72.3438 191.875 73.3646 194.375 75.4062C196.875 77.4479 198.125 80.5521 198.125 84.7188V108H191.469ZM188.656 91.8125L184.969 91.9375C182.198 92.0208 180.135 92.5208 178.781 93.4375C177.427 94.3542 176.75 95.75 176.75 97.625C176.75 100.312 178.292 101.656 181.375 101.656C183.583 101.656 185.344 101.021 186.656 99.75C187.99 98.4792 188.656 96.7917 188.656 94.6875V91.8125ZM227.156 108.625C223.052 108.625 219.833 107.135 217.5 104.156H217C217.333 107.073 217.5 108.76 217.5 109.219V123.375H207.969V73.0625H215.719L217.062 77.5938H217.5C219.729 74.1354 223.031 72.4062 227.406 72.4062C231.531 72.4062 234.76 74 237.094 77.1875C239.427 80.375 240.594 84.8021 240.594 90.4688C240.594 94.1979 240.042 97.4375 238.938 100.188C237.854 102.938 236.302 105.031 234.281 106.469C232.26 107.906 229.885 108.625 227.156 108.625ZM224.344 80.0312C221.99 80.0312 220.271 80.7604 219.188 82.2188C218.104 83.6562 217.542 86.0417 217.5 89.375V90.4062C217.5 94.1562 218.052 96.8438 219.156 98.4688C220.281 100.094 222.052 100.906 224.469 100.906C228.74 100.906 230.875 97.3854 230.875 90.3438C230.875 86.9062 230.344 84.3333 229.281 82.625C228.24 80.8958 226.594 80.0312 224.344 80.0312ZM280.719 108H271.188V87.5938C271.188 82.5521 269.312 80.0312 265.562 80.0312C262.896 80.0312 260.969 80.9375 259.781 82.75C258.594 84.5625 258 87.5 258 91.5625V108H248.469V59.375H258V69.2812C258 70.0521 257.927 71.8646 257.781 74.7188L257.562 77.5312H258.062C260.188 74.1146 263.562 72.4062 268.188 72.4062C272.292 72.4062 275.406 73.5104 277.531 75.7188C279.656 77.9271 280.719 81.0938 280.719 85.2188V108ZM142.465 152H127.664V126.301H142.465V130.766H133.113V136.408H141.814V140.873H133.113V147.5H142.465V152ZM153.645 152.352C151.336 152.352 149.52 151.455 148.195 149.662C146.883 147.869 146.227 145.385 146.227 142.209C146.227 138.986 146.895 136.479 148.23 134.686C149.578 132.881 151.43 131.979 153.785 131.979C156.258 131.979 158.145 132.939 159.445 134.861H159.621C159.352 133.396 159.217 132.09 159.217 130.941V124.648H164.596V152H160.482L159.445 149.451H159.217C157.998 151.385 156.141 152.352 153.645 152.352ZM155.525 148.08C156.896 148.08 157.898 147.682 158.531 146.885C159.176 146.088 159.527 144.734 159.586 142.824V142.244C159.586 140.135 159.258 138.623 158.602 137.709C157.957 136.795 156.902 136.338 155.438 136.338C154.242 136.338 153.311 136.848 152.643 137.867C151.986 138.875 151.658 140.346 151.658 142.279C151.658 144.213 151.992 145.666 152.66 146.639C153.328 147.6 154.283 148.08 155.525 148.08ZM169.975 127.268C169.975 125.521 170.947 124.648 172.893 124.648C174.838 124.648 175.811 125.521 175.811 127.268C175.811 128.1 175.564 128.75 175.072 129.219C174.592 129.676 173.865 129.904 172.893 129.904C170.947 129.904 169.975 129.025 169.975 127.268ZM175.564 152H170.203V132.348H175.564V152ZM189.486 148.08C190.424 148.08 191.549 147.875 192.861 147.465V151.455C191.525 152.053 189.885 152.352 187.939 152.352C185.795 152.352 184.23 151.812 183.246 150.734C182.273 149.645 181.787 148.016 181.787 145.848V136.373H179.221V134.105L182.174 132.312L183.721 128.164H187.148V132.348H192.65V136.373H187.148V145.848C187.148 146.609 187.359 147.172 187.781 147.535C188.215 147.898 188.783 148.08 189.486 148.08ZM201.123 142.139C201.123 144.084 201.439 145.555 202.072 146.551C202.717 147.547 203.76 148.045 205.201 148.045C206.631 148.045 207.656 147.553 208.277 146.568C208.91 145.572 209.227 144.096 209.227 142.139C209.227 140.193 208.91 138.734 208.277 137.762C207.645 136.789 206.607 136.303 205.166 136.303C203.736 136.303 202.705 136.789 202.072 137.762C201.439 138.723 201.123 140.182 201.123 142.139ZM214.711 142.139C214.711 145.338 213.867 147.84 212.18 149.645C210.492 151.449 208.143 152.352 205.131 152.352C203.244 152.352 201.58 151.941 200.139 151.121C198.697 150.289 197.59 149.1 196.816 147.553C196.043 146.006 195.656 144.201 195.656 142.139C195.656 138.928 196.494 136.432 198.17 134.65C199.846 132.869 202.201 131.979 205.236 131.979C207.123 131.979 208.787 132.389 210.229 133.209C211.67 134.029 212.777 135.207 213.551 136.742C214.324 138.277 214.711 140.076 214.711 142.139ZM230.109 131.979C230.836 131.979 231.439 132.031 231.92 132.137L231.516 137.164C231.082 137.047 230.555 136.988 229.934 136.988C228.223 136.988 226.887 137.428 225.926 138.307C224.977 139.186 224.502 140.416 224.502 141.998V152H219.141V132.348H223.201L223.992 135.652H224.256C224.865 134.551 225.686 133.666 226.717 132.998C227.76 132.318 228.891 131.979 230.109 131.979ZM249.199 146.164C249.199 148.18 248.496 149.715 247.09 150.77C245.695 151.824 243.604 152.352 240.814 152.352C239.385 152.352 238.166 152.252 237.158 152.053C236.15 151.865 235.207 151.584 234.328 151.209V146.779C235.324 147.248 236.443 147.641 237.686 147.957C238.939 148.273 240.041 148.432 240.99 148.432C242.936 148.432 243.908 147.869 243.908 146.744C243.908 146.322 243.779 145.982 243.521 145.725C243.264 145.455 242.818 145.156 242.186 144.828C241.553 144.488 240.709 144.096 239.654 143.65C238.143 143.018 237.029 142.432 236.314 141.893C235.611 141.354 235.096 140.738 234.768 140.047C234.451 139.344 234.293 138.482 234.293 137.463C234.293 135.717 234.967 134.369 236.314 133.42C237.674 132.459 239.596 131.979 242.08 131.979C244.447 131.979 246.75 132.494 248.988 133.525L247.371 137.393C246.387 136.971 245.467 136.625 244.611 136.355C243.756 136.086 242.883 135.951 241.992 135.951C240.41 135.951 239.619 136.379 239.619 137.234C239.619 137.715 239.871 138.131 240.375 138.482C240.891 138.834 242.01 139.355 243.732 140.047C245.268 140.668 246.393 141.248 247.107 141.787C247.822 142.326 248.35 142.947 248.689 143.65C249.029 144.354 249.199 145.191 249.199 146.164Z" fill="url(#paint1_linear)"/>
</g>
<defs>
<filter id="filter0_d" x="89.1875" y="59.375" width="195.531" height="100.977" filterUnits="userSpaceOnUse" color-interpolation-filters="sRGB">
<feFlood flood-opacity="0" result="BackgroundImageFix"/>
<feColorMatrix in="SourceAlpha" type="matrix" values="0 0 0 0 0 0 0 0 0 0 0 0 0 0 0 0 0 0 127 0"/>
<feOffset dy="4"/>
<feGaussianBlur stdDeviation="2"/>
<feColorMatrix type="matrix" values="0 0 0 0 0 0 0 0 0 0 0 0 0 0 0 0 0 0 0.25 0"/>
<feBlend mode="normal" in2="BackgroundImageFix" result="effect1_dropShadow"/>
<feBlend mode="normal" in="SourceGraphic" in2="effect1_dropShadow" result="shape"/>
</filter>
<linearGradient id="paint0_linear" x1="0" y1="102" x2="375" y2="102" gradientUnits="userSpaceOnUse">
<stop stop-color="#B24592"/>
<stop offset="1" stop-color="#F15F79"/>
</linearGradient>
<linearGradient id="paint1_linear" x1="0" y1="110.5" x2="375" y2="110.5" gradientUnits="userSpaceOnUse">
<stop stop-color="#ECE9E6"/>
<stop offset="1" stop-color="white"/>
</linearGradient>
</defs>
</svg>
