<svg width="375" height="220" viewBox="0 0 375 220" fill="none" xmlns="http://www.w3.org/2000/svg">
<rect y="-1" width="375" height="204" fill="url(#paint0_linear)"/>
<g filter="url(#filter0_d)">
<path d="M137.5 82.3125C137.5 86.4375 136.01 89.6875 133.031 92.0625C130.073 94.4375 125.948 95.625 120.656 95.625C115.781 95.625 111.469 94.7083 107.719 92.875V83.875C110.802 85.25 113.406 86.2188 115.531 86.7812C117.677 87.3438 119.635 87.625 121.406 87.625C123.531 87.625 125.156 87.2188 126.281 86.4062C127.427 85.5938 128 84.3854 128 82.7812C128 81.8854 127.75 81.0938 127.25 80.4062C126.75 79.6979 126.01 79.0208 125.031 78.375C124.073 77.7292 122.104 76.6979 119.125 75.2812C116.333 73.9688 114.24 72.7083 112.844 71.5C111.448 70.2917 110.333 68.8854 109.5 67.2812C108.667 65.6771 108.25 63.8021 108.25 61.6562C108.25 57.6146 109.615 54.4375 112.344 52.125C115.094 49.8125 118.885 48.6562 123.719 48.6562C126.094 48.6562 128.354 48.9375 130.5 49.5C132.667 50.0625 134.927 50.8542 137.281 51.875L134.156 59.4062C131.719 58.4062 129.698 57.7083 128.094 57.3125C126.51 56.9167 124.948 56.7188 123.406 56.7188C121.573 56.7188 120.167 57.1458 119.188 58C118.208 58.8542 117.719 59.9688 117.719 61.3438C117.719 62.1979 117.917 62.9479 118.312 63.5938C118.708 64.2188 119.333 64.8333 120.188 65.4375C121.062 66.0208 123.115 67.0833 126.344 68.625C130.615 70.6667 133.542 72.7188 135.125 74.7812C136.708 76.8229 137.5 79.3333 137.5 82.3125ZM154.188 76L158.344 70.6875L168.125 60.0625H178.875L165 75.2188L179.719 95H168.719L158.656 80.8438L154.562 84.125V95H145.031V46.375H154.562V68.0625L154.062 76H154.188ZM184.312 51.0312C184.312 47.9271 186.042 46.375 189.5 46.375C192.958 46.375 194.688 47.9271 194.688 51.0312C194.688 52.5104 194.25 53.6667 193.375 54.5C192.521 55.3125 191.229 55.7188 189.5 55.7188C186.042 55.7188 184.312 54.1562 184.312 51.0312ZM194.25 95H184.719V60.0625H194.25V95ZM213.812 95H204.281V46.375H213.812V95ZM233.375 95H223.844V46.375H233.375V95ZM267.781 84.625C267.781 88.2083 266.531 90.9375 264.031 92.8125C261.552 94.6875 257.833 95.625 252.875 95.625C250.333 95.625 248.167 95.4479 246.375 95.0938C244.583 94.7604 242.906 94.2604 241.344 93.5938V85.7188C243.115 86.5521 245.104 87.25 247.312 87.8125C249.542 88.375 251.5 88.6562 253.188 88.6562C256.646 88.6562 258.375 87.6562 258.375 85.6562C258.375 84.9062 258.146 84.3021 257.688 83.8438C257.229 83.3646 256.438 82.8333 255.312 82.25C254.188 81.6458 252.688 80.9479 250.812 80.1562C248.125 79.0312 246.146 77.9896 244.875 77.0312C243.625 76.0729 242.708 74.9792 242.125 73.75C241.562 72.5 241.281 70.9688 241.281 69.1562C241.281 66.0521 242.479 63.6562 244.875 61.9688C247.292 60.2604 250.708 59.4062 255.125 59.4062C259.333 59.4062 263.427 60.3229 267.406 62.1562L264.531 69.0312C262.781 68.2812 261.146 67.6667 259.625 67.1875C258.104 66.7083 256.552 66.4688 254.969 66.4688C252.156 66.4688 250.75 67.2292 250.75 68.75C250.75 69.6042 251.198 70.3438 252.094 70.9688C253.01 71.5938 255 72.5208 258.062 73.75C260.792 74.8542 262.792 75.8854 264.062 76.8438C265.333 77.8021 266.271 78.9062 266.875 80.1562C267.479 81.4062 267.781 82.8958 267.781 84.625ZM108.311 129H102.949V103.301H117.68V107.766H108.311V114.393H117.029V118.84H108.311V129ZM133.254 108.979C133.98 108.979 134.584 109.031 135.064 109.137L134.66 114.164C134.227 114.047 133.699 113.988 133.078 113.988C131.367 113.988 130.031 114.428 129.07 115.307C128.121 116.186 127.646 117.416 127.646 118.998V129H122.285V109.348H126.346L127.137 112.652H127.4C128.01 111.551 128.83 110.666 129.861 109.998C130.904 109.318 132.035 108.979 133.254 108.979ZM142.553 119.139C142.553 121.084 142.869 122.555 143.502 123.551C144.146 124.547 145.189 125.045 146.631 125.045C148.061 125.045 149.086 124.553 149.707 123.568C150.34 122.572 150.656 121.096 150.656 119.139C150.656 117.193 150.34 115.734 149.707 114.762C149.074 113.789 148.037 113.303 146.596 113.303C145.166 113.303 144.135 113.789 143.502 114.762C142.869 115.723 142.553 117.182 142.553 119.139ZM156.141 119.139C156.141 122.338 155.297 124.84 153.609 126.645C151.922 128.449 149.572 129.352 146.561 129.352C144.674 129.352 143.01 128.941 141.568 128.121C140.127 127.289 139.02 126.1 138.246 124.553C137.473 123.006 137.086 121.201 137.086 119.139C137.086 115.928 137.924 113.432 139.6 111.65C141.275 109.869 143.631 108.979 146.666 108.979C148.553 108.979 150.217 109.389 151.658 110.209C153.1 111.029 154.207 112.207 154.98 113.742C155.754 115.277 156.141 117.076 156.141 119.139ZM178.711 129H173.35V117.521C173.35 116.104 173.098 115.043 172.594 114.34C172.09 113.625 171.287 113.268 170.186 113.268C168.686 113.268 167.602 113.771 166.934 114.779C166.266 115.775 165.932 117.434 165.932 119.754V129H160.57V109.348H164.666L165.387 111.861H165.686C166.283 110.912 167.104 110.197 168.146 109.717C169.201 109.225 170.396 108.979 171.732 108.979C174.018 108.979 175.752 109.6 176.936 110.842C178.119 112.072 178.711 113.854 178.711 116.186V129ZM192.51 125.08C193.447 125.08 194.572 124.875 195.885 124.465V128.455C194.549 129.053 192.908 129.352 190.963 129.352C188.818 129.352 187.254 128.812 186.27 127.734C185.297 126.645 184.811 125.016 184.811 122.848V113.373H182.244V111.105L185.197 109.312L186.744 105.164H190.172V109.348H195.674V113.373H190.172V122.848C190.172 123.609 190.383 124.172 190.805 124.535C191.238 124.898 191.807 125.08 192.51 125.08ZM198.135 121.547V117.152H207.574V121.547H198.135ZM226.699 129H211.898V103.301H226.699V107.766H217.348V113.408H226.049V117.873H217.348V124.5H226.699V129ZM249.797 129H244.436V117.521C244.436 116.104 244.184 115.043 243.68 114.34C243.176 113.625 242.373 113.268 241.271 113.268C239.771 113.268 238.688 113.771 238.02 114.779C237.352 115.775 237.018 117.434 237.018 119.754V129H231.656V109.348H235.752L236.473 111.861H236.771C237.369 110.912 238.189 110.197 239.232 109.717C240.287 109.225 241.482 108.979 242.818 108.979C245.104 108.979 246.838 109.6 248.021 110.842C249.205 112.072 249.797 113.854 249.797 116.186V129ZM261.539 129.352C259.23 129.352 257.414 128.455 256.09 126.662C254.777 124.869 254.121 122.385 254.121 119.209C254.121 115.986 254.789 113.479 256.125 111.686C257.473 109.881 259.324 108.979 261.68 108.979C264.152 108.979 266.039 109.939 267.34 111.861H267.516C267.246 110.396 267.111 109.09 267.111 107.941V101.648H272.49V129H268.377L267.34 126.451H267.111C265.893 128.385 264.035 129.352 261.539 129.352ZM263.42 125.08C264.791 125.08 265.793 124.682 266.426 123.885C267.07 123.088 267.422 121.734 267.48 119.824V119.244C267.48 117.135 267.152 115.623 266.496 114.709C265.852 113.795 264.797 113.338 263.332 113.338C262.137 113.338 261.205 113.848 260.537 114.867C259.881 115.875 259.553 117.346 259.553 119.279C259.553 121.213 259.887 122.666 260.555 123.639C261.223 124.6 262.178 125.08 263.42 125.08ZM108.223 137.301H116.221C119.865 137.301 122.508 137.822 124.148 138.865C125.801 139.896 126.627 141.543 126.627 143.805C126.627 145.34 126.264 146.6 125.537 147.584C124.822 148.568 123.867 149.16 122.672 149.359V149.535C124.301 149.898 125.473 150.578 126.188 151.574C126.914 152.57 127.277 153.895 127.277 155.547C127.277 157.891 126.428 159.719 124.729 161.031C123.041 162.344 120.744 163 117.838 163H108.223V137.301ZM113.672 147.479H116.836C118.312 147.479 119.379 147.25 120.035 146.793C120.703 146.336 121.037 145.58 121.037 144.525C121.037 143.541 120.674 142.838 119.947 142.416C119.232 141.982 118.096 141.766 116.537 141.766H113.672V147.479ZM113.672 151.803V158.5H117.223C118.723 158.5 119.83 158.213 120.545 157.639C121.26 157.064 121.617 156.186 121.617 155.002C121.617 152.869 120.094 151.803 117.047 151.803H113.672ZM144.469 163L143.432 160.328H143.291C142.389 161.465 141.457 162.256 140.496 162.701C139.547 163.135 138.305 163.352 136.77 163.352C134.883 163.352 133.395 162.812 132.305 161.734C131.227 160.656 130.688 159.121 130.688 157.129C130.688 155.043 131.414 153.508 132.867 152.523C134.332 151.527 136.535 150.977 139.477 150.871L142.887 150.766V149.904C142.887 147.912 141.867 146.916 139.828 146.916C138.258 146.916 136.412 147.391 134.291 148.34L132.516 144.719C134.777 143.535 137.285 142.943 140.039 142.943C142.676 142.943 144.697 143.518 146.104 144.666C147.51 145.814 148.213 147.561 148.213 149.904V163H144.469ZM142.887 153.895L140.812 153.965C139.254 154.012 138.094 154.293 137.332 154.809C136.57 155.324 136.189 156.109 136.189 157.164C136.189 158.676 137.057 159.432 138.791 159.432C140.033 159.432 141.023 159.074 141.762 158.359C142.512 157.645 142.887 156.695 142.887 155.512V153.895ZM161.73 163.352C155.613 163.352 152.555 159.994 152.555 153.279C152.555 149.939 153.387 147.391 155.051 145.633C156.715 143.863 159.1 142.979 162.205 142.979C164.479 142.979 166.518 143.424 168.322 144.314L166.74 148.463C165.896 148.123 165.111 147.848 164.385 147.637C163.658 147.414 162.932 147.303 162.205 147.303C159.416 147.303 158.021 149.283 158.021 153.244C158.021 157.088 159.416 159.01 162.205 159.01C163.236 159.01 164.191 158.875 165.07 158.605C165.949 158.324 166.828 157.891 167.707 157.305V161.893C166.84 162.443 165.961 162.824 165.07 163.035C164.191 163.246 163.078 163.352 161.73 163.352ZM177.428 152.312L179.766 149.324L185.268 143.348H191.314L183.51 151.873L191.789 163H185.602L179.941 155.037L177.639 156.883V163H172.277V135.648H177.639V147.848L177.357 152.312H177.428ZM192.861 155.547V151.152H202.301V155.547H192.861ZM221.426 163H206.625V137.301H221.426V141.766H212.074V147.408H220.775V151.873H212.074V158.5H221.426V163ZM244.523 163H239.162V151.521C239.162 150.104 238.91 149.043 238.406 148.34C237.902 147.625 237.1 147.268 235.998 147.268C234.498 147.268 233.414 147.771 232.746 148.779C232.078 149.775 231.744 151.434 231.744 153.754V163H226.383V143.348H230.479L231.199 145.861H231.498C232.096 144.912 232.916 144.197 233.959 143.717C235.014 143.225 236.209 142.979 237.545 142.979C239.83 142.979 241.564 143.6 242.748 144.842C243.932 146.072 244.523 147.854 244.523 150.186V163ZM256.266 163.352C253.957 163.352 252.141 162.455 250.816 160.662C249.504 158.869 248.848 156.385 248.848 153.209C248.848 149.986 249.516 147.479 250.852 145.686C252.199 143.881 254.051 142.979 256.406 142.979C258.879 142.979 260.766 143.939 262.066 145.861H262.242C261.973 144.396 261.838 143.09 261.838 141.941V135.648H267.217V163H263.104L262.066 160.451H261.838C260.619 162.385 258.762 163.352 256.266 163.352ZM258.146 159.08C259.518 159.08 260.52 158.682 261.152 157.885C261.797 157.088 262.148 155.734 262.207 153.824V153.244C262.207 151.135 261.879 149.623 261.223 148.709C260.578 147.795 259.523 147.338 258.059 147.338C256.863 147.338 255.932 147.848 255.264 148.867C254.607 149.875 254.279 151.346 254.279 153.279C254.279 155.213 254.613 156.666 255.281 157.639C255.949 158.6 256.904 159.08 258.146 159.08Z" fill="url(#paint1_linear)"/>
</g>
<defs>
<filter id="filter0_d" x="98.9492" y="46.375" width="177.541" height="124.977" filterUnits="userSpaceOnUse" color-interpolation-filters="sRGB">
<feFlood flood-opacity="0" result="BackgroundImageFix"/>
<feColorMatrix in="SourceAlpha" type="matrix" values="0 0 0 0 0 0 0 0 0 0 0 0 0 0 0 0 0 0 127 0"/>
<feOffset dy="4"/>
<feGaussianBlur stdDeviation="2"/>
<feColorMatrix type="matrix" values="0 0 0 0 0 0 0 0 0 0 0 0 0 0 0 0 0 0 0.25 0"/>
<feBlend mode="normal" in2="BackgroundImageFix" result="effect1_dropShadow"/>
<feBlend mode="normal" in="SourceGraphic" in2="effect1_dropShadow" result="shape"/>
</filter>
<linearGradient id="paint0_linear" x1="0" y1="101" x2="375" y2="101" gradientUnits="userSpaceOnUse">
<stop stop-color="#F2709C"/>
<stop offset="1" stop-color="#FF9472"/>
</linearGradient>
<linearGradient id="paint1_linear" x1="0" y1="109.5" x2="375" y2="109.5" gradientUnits="userSpaceOnUse">
<stop stop-color="#ECE9E6"/>
<stop offset="1" stop-color="white"/>
</linearGradient>
</defs>
</svg>
