<svg width="375" height="220" viewBox="0 0 375 220" fill="none" xmlns="http://www.w3.org/2000/svg">
<rect y="-1" width="375" height="204" fill="url(#paint0_linear)"/>
<g filter="url(#filter0_d)">
<path d="M79.6914 110H71.9473V72.8789H93.2246V79.3281H79.6914V88.9004H92.2852V95.3242H79.6914V110ZM117.904 110L116.406 106.141H116.203C114.9 107.783 113.554 108.925 112.166 109.568C110.795 110.195 109.001 110.508 106.783 110.508C104.058 110.508 101.908 109.729 100.334 108.172C98.7767 106.615 97.998 104.397 97.998 101.52C97.998 98.5065 99.0475 96.2891 101.146 94.8672C103.262 93.4284 106.445 92.6328 110.693 92.4805L115.619 92.3281V91.084C115.619 88.2064 114.146 86.7676 111.201 86.7676C108.933 86.7676 106.267 87.4531 103.203 88.8242L100.639 83.5938C103.906 81.8841 107.528 81.0293 111.506 81.0293C115.314 81.0293 118.234 81.8587 120.266 83.5176C122.297 85.1764 123.312 87.6986 123.312 91.084V110H117.904ZM115.619 96.8477L112.623 96.9492C110.372 97.0169 108.696 97.4232 107.596 98.168C106.495 98.9128 105.945 100.047 105.945 101.57C105.945 103.754 107.198 104.846 109.703 104.846C111.497 104.846 112.928 104.329 113.994 103.297C115.077 102.264 115.619 100.893 115.619 99.1836V96.8477ZM138.064 110L127.248 81.6133H135.348L140.832 97.7871C141.391 99.5475 141.755 101.486 141.924 103.602H142.127C142.229 101.689 142.609 99.7507 143.27 97.7871L148.729 81.6133H156.828L146.012 110H138.064ZM167.086 95.7559C167.086 98.5658 167.543 100.69 168.457 102.129C169.388 103.568 170.895 104.287 172.977 104.287C175.042 104.287 176.523 103.576 177.42 102.154C178.334 100.715 178.791 98.5827 178.791 95.7559C178.791 92.946 178.334 90.8385 177.42 89.4336C176.506 88.0286 175.008 87.3262 172.926 87.3262C170.861 87.3262 169.371 88.0286 168.457 89.4336C167.543 90.8216 167.086 92.929 167.086 95.7559ZM186.713 95.7559C186.713 100.377 185.494 103.991 183.057 106.598C180.619 109.204 177.225 110.508 172.875 110.508C170.15 110.508 167.746 109.915 165.664 108.73C163.582 107.529 161.982 105.811 160.865 103.576C159.748 101.342 159.189 98.735 159.189 95.7559C159.189 91.1178 160.4 87.5124 162.82 84.9395C165.241 82.3665 168.643 81.0801 173.027 81.0801C175.753 81.0801 178.156 81.6725 180.238 82.8574C182.32 84.0423 183.92 85.7435 185.037 87.9609C186.154 90.1784 186.713 92.7767 186.713 95.7559ZM208.955 81.0801C210.005 81.0801 210.876 81.1562 211.57 81.3086L210.986 88.5703C210.36 88.401 209.598 88.3164 208.701 88.3164C206.23 88.3164 204.3 88.9512 202.912 90.2207C201.541 91.4902 200.855 93.2676 200.855 95.5527V110H193.111V81.6133H198.977L200.119 86.3867H200.5C201.38 84.7956 202.565 83.5176 204.055 82.5527C205.561 81.571 207.195 81.0801 208.955 81.0801ZM216.395 74.2754C216.395 71.7533 217.799 70.4922 220.609 70.4922C223.419 70.4922 224.824 71.7533 224.824 74.2754C224.824 75.4772 224.469 76.4167 223.758 77.0938C223.064 77.7539 222.014 78.084 220.609 78.084C217.799 78.084 216.395 76.8145 216.395 74.2754ZM224.469 110H216.725V81.6133H224.469V110ZM244.578 104.338C245.932 104.338 247.557 104.042 249.453 103.449V109.213C247.523 110.076 245.154 110.508 242.344 110.508C239.246 110.508 236.986 109.729 235.564 108.172C234.16 106.598 233.457 104.245 233.457 101.113V87.4277H229.75V84.1523L234.016 81.5625L236.25 75.5703H241.201V81.6133H249.148V87.4277H241.201V101.113C241.201 102.214 241.506 103.026 242.115 103.551C242.742 104.076 243.562 104.338 244.578 104.338ZM266.973 86.5898C265.331 86.5898 264.044 87.1146 263.113 88.1641C262.182 89.1966 261.649 90.6693 261.514 92.582H272.381C272.347 90.6693 271.848 89.1966 270.883 88.1641C269.918 87.1146 268.615 86.5898 266.973 86.5898ZM268.064 110.508C263.494 110.508 259.923 109.247 257.35 106.725C254.777 104.202 253.49 100.631 253.49 96.0098C253.49 91.2533 254.675 87.5801 257.045 84.9902C259.432 82.3835 262.724 81.0801 266.922 81.0801C270.934 81.0801 274.057 82.2227 276.291 84.5078C278.525 86.793 279.643 89.9499 279.643 93.9785V97.7363H261.336C261.421 99.9368 262.072 101.655 263.291 102.891C264.51 104.126 266.219 104.744 268.42 104.744C270.13 104.744 271.746 104.566 273.27 104.211C274.793 103.855 276.384 103.288 278.043 102.51V108.502C276.689 109.179 275.242 109.678 273.701 110C272.161 110.339 270.282 110.508 268.064 110.508ZM305.744 101.57C305.744 104.482 304.729 106.699 302.697 108.223C300.683 109.746 297.661 110.508 293.633 110.508C291.568 110.508 289.807 110.364 288.352 110.076C286.896 109.805 285.533 109.399 284.264 108.857V102.459C285.702 103.136 287.319 103.703 289.113 104.16C290.924 104.617 292.516 104.846 293.887 104.846C296.697 104.846 298.102 104.033 298.102 102.408C298.102 101.799 297.915 101.308 297.543 100.936C297.171 100.546 296.527 100.115 295.613 99.6406C294.699 99.1497 293.48 98.5827 291.957 97.9395C289.773 97.0254 288.165 96.179 287.133 95.4004C286.117 94.6217 285.372 93.7331 284.898 92.7344C284.441 91.7188 284.213 90.4746 284.213 89.002C284.213 86.4798 285.186 84.5332 287.133 83.1621C289.096 81.7741 291.872 81.0801 295.461 81.0801C298.88 81.0801 302.206 81.8249 305.439 83.3145L303.104 88.9004C301.682 88.291 300.353 87.7917 299.117 87.4023C297.882 87.013 296.62 86.8184 295.334 86.8184C293.049 86.8184 291.906 87.4362 291.906 88.6719C291.906 89.3659 292.27 89.9668 292.998 90.4746C293.743 90.9824 295.359 91.7357 297.848 92.7344C300.065 93.6315 301.69 94.4694 302.723 95.248C303.755 96.0267 304.517 96.9238 305.008 97.9395C305.499 98.9551 305.744 100.165 305.744 101.57ZM154.137 136.863C154.137 139.184 153.299 141.012 151.623 142.348C149.959 143.684 147.639 144.352 144.662 144.352C141.92 144.352 139.494 143.836 137.385 142.805V137.742C139.119 138.516 140.584 139.061 141.779 139.377C142.986 139.693 144.088 139.852 145.084 139.852C146.279 139.852 147.193 139.623 147.826 139.166C148.471 138.709 148.793 138.029 148.793 137.127C148.793 136.623 148.652 136.178 148.371 135.791C148.09 135.393 147.674 135.012 147.123 134.648C146.584 134.285 145.477 133.705 143.801 132.908C142.23 132.17 141.053 131.461 140.268 130.781C139.482 130.102 138.855 129.311 138.387 128.408C137.918 127.506 137.684 126.451 137.684 125.244C137.684 122.971 138.451 121.184 139.986 119.883C141.533 118.582 143.666 117.932 146.385 117.932C147.721 117.932 148.992 118.09 150.199 118.406C151.418 118.723 152.689 119.168 154.014 119.742L152.256 123.979C150.885 123.416 149.748 123.023 148.846 122.801C147.955 122.578 147.076 122.467 146.209 122.467C145.178 122.467 144.387 122.707 143.836 123.188C143.285 123.668 143.01 124.295 143.01 125.068C143.01 125.549 143.121 125.971 143.344 126.334C143.566 126.686 143.918 127.031 144.398 127.371C144.891 127.699 146.045 128.297 147.861 129.164C150.264 130.312 151.91 131.467 152.801 132.627C153.691 133.775 154.137 135.188 154.137 136.863ZM162.645 134.139C162.645 136.084 162.961 137.555 163.594 138.551C164.238 139.547 165.281 140.045 166.723 140.045C168.152 140.045 169.178 139.553 169.799 138.568C170.432 137.572 170.748 136.096 170.748 134.139C170.748 132.193 170.432 130.734 169.799 129.762C169.166 128.789 168.129 128.303 166.688 128.303C165.258 128.303 164.227 128.789 163.594 129.762C162.961 130.723 162.645 132.182 162.645 134.139ZM176.232 134.139C176.232 137.338 175.389 139.84 173.701 141.645C172.014 143.449 169.664 144.352 166.652 144.352C164.766 144.352 163.102 143.941 161.66 143.121C160.219 142.289 159.111 141.1 158.338 139.553C157.564 138.006 157.178 136.201 157.178 134.139C157.178 130.928 158.016 128.432 159.691 126.65C161.367 124.869 163.723 123.979 166.758 123.979C168.645 123.979 170.309 124.389 171.75 125.209C173.191 126.029 174.299 127.207 175.072 128.742C175.846 130.277 176.232 132.076 176.232 134.139ZM200.877 128.373H196.236V144H190.875V128.373H187.922V125.789L190.875 124.348V122.906C190.875 120.668 191.426 119.033 192.527 118.002C193.629 116.971 195.393 116.455 197.818 116.455C199.67 116.455 201.316 116.73 202.758 117.281L201.387 121.219C200.309 120.879 199.312 120.709 198.398 120.709C197.637 120.709 197.086 120.938 196.746 121.395C196.406 121.84 196.236 122.414 196.236 123.117V124.348H200.877V128.373ZM216.451 144L215.414 141.328H215.273C214.371 142.465 213.439 143.256 212.479 143.701C211.529 144.135 210.287 144.352 208.752 144.352C206.865 144.352 205.377 143.812 204.287 142.734C203.209 141.656 202.67 140.121 202.67 138.129C202.67 136.043 203.396 134.508 204.85 133.523C206.314 132.527 208.518 131.977 211.459 131.871L214.869 131.766V130.904C214.869 128.912 213.85 127.916 211.811 127.916C210.24 127.916 208.395 128.391 206.273 129.34L204.498 125.719C206.76 124.535 209.268 123.943 212.021 123.943C214.658 123.943 216.68 124.518 218.086 125.666C219.492 126.814 220.195 128.561 220.195 130.904V144H216.451ZM214.869 134.895L212.795 134.965C211.236 135.012 210.076 135.293 209.314 135.809C208.553 136.324 208.172 137.109 208.172 138.164C208.172 139.676 209.039 140.432 210.773 140.432C212.016 140.432 213.006 140.074 213.744 139.359C214.494 138.645 214.869 137.695 214.869 136.512V134.895ZM236.701 123.979C237.428 123.979 238.031 124.031 238.512 124.137L238.107 129.164C237.674 129.047 237.146 128.988 236.525 128.988C234.814 128.988 233.479 129.428 232.518 130.307C231.568 131.186 231.094 132.416 231.094 133.998V144H225.732V124.348H229.793L230.584 127.652H230.848C231.457 126.551 232.277 125.666 233.309 124.998C234.352 124.318 235.482 123.979 236.701 123.979Z" fill="url(#paint1_linear)"/>
</g>
<defs>
<filter id="filter0_d" x="67.9473" y="70.4922" width="241.797" height="81.8594" filterUnits="userSpaceOnUse" color-interpolation-filters="sRGB">
<feFlood flood-opacity="0" result="BackgroundImageFix"/>
<feColorMatrix in="SourceAlpha" type="matrix" values="0 0 0 0 0 0 0 0 0 0 0 0 0 0 0 0 0 0 127 0"/>
<feOffset dy="4"/>
<feGaussianBlur stdDeviation="2"/>
<feColorMatrix type="matrix" values="0 0 0 0 0 0 0 0 0 0 0 0 0 0 0 0 0 0 0.25 0"/>
<feBlend mode="normal" in2="BackgroundImageFix" result="effect1_dropShadow"/>
<feBlend mode="normal" in="SourceGraphic" in2="effect1_dropShadow" result="shape"/>
</filter>
<linearGradient id="paint0_linear" x1="0" y1="101" x2="375" y2="101" gradientUnits="userSpaceOnUse">
<stop stop-color="#FF1E56"/>
<stop offset="0.5" stop-color="#F9C942"/>
<stop offset="1" stop-color="#1E90FF"/>
</linearGradient>
<linearGradient id="paint1_linear" x1="0" y1="109.5" x2="375" y2="109.5" gradientUnits="userSpaceOnUse">
<stop stop-color="#ECE9E6"/>
<stop offset="1" stop-color="white"/>
</linearGradient>
</defs>
</svg>
