<svg width="375" height="221" viewBox="0 0 375 221" fill="none" xmlns="http://www.w3.org/2000/svg">
<rect width="375" height="204" fill="url(#paint0_linear)"/>
<g filter="url(#filter0_d)">
<path d="M112.562 82.3438H130.688V106.031C127.75 106.99 124.979 107.656 122.375 108.031C119.792 108.427 117.146 108.625 114.438 108.625C107.542 108.625 102.271 106.604 98.625 102.562C95 98.5 93.1875 92.6771 93.1875 85.0938C93.1875 77.7188 95.2917 71.9688 99.5 67.8438C103.729 63.7188 109.583 61.6562 117.062 61.6562C121.75 61.6562 126.271 62.5938 130.625 64.4688L127.406 72.2188C124.073 70.5521 120.604 69.7188 117 69.7188C112.812 69.7188 109.458 71.125 106.938 73.9375C104.417 76.75 103.156 80.5312 103.156 85.2812C103.156 90.2396 104.167 94.0312 106.188 96.6562C108.229 99.2604 111.188 100.562 115.062 100.562C117.083 100.562 119.135 100.354 121.219 99.9375V90.4062H112.562V82.3438ZM160.344 72.4062C161.635 72.4062 162.708 72.5 163.562 72.6875L162.844 81.625C162.073 81.4167 161.135 81.3125 160.031 81.3125C156.99 81.3125 154.615 82.0938 152.906 83.6562C151.219 85.2188 150.375 87.4062 150.375 90.2188V108H140.844V73.0625H148.062L149.469 78.9375H149.938C151.021 76.9792 152.479 75.4062 154.312 74.2188C156.167 73.0104 158.177 72.4062 160.344 72.4062ZM191.469 108L189.625 103.25H189.375C187.771 105.271 186.115 106.677 184.406 107.469C182.719 108.24 180.51 108.625 177.781 108.625C174.427 108.625 171.781 107.667 169.844 105.75C167.927 103.833 166.969 101.104 166.969 97.5625C166.969 93.8542 168.26 91.125 170.844 89.375C173.448 87.6042 177.365 86.625 182.594 86.4375L188.656 86.25V84.7188C188.656 81.1771 186.844 79.4062 183.219 79.4062C180.427 79.4062 177.146 80.25 173.375 81.9375L170.219 75.5C174.24 73.3958 178.698 72.3438 183.594 72.3438C188.281 72.3438 191.875 73.3646 194.375 75.4062C196.875 77.4479 198.125 80.5521 198.125 84.7188V108H191.469ZM188.656 91.8125L184.969 91.9375C182.198 92.0208 180.135 92.5208 178.781 93.4375C177.427 94.3542 176.75 95.75 176.75 97.625C176.75 100.312 178.292 101.656 181.375 101.656C183.583 101.656 185.344 101.021 186.656 99.75C187.99 98.4792 188.656 96.7917 188.656 94.6875V91.8125ZM227.156 108.625C223.052 108.625 219.833 107.135 217.5 104.156H217C217.333 107.073 217.5 108.76 217.5 109.219V123.375H207.969V73.0625H215.719L217.062 77.5938H217.5C219.729 74.1354 223.031 72.4062 227.406 72.4062C231.531 72.4062 234.76 74 237.094 77.1875C239.427 80.375 240.594 84.8021 240.594 90.4688C240.594 94.1979 240.042 97.4375 238.938 100.188C237.854 102.938 236.302 105.031 234.281 106.469C232.26 107.906 229.885 108.625 227.156 108.625ZM224.344 80.0312C221.99 80.0312 220.271 80.7604 219.188 82.2188C218.104 83.6562 217.542 86.0417 217.5 89.375V90.4062C217.5 94.1562 218.052 96.8438 219.156 98.4688C220.281 100.094 222.052 100.906 224.469 100.906C228.74 100.906 230.875 97.3854 230.875 90.3438C230.875 86.9062 230.344 84.3333 229.281 82.625C228.24 80.8958 226.594 80.0312 224.344 80.0312ZM280.719 108H271.188V87.5938C271.188 82.5521 269.312 80.0312 265.562 80.0312C262.896 80.0312 260.969 80.9375 259.781 82.75C258.594 84.5625 258 87.5 258 91.5625V108H248.469V59.375H258V69.2812C258 70.0521 257.927 71.8646 257.781 74.7188L257.562 77.5312H258.062C260.188 74.1146 263.562 72.4062 268.188 72.4062C272.292 72.4062 275.406 73.5104 277.531 75.7188C279.656 77.9271 280.719 81.0938 280.719 85.2188V108ZM142.465 152H127.664V126.301H142.465V130.766H133.113V136.408H141.814V140.873H133.113V147.5H142.465V152ZM153.645 152.352C151.336 152.352 149.52 151.455 148.195 149.662C146.883 147.869 146.227 145.385 146.227 142.209C146.227 138.986 146.895 136.479 148.23 134.686C149.578 132.881 151.43 131.979 153.785 131.979C156.258 131.979 158.145 132.939 159.445 134.861H159.621C159.352 133.396 159.217 132.09 159.217 130.941V124.648H164.596V152H160.482L159.445 149.451H159.217C157.998 151.385 156.141 152.352 153.645 152.352ZM155.525 148.08C156.896 148.08 157.898 147.682 158.531 146.885C159.176 146.088 159.527 144.734 159.586 142.824V142.244C159.586 140.135 159.258 138.623 158.602 137.709C157.957 136.795 156.902 136.338 155.438 136.338C154.242 136.338 153.311 136.848 152.643 137.867C151.986 138.875 151.658 140.346 151.658 142.279C151.658 144.213 151.992 145.666 152.66 146.639C153.328 147.6 154.283 148.08 155.525 148.08ZM169.975 127.268C169.975 125.521 170.947 124.648 172.893 124.648C174.838 124.648 175.811 125.521 175.811 127.268C175.811 128.1 175.564 128.75 175.072 129.219C174.592 129.676 173.865 129.904 172.893 129.904C170.947 129.904 169.975 129.025 169.975 127.268ZM175.564 152H170.203V132.348H175.564V152ZM189.486 148.08C190.424 148.08 191.549 147.875 192.861 147.465V151.455C191.525 152.053 189.885 152.352 187.939 152.352C185.795 152.352 184.23 151.812 183.246 150.734C182.273 149.645 181.787 148.016 181.787 145.848V136.373H179.221V134.105L182.174 132.312L183.721 128.164H187.148V132.348H192.65V136.373H187.148V145.848C187.148 146.609 187.359 147.172 187.781 147.535C188.215 147.898 188.783 148.08 189.486 148.08ZM201.123 142.139C201.123 144.084 201.439 145.555 202.072 146.551C202.717 147.547 203.76 148.045 205.201 148.045C206.631 148.045 207.656 147.553 208.277 146.568C208.91 145.572 209.227 144.096 209.227 142.139C209.227 140.193 208.91 138.734 208.277 137.762C207.645 136.789 206.607 136.303 205.166 136.303C203.736 136.303 202.705 136.789 202.072 137.762C201.439 138.723 201.123 140.182 201.123 142.139ZM214.711 142.139C214.711 145.338 213.867 147.84 212.18 149.645C210.492 151.449 208.143 152.352 205.131 152.352C203.244 152.352 201.58 151.941 200.139 151.121C198.697 150.289 197.59 149.1 196.816 147.553C196.043 146.006 195.656 144.201 195.656 142.139C195.656 138.928 196.494 136.432 198.17 134.65C199.846 132.869 202.201 131.979 205.236 131.979C207.123 131.979 208.787 132.389 210.229 133.209C211.67 134.029 212.777 135.207 213.551 136.742C214.324 138.277 214.711 140.076 214.711 142.139ZM230.109 131.979C230.836 131.979 231.439 132.031 231.92 132.137L231.516 137.164C231.082 137.047 230.555 136.988 229.934 136.988C228.223 136.988 226.887 137.428 225.926 138.307C224.977 139.186 224.502 140.416 224.502 141.998V152H219.141V132.348H223.201L223.992 135.652H224.256C224.865 134.551 225.686 133.666 226.717 132.998C227.76 132.318 228.891 131.979 230.109 131.979ZM249.199 146.164C249.199 148.18 248.496 149.715 247.09 150.77C245.695 151.824 243.604 152.352 240.814 152.352C239.385 152.352 238.166 152.252 237.158 152.053C236.15 151.865 235.207 151.584 234.328 151.209V146.779C235.324 147.248 236.443 147.641 237.686 147.957C238.939 148.273 240.041 148.432 240.99 148.432C242.936 148.432 243.908 147.869 243.908 146.744C243.908 146.322 243.779 145.982 243.521 145.725C243.264 145.455 242.818 145.156 242.186 144.828C241.553 144.488 240.709 144.096 239.654 143.65C238.143 143.018 237.029 142.432 236.314 141.893C235.611 141.354 235.096 140.738 234.768 140.047C234.451 139.344 234.293 138.482 234.293 137.463C234.293 135.717 234.967 134.369 236.314 133.42C237.674 132.459 239.596 131.979 242.08 131.979C244.447 131.979 246.75 132.494 248.988 133.525L247.371 137.393C246.387 136.971 245.467 136.625 244.611 136.355C243.756 136.086 242.883 135.951 241.992 135.951C240.41 135.951 239.619 136.379 239.619 137.234C239.619 137.715 239.871 138.131 240.375 138.482C240.891 138.834 242.01 139.355 243.732 140.047C245.268 140.668 246.393 141.248 247.107 141.787C247.822 142.326 248.35 142.947 248.689 143.65C249.029 144.354 249.199 145.191 249.199 146.164Z" fill="url(#paint1_linear)"/>
</g>
<path d="M247.749 18.1504H251.414C253.137 18.1504 254.379 18.4082 255.141 18.9238C255.908 19.4336 256.292 20.2363 256.292 21.332C256.292 22.0938 256.084 22.7236 255.668 23.2217C255.252 23.7139 254.646 24.0332 253.849 24.1797V24.2676C254.839 24.4375 255.565 24.7803 256.028 25.2959C256.497 25.8115 256.731 26.4941 256.731 27.3438C256.731 28.4922 256.339 29.3887 255.554 30.0332C254.769 30.6777 253.673 31 252.267 31H247.749V18.1504ZM249.366 23.6172H251.739C252.747 23.6172 253.479 23.4561 253.937 23.1338C254.394 22.8115 254.622 22.2725 254.622 21.5166C254.622 20.8135 254.37 20.3066 253.866 19.9961C253.368 19.6855 252.577 19.5303 251.493 19.5303H249.366V23.6172ZM249.366 24.9707V29.6289H251.959C252.99 29.6289 253.755 29.4297 254.253 29.0312C254.751 28.6328 255 28.0293 255 27.2207C255 26.4531 254.736 25.8877 254.209 25.5244C253.682 25.1553 252.891 24.9707 251.836 24.9707H249.366ZM267.34 31L265.793 27.0186H260.695L259.166 31H257.531L262.55 18.0977H264.009L269.019 31H267.34ZM265.31 25.5859L263.868 21.6924L263.253 19.7676C263.077 20.4707 262.893 21.1123 262.699 21.6924L261.24 25.5859H265.31ZM278.08 27.5635C278.08 28.6826 277.676 29.5645 276.867 30.209C276.059 30.8535 274.934 31.1758 273.492 31.1758C271.969 31.1758 270.791 30.9736 269.959 30.5693V29.0225C270.504 29.2568 271.099 29.4414 271.743 29.5762C272.394 29.7109 273 29.7783 273.562 29.7783C274.523 29.7783 275.247 29.5938 275.733 29.2246C276.22 28.8555 276.463 28.3486 276.463 27.7041C276.463 27.2764 276.375 26.9248 276.199 26.6494C276.023 26.374 275.728 26.1162 275.312 25.876C274.901 25.6357 274.277 25.3633 273.439 25.0586C272.25 24.625 271.4 24.1152 270.891 23.5293C270.381 22.9375 270.126 22.1758 270.126 21.2441C270.126 20.2422 270.501 19.4453 271.251 18.8535C272.007 18.2617 273 17.9658 274.23 17.9658C275.514 17.9658 276.694 18.2061 277.772 18.6865L277.271 20.0752C276.17 19.6182 275.145 19.3896 274.195 19.3896C273.434 19.3896 272.836 19.5537 272.402 19.8818C271.975 20.21 271.761 20.6699 271.761 21.2617C271.761 21.6836 271.843 22.0352 272.007 22.3164C272.177 22.5918 272.446 22.8438 272.815 23.0723C273.19 23.3008 273.776 23.5615 274.573 23.8545C275.528 24.2061 276.24 24.5488 276.709 24.8828C277.178 25.2109 277.523 25.5918 277.746 26.0254C277.969 26.4531 278.08 26.9658 278.08 27.5635ZM284.285 31H279.645V30.0684L281.156 29.7256V19.4424L279.645 19.082V18.1504H284.285V19.082L282.773 19.4424V29.7256L284.285 30.0684V31ZM292.274 19.3896C290.892 19.3896 289.805 19.8525 289.014 20.7783C288.223 21.7041 287.827 22.9697 287.827 24.5752C287.827 26.2334 288.211 27.5137 288.979 28.416C289.746 29.3125 290.839 29.7607 292.257 29.7607C293.171 29.7607 294.199 29.5908 295.342 29.251V30.6572C294.797 30.8564 294.272 30.9912 293.769 31.0615C293.265 31.1377 292.685 31.1758 292.028 31.1758C290.136 31.1758 288.677 30.6016 287.651 29.4531C286.632 28.2988 286.122 26.667 286.122 24.5576C286.122 23.2334 286.365 22.0732 286.852 21.0771C287.344 20.0811 288.056 19.3135 288.987 18.7744C289.925 18.2354 291.026 17.9658 292.292 17.9658C293.651 17.9658 294.835 18.2178 295.843 18.7217L295.192 20.0928C294.167 19.624 293.194 19.3896 292.274 19.3896Z" fill="url(#paint2_linear)"/>
<path d="M305.818 31H304.192V19.5742H300.176V18.1504H309.809V19.5742H305.818V31ZM322.808 24.5576C322.808 26.6143 322.286 28.2314 321.243 29.4092C320.206 30.5869 318.753 31.1758 316.884 31.1758C314.991 31.1758 313.526 30.5986 312.489 29.4443C311.458 28.2842 310.942 26.6494 310.942 24.54C310.942 22.4482 311.455 20.8281 312.48 19.6797C313.512 18.5254 314.985 17.9482 316.901 17.9482C318.765 17.9482 320.215 18.5342 321.252 19.7061C322.289 20.8721 322.808 22.4893 322.808 24.5576ZM312.647 24.5576C312.647 26.2568 313.008 27.5518 313.729 28.4424C314.449 29.333 315.501 29.7783 316.884 29.7783C318.261 29.7783 319.307 29.3389 320.021 28.46C320.736 27.5811 321.094 26.2803 321.094 24.5576C321.094 22.8408 320.739 21.5488 320.03 20.6816C319.321 19.8086 318.278 19.3721 316.901 19.3721C315.507 19.3721 314.449 19.8145 313.729 20.6992C313.008 21.5781 312.647 22.8643 312.647 24.5576ZM336.87 24.5576C336.87 26.6143 336.349 28.2314 335.306 29.4092C334.269 30.5869 332.815 31.1758 330.946 31.1758C329.054 31.1758 327.589 30.5986 326.552 29.4443C325.521 28.2842 325.005 26.6494 325.005 24.54C325.005 22.4482 325.518 20.8281 326.543 19.6797C327.574 18.5254 329.048 17.9482 330.964 17.9482C332.827 17.9482 334.277 18.5342 335.314 19.7061C336.352 20.8721 336.87 22.4893 336.87 24.5576ZM326.71 24.5576C326.71 26.2568 327.07 27.5518 327.791 28.4424C328.512 29.333 329.563 29.7783 330.946 29.7783C332.323 29.7783 333.369 29.3389 334.084 28.46C334.799 27.5811 335.156 26.2803 335.156 24.5576C335.156 22.8408 334.802 21.5488 334.093 20.6816C333.384 19.8086 332.341 19.3721 330.964 19.3721C329.569 19.3721 328.512 19.8145 327.791 20.6992C327.07 21.5781 326.71 22.8643 326.71 24.5576ZM339.718 31V18.1504H341.335V29.5586H346.951V31H339.718ZM356.443 27.5635C356.443 28.6826 356.039 29.5645 355.23 30.209C354.422 30.8535 353.297 31.1758 351.855 31.1758C350.332 31.1758 349.154 30.9736 348.322 30.5693V29.0225C348.867 29.2568 349.462 29.4414 350.106 29.5762C350.757 29.7109 351.363 29.7783 351.926 29.7783C352.887 29.7783 353.61 29.5938 354.097 29.2246C354.583 28.8555 354.826 28.3486 354.826 27.7041C354.826 27.2764 354.738 26.9248 354.562 26.6494C354.387 26.374 354.091 26.1162 353.675 25.876C353.265 25.6357 352.641 25.3633 351.803 25.0586C350.613 24.625 349.764 24.1152 349.254 23.5293C348.744 22.9375 348.489 22.1758 348.489 21.2441C348.489 20.2422 348.864 19.4453 349.614 18.8535C350.37 18.2617 351.363 17.9658 352.594 17.9658C353.877 17.9658 355.058 18.2061 356.136 18.6865L355.635 20.0752C354.533 19.6182 353.508 19.3896 352.559 19.3896C351.797 19.3896 351.199 19.5537 350.766 19.8818C350.338 20.21 350.124 20.6699 350.124 21.2617C350.124 21.6836 350.206 22.0352 350.37 22.3164C350.54 22.5918 350.81 22.8438 351.179 23.0723C351.554 23.3008 352.14 23.5615 352.937 23.8545C353.892 24.2061 354.604 24.5488 355.072 24.8828C355.541 25.2109 355.887 25.5918 356.109 26.0254C356.332 26.4531 356.443 26.9658 356.443 27.5635Z" fill="url(#paint3_linear)"/>
<defs>
<filter id="filter0_d" x="89.1875" y="59.375" width="195.531" height="100.977" filterUnits="userSpaceOnUse" color-interpolation-filters="sRGB">
<feFlood flood-opacity="0" result="BackgroundImageFix"/>
<feColorMatrix in="SourceAlpha" type="matrix" values="0 0 0 0 0 0 0 0 0 0 0 0 0 0 0 0 0 0 127 0"/>
<feOffset dy="4"/>
<feGaussianBlur stdDeviation="2"/>
<feColorMatrix type="matrix" values="0 0 0 0 0 0 0 0 0 0 0 0 0 0 0 0 0 0 0.25 0"/>
<feBlend mode="normal" in2="BackgroundImageFix" result="effect1_dropShadow"/>
<feBlend mode="normal" in="SourceGraphic" in2="effect1_dropShadow" result="shape"/>
</filter>
<linearGradient id="paint0_linear" x1="0" y1="102" x2="375" y2="102" gradientUnits="userSpaceOnUse">
<stop stop-color="#B24592"/>
<stop offset="1" stop-color="#F15F79"/>
</linearGradient>
<linearGradient id="paint1_linear" x1="0" y1="110.5" x2="375" y2="110.5" gradientUnits="userSpaceOnUse">
<stop stop-color="#ECE9E6"/>
<stop offset="1" stop-color="white"/>
</linearGradient>
<linearGradient id="paint2_linear" x1="246" y1="24" x2="297" y2="24" gradientUnits="userSpaceOnUse">
<stop stop-color="#ECE9E6"/>
<stop offset="1" stop-color="white"/>
</linearGradient>
<linearGradient id="paint3_linear" x1="300" y1="24" x2="358" y2="24" gradientUnits="userSpaceOnUse">
<stop stop-color="#ECE9E6"/>
<stop offset="1" stop-color="white"/>
</linearGradient>
</defs>
</svg>
